%FSLAX24Y24*%
%MOIN*%
G70*
G01*
G75*
G04 Layer_Color=65535*
%ADD10R,0.0433X0.0394*%
%ADD11R,0.0394X0.0433*%
%ADD12R,0.0354X0.0276*%
%ADD13R,0.0276X0.0354*%
%ADD14O,0.0787X0.0236*%
%ADD15C,0.0100*%
%ADD16R,0.0100X0.0200*%
%ADD17R,0.0591X0.0591*%
%ADD18C,0.0591*%
%ADD19C,0.1969*%
%ADD20C,0.0500*%
%ADD21C,0.0098*%
%ADD22C,0.0236*%
%ADD23C,0.0079*%
%ADD24C,0.0039*%
%ADD25C,0.0090*%
%ADD26C,0.0080*%
G36*
X15893Y5827D02*
X15009D01*
Y8993D01*
X15893D01*
Y5827D01*
D02*
G37*
G36*
X19291D02*
X16443D01*
Y13307D01*
X19291D01*
Y5827D01*
D02*
G37*
G36*
X18457Y15742D02*
X18284Y15926D01*
X18215Y15976D01*
X18211D01*
X18200Y15984D01*
X18180Y15988D01*
X18161Y15996D01*
X18142Y16007D01*
X18123Y16015D01*
X18111Y16026D01*
X18107Y16034D01*
X18073Y16115D01*
X18050Y16145D01*
X18057Y16172D01*
X19018Y16726D01*
X18457Y15742D01*
D02*
G37*
G36*
X17527Y15849D02*
X17538Y15838D01*
X17554Y15826D01*
X17573Y15803D01*
X17600Y15776D01*
X17627Y15738D01*
X17658Y15692D01*
X17708Y15450D01*
Y15446D01*
Y15434D01*
X17711Y15415D01*
Y15388D01*
X17715Y15361D01*
X17719Y15323D01*
X17727Y15246D01*
X17738Y15158D01*
X17750Y15073D01*
X17765Y14992D01*
X17777Y14954D01*
X17784Y14923D01*
X17831Y14850D01*
X17915Y14785D01*
X17861Y14681D01*
X16700Y15357D01*
X17519Y15853D01*
X17523D01*
X17527Y15849D01*
D02*
G37*
G36*
X19241Y13854D02*
X18077Y14546D01*
X18138Y14669D01*
X18265Y14596D01*
X18273Y14592D01*
X18292Y14581D01*
X18323Y14569D01*
X18361Y14554D01*
X18403Y14542D01*
X18442Y14535D01*
X18480D01*
X18515Y14542D01*
X18642Y14589D01*
X18676D01*
X18707Y14596D01*
X18745Y14608D01*
X18795Y14623D01*
X18826Y14635D01*
X18861Y14646D01*
X18872Y14658D01*
Y14662D01*
Y14669D01*
Y14685D01*
Y14700D01*
X18880Y14735D01*
X18888Y14746D01*
X18899Y14758D01*
X19091Y14796D01*
Y14800D01*
X19088Y14808D01*
X19084Y14823D01*
X19072Y14838D01*
X19057Y14854D01*
X19034Y14869D01*
X19003Y14881D01*
X18965Y14888D01*
X18922D01*
X18895Y14885D01*
X18861Y14881D01*
X18815Y14869D01*
X18765Y14858D01*
X18684Y14808D01*
X18619Y14838D01*
X18557D01*
X18530Y14831D01*
X18499Y14823D01*
X18465Y14808D01*
X18434Y14785D01*
Y14789D01*
X18430Y14792D01*
X18415Y14815D01*
X18392Y14846D01*
X18353Y14873D01*
X18276Y14912D01*
X18307Y14962D01*
X18399Y14912D01*
X18403Y14904D01*
X18419Y14888D01*
X18442Y14873D01*
X18457Y14869D01*
X18476D01*
X18492Y14873D01*
X18511Y14877D01*
X18538Y14885D01*
X18607D01*
X18649Y14881D01*
X18692Y14873D01*
X18807Y14938D01*
X18703Y14988D01*
X18688D01*
X18672Y14985D01*
X18653Y14977D01*
X18626Y14965D01*
X18599Y14950D01*
X18565Y14927D01*
X18534Y14896D01*
Y14900D01*
X18526Y14904D01*
X18519Y14912D01*
X18503Y14923D01*
X18480Y14931D01*
X18457Y14938D01*
X18423Y14942D01*
X18384Y14946D01*
X18330Y14992D01*
X18346Y15038D01*
X18411Y14988D01*
X18457D01*
X18499Y14981D01*
X18542Y14962D01*
X18584Y14996D01*
X18634Y15015D01*
X18592Y15054D01*
X18561Y15050D01*
Y15046D01*
X18553Y15042D01*
X18538Y15023D01*
X18526Y15015D01*
X18519Y15011D01*
X18507D01*
X18496Y15015D01*
X18415Y15035D01*
X18369Y15065D01*
X18384Y15100D01*
X18388D01*
X18392Y15092D01*
X18419Y15077D01*
X18449Y15061D01*
X18469Y15058D01*
X18484Y15054D01*
X18542Y15077D01*
Y15081D01*
Y15088D01*
X18534Y15104D01*
X18526Y15115D01*
X18515Y15131D01*
X18465Y15096D01*
X18399Y15127D01*
X18461Y15242D01*
X18473D01*
X18484Y15234D01*
X18503Y15223D01*
X18526Y15204D01*
X18553Y15177D01*
X18588Y15138D01*
X18607Y15111D01*
X18626Y15085D01*
X18630D01*
X18638Y15077D01*
X18649Y15073D01*
X18669Y15061D01*
X18715Y15038D01*
X18769Y15015D01*
X18834Y14996D01*
X18895Y14981D01*
X18961Y14977D01*
X18988Y14981D01*
X19015Y14988D01*
X19007Y14992D01*
X18991Y14996D01*
X18965Y15004D01*
X18938Y15015D01*
X18907Y15027D01*
X18880Y15038D01*
X18861Y15050D01*
X18853Y15061D01*
X18849Y15065D01*
X18838Y15085D01*
X18834Y15100D01*
X18830Y15115D01*
Y15138D01*
X18834Y15165D01*
Y15169D01*
X18838Y15177D01*
X18849Y15204D01*
X18868Y15234D01*
X18899Y15261D01*
X18799Y15311D01*
X18622Y15496D01*
Y15534D01*
X19241Y16614D01*
Y13854D01*
D02*
G37*
%LPC*%
G36*
X18608Y8465D02*
X16640D01*
Y8307D01*
X18608D01*
Y8465D01*
D02*
G37*
G36*
Y7992D02*
X16640D01*
Y7835D01*
X18608D01*
Y7992D01*
D02*
G37*
G36*
Y7677D02*
X16640D01*
Y7598D01*
X18608D01*
Y7677D01*
D02*
G37*
G36*
Y8228D02*
X16640D01*
Y8071D01*
X18608D01*
Y8228D01*
D02*
G37*
G36*
X19094Y8293D02*
X18710D01*
Y8224D01*
X18977Y8132D01*
X18992Y8128D01*
X19004Y8123D01*
X19015Y8120D01*
X19024Y8117D01*
X19030Y8115D01*
X19035Y8113D01*
X19038Y8113D01*
X19039Y8112D01*
X19031Y8110D01*
X19022Y8107D01*
X19013Y8104D01*
X19003Y8101D01*
X18995Y8098D01*
X18989Y8096D01*
X18986Y8095D01*
X18984Y8094D01*
X18983Y8094D01*
X18982D01*
X18710Y8003D01*
Y7927D01*
X19094D01*
Y7976D01*
X18767D01*
X19094Y8086D01*
Y8132D01*
X18773Y8244D01*
X19094D01*
Y8293D01*
D02*
G37*
G36*
X18608Y8622D02*
X16640D01*
Y8543D01*
X18608D01*
Y8622D01*
D02*
G37*
G36*
Y9488D02*
X16640D01*
Y9331D01*
X18608D01*
Y9488D01*
D02*
G37*
G36*
Y9646D02*
X16640D01*
Y9567D01*
X18608D01*
Y9646D01*
D02*
G37*
G36*
Y9882D02*
X16640D01*
Y9724D01*
X18608D01*
Y9882D01*
D02*
G37*
G36*
Y8780D02*
X16640D01*
Y8701D01*
X18608D01*
Y8780D01*
D02*
G37*
G36*
Y9016D02*
X16640D01*
Y8937D01*
X18608D01*
Y9016D01*
D02*
G37*
G36*
Y9173D02*
X16640D01*
Y9094D01*
X18608D01*
Y9173D01*
D02*
G37*
G36*
Y7520D02*
X16640D01*
Y7441D01*
X18608D01*
Y7520D01*
D02*
G37*
G36*
X18899Y15503D02*
X18872D01*
X18853Y15500D01*
X18834Y15492D01*
X18807Y15484D01*
X18780Y15469D01*
X18749Y15446D01*
X18834Y15357D01*
X18965Y15430D01*
Y15434D01*
X18961Y15438D01*
X18953Y15461D01*
X18934Y15484D01*
X18918Y15496D01*
X18899Y15503D01*
D02*
G37*
G36*
X18608Y6102D02*
X16640D01*
Y6024D01*
X18608D01*
Y6102D01*
D02*
G37*
G36*
Y6339D02*
X16640D01*
Y6260D01*
X18608D01*
Y6339D01*
D02*
G37*
G36*
X19091Y14758D02*
X19065D01*
X19038Y14754D01*
X19007Y14750D01*
X18972Y14742D01*
X18942Y14735D01*
X18915Y14723D01*
X18899Y14708D01*
Y14677D01*
X18965Y14681D01*
X18968Y14696D01*
X19099Y14735D01*
X19091Y14758D01*
D02*
G37*
G36*
X18949Y15227D02*
X18930D01*
X18907Y15223D01*
X18888Y15211D01*
X18865Y15161D01*
Y15158D01*
Y15146D01*
Y15134D01*
Y15115D01*
X18876Y15085D01*
X18884Y15073D01*
X18899Y15065D01*
X19045Y15011D01*
X19072D01*
X19084Y15015D01*
X19095Y15023D01*
X19103Y15038D01*
X19114Y15061D01*
Y15065D01*
Y15077D01*
X19111Y15092D01*
X19099Y15115D01*
X19084Y15142D01*
X19053Y15169D01*
X19034Y15184D01*
X19011Y15196D01*
X18980Y15211D01*
X18949Y15227D01*
D02*
G37*
G36*
X19018Y15384D02*
X18999D01*
X18984Y15380D01*
X18968Y15377D01*
X18945Y15365D01*
X18918Y15354D01*
X18892Y15334D01*
X18899Y15311D01*
X19022Y15238D01*
X19045D01*
X19068Y15250D01*
X19080Y15257D01*
X19091Y15273D01*
Y15277D01*
Y15288D01*
Y15304D01*
X19088Y15323D01*
X19080Y15342D01*
X19065Y15357D01*
X19045Y15373D01*
X19018Y15384D01*
D02*
G37*
G36*
X18608Y6969D02*
X16640D01*
Y6890D01*
X18608D01*
Y6969D01*
D02*
G37*
G36*
Y7126D02*
X16640D01*
Y7047D01*
X18608D01*
Y7126D01*
D02*
G37*
G36*
Y7362D02*
X16640D01*
Y7205D01*
X18608D01*
Y7362D01*
D02*
G37*
G36*
Y6575D02*
X16640D01*
Y6417D01*
X18608D01*
Y6575D01*
D02*
G37*
G36*
X19094Y6823D02*
X19049D01*
Y6634D01*
X18710D01*
Y6583D01*
X19094D01*
Y6823D01*
D02*
G37*
G36*
X18608Y6811D02*
X16640D01*
Y6654D01*
X18608D01*
Y6811D01*
D02*
G37*
G36*
Y10039D02*
X16640D01*
Y9961D01*
X18608D01*
Y10039D01*
D02*
G37*
G36*
Y13110D02*
X16640D01*
Y13031D01*
X18608D01*
Y13110D01*
D02*
G37*
G36*
X15591Y6193D02*
X15205D01*
Y6132D01*
X15218Y6127D01*
X15230Y6120D01*
X15240Y6113D01*
X15249Y6105D01*
X15257Y6097D01*
X15262Y6091D01*
X15264Y6090D01*
X15265Y6088D01*
X15266Y6087D01*
X15266Y6086D01*
X15276Y6074D01*
X15283Y6062D01*
X15289Y6052D01*
X15294Y6042D01*
X15298Y6035D01*
X15300Y6029D01*
X15301Y6027D01*
X15302Y6025D01*
X15302Y6024D01*
Y6024D01*
X15369D01*
X15361Y6044D01*
X15352Y6062D01*
X15344Y6077D01*
X15339Y6085D01*
X15334Y6091D01*
X15330Y6098D01*
X15326Y6103D01*
X15323Y6108D01*
X15320Y6112D01*
X15317Y6115D01*
X15315Y6117D01*
X15314Y6118D01*
X15313Y6119D01*
X15591D01*
Y6193D01*
D02*
G37*
G36*
X15200Y6429D02*
Y6373D01*
X15597Y6279D01*
Y6333D01*
X15200Y6429D01*
D02*
G37*
G36*
X18608Y12480D02*
X16640D01*
Y12402D01*
X18608D01*
Y12480D01*
D02*
G37*
G36*
Y12717D02*
X16640D01*
Y12559D01*
X18608D01*
Y12717D01*
D02*
G37*
G36*
Y12953D02*
X16640D01*
Y12795D01*
X18608D01*
Y12953D01*
D02*
G37*
G36*
X15412Y6700D02*
X15402D01*
X15382Y6700D01*
X15364Y6699D01*
X15347Y6697D01*
X15331Y6695D01*
X15317Y6692D01*
X15304Y6689D01*
X15293Y6685D01*
X15282Y6682D01*
X15273Y6678D01*
X15266Y6675D01*
X15259Y6672D01*
X15254Y6669D01*
X15251Y6667D01*
X15248Y6665D01*
X15246Y6664D01*
X15245Y6663D01*
X15238Y6657D01*
X15232Y6650D01*
X15227Y6643D01*
X15222Y6636D01*
X15218Y6629D01*
X15215Y6621D01*
X15212Y6614D01*
X15210Y6607D01*
X15209Y6601D01*
X15207Y6595D01*
X15206Y6590D01*
X15206Y6585D01*
X15205Y6581D01*
Y6578D01*
Y6576D01*
Y6576D01*
X15206Y6566D01*
X15207Y6556D01*
X15209Y6547D01*
X15211Y6538D01*
X15214Y6531D01*
X15217Y6524D01*
X15221Y6517D01*
X15225Y6512D01*
X15228Y6506D01*
X15232Y6502D01*
X15235Y6497D01*
X15238Y6495D01*
X15241Y6492D01*
X15243Y6490D01*
X15244Y6489D01*
X15245Y6489D01*
X15254Y6482D01*
X15265Y6476D01*
X15277Y6471D01*
X15289Y6467D01*
X15302Y6464D01*
X15315Y6461D01*
X15341Y6456D01*
X15353Y6454D01*
X15364Y6453D01*
X15374Y6452D01*
X15383Y6452D01*
X15390Y6451D01*
X15401D01*
X15421Y6452D01*
X15440Y6453D01*
X15456Y6454D01*
X15472Y6457D01*
X15486Y6459D01*
X15498Y6462D01*
X15509Y6465D01*
X15519Y6468D01*
X15528Y6471D01*
X15536Y6475D01*
X15541Y6478D01*
X15546Y6480D01*
X15550Y6482D01*
X15553Y6484D01*
X15554Y6485D01*
X15555Y6485D01*
X15562Y6492D01*
X15569Y6499D01*
X15575Y6506D01*
X15579Y6514D01*
X15584Y6521D01*
X15587Y6529D01*
X15590Y6537D01*
X15592Y6544D01*
X15594Y6550D01*
X15595Y6557D01*
X15596Y6562D01*
X15597Y6567D01*
Y6571D01*
X15598Y6574D01*
Y6575D01*
Y6576D01*
X15597Y6586D01*
X15596Y6596D01*
X15594Y6605D01*
X15591Y6613D01*
X15588Y6620D01*
X15585Y6628D01*
X15582Y6634D01*
X15578Y6640D01*
X15574Y6645D01*
X15571Y6650D01*
X15568Y6654D01*
X15564Y6657D01*
X15562Y6660D01*
X15560Y6661D01*
X15559Y6662D01*
X15558Y6662D01*
X15549Y6669D01*
X15538Y6675D01*
X15526Y6680D01*
X15514Y6685D01*
X15501Y6688D01*
X15488Y6691D01*
X15462Y6696D01*
X15450Y6698D01*
X15438Y6699D01*
X15429Y6699D01*
X15419Y6700D01*
X15412Y6700D01*
D02*
G37*
G36*
Y7745D02*
X15402D01*
X15382Y7744D01*
X15364Y7743D01*
X15347Y7741D01*
X15331Y7739D01*
X15317Y7736D01*
X15304Y7733D01*
X15293Y7729D01*
X15282Y7726D01*
X15273Y7722D01*
X15266Y7719D01*
X15259Y7716D01*
X15254Y7713D01*
X15251Y7711D01*
X15248Y7709D01*
X15246Y7708D01*
X15245Y7707D01*
X15238Y7701D01*
X15232Y7694D01*
X15227Y7687D01*
X15222Y7680D01*
X15218Y7673D01*
X15215Y7666D01*
X15212Y7659D01*
X15210Y7652D01*
X15209Y7645D01*
X15207Y7639D01*
X15206Y7634D01*
X15206Y7629D01*
X15205Y7625D01*
Y7622D01*
Y7621D01*
Y7620D01*
X15206Y7610D01*
X15207Y7600D01*
X15209Y7591D01*
X15211Y7583D01*
X15214Y7575D01*
X15217Y7568D01*
X15221Y7562D01*
X15225Y7556D01*
X15228Y7550D01*
X15232Y7546D01*
X15235Y7542D01*
X15238Y7539D01*
X15241Y7536D01*
X15243Y7534D01*
X15244Y7534D01*
X15245Y7533D01*
X15254Y7526D01*
X15265Y7521D01*
X15277Y7515D01*
X15289Y7511D01*
X15302Y7508D01*
X15315Y7505D01*
X15341Y7500D01*
X15353Y7498D01*
X15364Y7497D01*
X15374Y7497D01*
X15383Y7496D01*
X15390Y7495D01*
X15401D01*
X15421Y7496D01*
X15440Y7497D01*
X15456Y7498D01*
X15472Y7501D01*
X15486Y7503D01*
X15498Y7506D01*
X15509Y7510D01*
X15519Y7512D01*
X15528Y7515D01*
X15536Y7519D01*
X15541Y7522D01*
X15546Y7524D01*
X15550Y7526D01*
X15553Y7528D01*
X15554Y7529D01*
X15555Y7529D01*
X15562Y7536D01*
X15569Y7543D01*
X15575Y7550D01*
X15579Y7558D01*
X15584Y7566D01*
X15587Y7573D01*
X15590Y7581D01*
X15592Y7588D01*
X15594Y7594D01*
X15595Y7601D01*
X15596Y7606D01*
X15597Y7611D01*
Y7615D01*
X15598Y7618D01*
Y7620D01*
Y7620D01*
X15597Y7630D01*
X15596Y7640D01*
X15594Y7649D01*
X15591Y7657D01*
X15588Y7665D01*
X15585Y7672D01*
X15582Y7679D01*
X15578Y7684D01*
X15574Y7690D01*
X15571Y7694D01*
X15568Y7698D01*
X15564Y7701D01*
X15562Y7704D01*
X15560Y7705D01*
X15559Y7706D01*
X15558Y7707D01*
X15549Y7713D01*
X15538Y7719D01*
X15526Y7724D01*
X15514Y7729D01*
X15501Y7732D01*
X15488Y7735D01*
X15462Y7740D01*
X15450Y7742D01*
X15438Y7743D01*
X15429Y7744D01*
X15419Y7744D01*
X15412Y7745D01*
D02*
G37*
G36*
X15591Y7983D02*
X15205D01*
Y7923D01*
X15218Y7917D01*
X15230Y7910D01*
X15240Y7903D01*
X15249Y7895D01*
X15257Y7887D01*
X15262Y7882D01*
X15264Y7880D01*
X15265Y7878D01*
X15266Y7877D01*
X15266Y7876D01*
X15276Y7864D01*
X15283Y7852D01*
X15289Y7842D01*
X15294Y7832D01*
X15298Y7825D01*
X15300Y7819D01*
X15301Y7817D01*
X15302Y7815D01*
X15302Y7814D01*
Y7814D01*
X15369D01*
X15361Y7834D01*
X15352Y7852D01*
X15344Y7868D01*
X15339Y7875D01*
X15334Y7882D01*
X15330Y7888D01*
X15326Y7893D01*
X15323Y7898D01*
X15320Y7902D01*
X15317Y7905D01*
X15315Y7907D01*
X15314Y7908D01*
X15313Y7909D01*
X15591D01*
Y7983D01*
D02*
G37*
G36*
X15513Y8355D02*
X15449D01*
Y8308D01*
X15205D01*
Y8246D01*
X15450Y8079D01*
X15513D01*
Y8237D01*
X15591D01*
Y8308D01*
X15513D01*
Y8355D01*
D02*
G37*
G36*
X15265Y7001D02*
X15212D01*
Y6750D01*
X15280D01*
Y6916D01*
X15306Y6898D01*
X15331Y6882D01*
X15357Y6868D01*
X15368Y6861D01*
X15379Y6856D01*
X15390Y6851D01*
X15399Y6846D01*
X15408Y6843D01*
X15415Y6840D01*
X15421Y6837D01*
X15426Y6835D01*
X15428Y6834D01*
X15429Y6834D01*
X15444Y6829D01*
X15460Y6823D01*
X15475Y6819D01*
X15489Y6816D01*
X15503Y6813D01*
X15516Y6810D01*
X15529Y6808D01*
X15541Y6806D01*
X15551Y6805D01*
X15561Y6803D01*
X15569Y6802D01*
X15577Y6802D01*
X15583D01*
X15587Y6801D01*
X15591D01*
Y6872D01*
X15571Y6872D01*
X15551Y6874D01*
X15532Y6877D01*
X15523Y6878D01*
X15515Y6880D01*
X15506Y6881D01*
X15499Y6883D01*
X15492Y6884D01*
X15486Y6886D01*
X15482Y6886D01*
X15479Y6888D01*
X15476Y6888D01*
X15476D01*
X15452Y6895D01*
X15429Y6903D01*
X15419Y6907D01*
X15409Y6911D01*
X15399Y6915D01*
X15390Y6919D01*
X15382Y6923D01*
X15375Y6926D01*
X15369Y6929D01*
X15364Y6932D01*
X15359Y6934D01*
X15356Y6936D01*
X15354Y6937D01*
X15354Y6937D01*
X15343Y6943D01*
X15333Y6950D01*
X15324Y6956D01*
X15316Y6961D01*
X15308Y6967D01*
X15300Y6972D01*
X15294Y6977D01*
X15288Y6981D01*
X15283Y6985D01*
X15278Y6989D01*
X15274Y6993D01*
X15271Y6996D01*
X15269Y6998D01*
X15266Y7000D01*
X15266Y7001D01*
X15265Y7001D01*
D02*
G37*
G36*
X15200Y7175D02*
Y7119D01*
X15597Y7025D01*
Y7079D01*
X15200Y7175D01*
D02*
G37*
G36*
X15591Y7446D02*
X15522D01*
Y7299D01*
X15515Y7304D01*
X15509Y7309D01*
X15506Y7311D01*
X15504Y7312D01*
X15503Y7314D01*
X15502Y7314D01*
X15500Y7316D01*
X15498Y7319D01*
X15491Y7325D01*
X15484Y7332D01*
X15477Y7340D01*
X15470Y7347D01*
X15465Y7353D01*
X15462Y7354D01*
X15461Y7356D01*
X15460Y7357D01*
X15460Y7358D01*
X15448Y7370D01*
X15438Y7380D01*
X15430Y7389D01*
X15423Y7395D01*
X15417Y7401D01*
X15413Y7404D01*
X15411Y7406D01*
X15410Y7407D01*
X15401Y7414D01*
X15392Y7420D01*
X15384Y7425D01*
X15376Y7429D01*
X15371Y7432D01*
X15366Y7435D01*
X15363Y7436D01*
X15362Y7436D01*
X15353Y7439D01*
X15344Y7442D01*
X15335Y7443D01*
X15328Y7445D01*
X15321Y7445D01*
X15316Y7446D01*
X15312D01*
X15304Y7445D01*
X15296Y7445D01*
X15281Y7440D01*
X15268Y7435D01*
X15257Y7429D01*
X15248Y7424D01*
X15244Y7421D01*
X15241Y7418D01*
X15239Y7416D01*
X15237Y7414D01*
X15237Y7414D01*
X15236Y7413D01*
X15231Y7407D01*
X15226Y7400D01*
X15221Y7393D01*
X15218Y7386D01*
X15213Y7370D01*
X15209Y7356D01*
X15207Y7349D01*
X15207Y7343D01*
X15206Y7338D01*
X15206Y7333D01*
X15205Y7329D01*
Y7326D01*
Y7324D01*
Y7323D01*
Y7314D01*
X15206Y7305D01*
X15209Y7288D01*
X15214Y7274D01*
X15216Y7267D01*
X15218Y7261D01*
X15221Y7256D01*
X15223Y7251D01*
X15226Y7247D01*
X15228Y7244D01*
X15230Y7241D01*
X15231Y7239D01*
X15231Y7238D01*
X15232Y7237D01*
X15237Y7232D01*
X15243Y7226D01*
X15250Y7221D01*
X15257Y7216D01*
X15271Y7209D01*
X15285Y7204D01*
X15292Y7202D01*
X15299Y7201D01*
X15304Y7199D01*
X15309Y7198D01*
X15313Y7197D01*
X15316D01*
X15319Y7197D01*
X15319D01*
X15326Y7270D01*
X15315Y7271D01*
X15305Y7273D01*
X15297Y7276D01*
X15291Y7278D01*
X15286Y7281D01*
X15283Y7283D01*
X15280Y7284D01*
X15280Y7285D01*
X15275Y7291D01*
X15272Y7297D01*
X15269Y7303D01*
X15268Y7309D01*
X15266Y7314D01*
X15266Y7318D01*
Y7321D01*
Y7322D01*
X15266Y7330D01*
X15268Y7338D01*
X15270Y7344D01*
X15272Y7349D01*
X15275Y7353D01*
X15277Y7356D01*
X15279Y7358D01*
X15279Y7359D01*
X15285Y7363D01*
X15291Y7366D01*
X15297Y7369D01*
X15303Y7370D01*
X15309Y7371D01*
X15313Y7372D01*
X15317D01*
X15326Y7371D01*
X15334Y7370D01*
X15341Y7367D01*
X15348Y7364D01*
X15354Y7362D01*
X15358Y7359D01*
X15361Y7357D01*
X15362Y7357D01*
X15366Y7354D01*
X15370Y7351D01*
X15374Y7347D01*
X15379Y7342D01*
X15389Y7332D01*
X15400Y7322D01*
X15409Y7312D01*
X15414Y7307D01*
X15417Y7304D01*
X15420Y7300D01*
X15423Y7298D01*
X15424Y7296D01*
X15425Y7295D01*
X15436Y7284D01*
X15445Y7274D01*
X15455Y7265D01*
X15464Y7256D01*
X15472Y7249D01*
X15479Y7242D01*
X15486Y7236D01*
X15493Y7230D01*
X15498Y7226D01*
X15503Y7222D01*
X15507Y7219D01*
X15511Y7216D01*
X15514Y7215D01*
X15516Y7214D01*
X15517Y7212D01*
X15517D01*
X15530Y7205D01*
X15543Y7200D01*
X15555Y7195D01*
X15567Y7192D01*
X15577Y7190D01*
X15581Y7190D01*
X15584Y7189D01*
X15586Y7188D01*
X15589Y7188D01*
X15591D01*
Y7446D01*
D02*
G37*
G36*
X18608Y10827D02*
X16640D01*
Y10748D01*
X18608D01*
Y10827D01*
D02*
G37*
G36*
X18710Y11119D02*
Y11068D01*
X18989Y10964D01*
X19001Y10960D01*
X19013Y10955D01*
X19023Y10952D01*
X19032Y10949D01*
X19041Y10947D01*
X19047Y10945D01*
X19049Y10944D01*
X19051Y10944D01*
X19052Y10943D01*
X19052D01*
X19030Y10937D01*
X19020Y10933D01*
X19010Y10930D01*
X19001Y10927D01*
X18995Y10925D01*
X18993Y10924D01*
X18991Y10923D01*
X18990Y10923D01*
X18989D01*
X18710Y10823D01*
Y10768D01*
X19094Y10917D01*
Y10969D01*
X18710Y11119D01*
D02*
G37*
G36*
X18608Y11063D02*
X16640D01*
Y10905D01*
X18608D01*
Y11063D01*
D02*
G37*
G36*
Y10512D02*
X16640D01*
Y10354D01*
X18608D01*
Y10512D01*
D02*
G37*
G36*
Y10197D02*
X16640D01*
Y10118D01*
X18608D01*
Y10197D01*
D02*
G37*
G36*
Y10669D02*
X16640D01*
Y10591D01*
X18608D01*
Y10669D01*
D02*
G37*
G36*
Y11299D02*
X16640D01*
Y11142D01*
X18608D01*
Y11299D01*
D02*
G37*
G36*
Y12087D02*
X16640D01*
Y11929D01*
X18608D01*
Y12087D01*
D02*
G37*
G36*
Y12244D02*
X16640D01*
Y12165D01*
X18608D01*
Y12244D01*
D02*
G37*
G36*
X19094Y12413D02*
X18708D01*
Y12382D01*
X18718Y12377D01*
X18727Y12370D01*
X18736Y12363D01*
X18744Y12356D01*
X18751Y12350D01*
X18756Y12345D01*
X18759Y12341D01*
X18760Y12341D01*
X18760Y12340D01*
X18770Y12329D01*
X18779Y12317D01*
X18786Y12305D01*
X18793Y12295D01*
X18798Y12286D01*
X18800Y12281D01*
X18801Y12278D01*
X18803Y12276D01*
X18804Y12273D01*
X18805Y12272D01*
Y12272D01*
X18851D01*
X18848Y12280D01*
X18844Y12288D01*
X18840Y12297D01*
X18836Y12304D01*
X18832Y12311D01*
X18829Y12316D01*
X18827Y12319D01*
X18827Y12320D01*
Y12321D01*
X18821Y12331D01*
X18814Y12339D01*
X18809Y12347D01*
X18804Y12353D01*
X18800Y12359D01*
X18797Y12363D01*
X18794Y12365D01*
X18794Y12366D01*
X19094D01*
Y12413D01*
D02*
G37*
G36*
X18608Y11850D02*
X16640D01*
Y11772D01*
X18608D01*
Y11850D01*
D02*
G37*
G36*
Y11457D02*
X16640D01*
Y11378D01*
X18608D01*
Y11457D01*
D02*
G37*
G36*
Y11693D02*
X16640D01*
Y11614D01*
X18608D01*
Y11693D01*
D02*
G37*
%LPD*%
G36*
X15449Y8148D02*
X15317Y8237D01*
X15449D01*
Y8148D01*
D02*
G37*
G36*
X15425Y6622D02*
X15436D01*
X15445Y6621D01*
X15454Y6621D01*
X15462Y6620D01*
X15469Y6620D01*
X15475Y6619D01*
X15481Y6618D01*
X15485Y6617D01*
X15489Y6617D01*
X15492Y6616D01*
X15495Y6616D01*
X15497D01*
X15498Y6615D01*
X15498D01*
X15506Y6613D01*
X15512Y6610D01*
X15517Y6607D01*
X15522Y6605D01*
X15524Y6602D01*
X15527Y6600D01*
X15528Y6599D01*
X15529Y6599D01*
X15531Y6595D01*
X15533Y6591D01*
X15536Y6583D01*
X15536Y6581D01*
X15537Y6578D01*
Y6576D01*
Y6576D01*
X15536Y6571D01*
X15536Y6567D01*
X15534Y6562D01*
X15533Y6559D01*
X15531Y6556D01*
X15530Y6554D01*
X15529Y6552D01*
X15529Y6552D01*
X15524Y6548D01*
X15520Y6545D01*
X15515Y6543D01*
X15509Y6540D01*
X15503Y6538D01*
X15499Y6537D01*
X15496Y6536D01*
X15495Y6535D01*
X15490Y6534D01*
X15483Y6533D01*
X15477Y6533D01*
X15469Y6532D01*
X15454Y6531D01*
X15438Y6530D01*
X15424D01*
X15418Y6529D01*
X15389D01*
X15378Y6530D01*
X15368D01*
X15358Y6530D01*
X15349Y6531D01*
X15341Y6531D01*
X15334Y6532D01*
X15328Y6533D01*
X15323Y6533D01*
X15318Y6534D01*
X15314Y6534D01*
X15310Y6535D01*
X15308Y6535D01*
X15306Y6536D01*
X15305D01*
X15297Y6538D01*
X15291Y6541D01*
X15286Y6544D01*
X15282Y6546D01*
X15279Y6548D01*
X15276Y6550D01*
X15275Y6551D01*
X15275Y6552D01*
X15272Y6556D01*
X15269Y6560D01*
X15268Y6564D01*
X15267Y6568D01*
X15266Y6571D01*
X15266Y6574D01*
Y6575D01*
Y6576D01*
X15266Y6581D01*
X15267Y6585D01*
X15269Y6589D01*
X15270Y6592D01*
X15272Y6595D01*
X15273Y6597D01*
X15274Y6598D01*
X15275Y6599D01*
X15279Y6602D01*
X15283Y6606D01*
X15295Y6611D01*
X15300Y6613D01*
X15304Y6614D01*
X15307Y6616D01*
X15309D01*
X15314Y6617D01*
X15320Y6618D01*
X15327Y6619D01*
X15334Y6620D01*
X15349Y6621D01*
X15365Y6622D01*
X15379D01*
X15385Y6623D01*
X15414D01*
X15425Y6622D01*
D02*
G37*
G36*
Y7666D02*
X15436D01*
X15445Y7666D01*
X15454Y7665D01*
X15462Y7665D01*
X15469Y7664D01*
X15475Y7663D01*
X15481Y7662D01*
X15485Y7662D01*
X15489Y7661D01*
X15492Y7660D01*
X15495Y7660D01*
X15497D01*
X15498Y7659D01*
X15498D01*
X15506Y7657D01*
X15512Y7654D01*
X15517Y7652D01*
X15522Y7649D01*
X15524Y7646D01*
X15527Y7645D01*
X15528Y7643D01*
X15529Y7643D01*
X15531Y7639D01*
X15533Y7635D01*
X15536Y7628D01*
X15536Y7625D01*
X15537Y7622D01*
Y7621D01*
Y7620D01*
X15536Y7615D01*
X15536Y7611D01*
X15534Y7607D01*
X15533Y7603D01*
X15531Y7600D01*
X15530Y7598D01*
X15529Y7597D01*
X15529Y7596D01*
X15524Y7593D01*
X15520Y7589D01*
X15515Y7587D01*
X15509Y7584D01*
X15503Y7582D01*
X15499Y7581D01*
X15496Y7580D01*
X15495Y7580D01*
X15490Y7579D01*
X15483Y7577D01*
X15477Y7577D01*
X15469Y7576D01*
X15454Y7575D01*
X15438Y7574D01*
X15424D01*
X15418Y7573D01*
X15389D01*
X15378Y7574D01*
X15368D01*
X15358Y7574D01*
X15349Y7575D01*
X15341Y7576D01*
X15334Y7576D01*
X15328Y7577D01*
X15323Y7577D01*
X15318Y7578D01*
X15314Y7579D01*
X15310Y7579D01*
X15308Y7580D01*
X15306Y7580D01*
X15305D01*
X15297Y7583D01*
X15291Y7585D01*
X15286Y7588D01*
X15282Y7590D01*
X15279Y7593D01*
X15276Y7594D01*
X15275Y7596D01*
X15275Y7596D01*
X15272Y7600D01*
X15269Y7604D01*
X15268Y7608D01*
X15267Y7612D01*
X15266Y7615D01*
X15266Y7618D01*
Y7620D01*
Y7620D01*
X15266Y7625D01*
X15267Y7629D01*
X15269Y7633D01*
X15270Y7636D01*
X15272Y7639D01*
X15273Y7641D01*
X15274Y7642D01*
X15275Y7643D01*
X15279Y7646D01*
X15283Y7650D01*
X15295Y7655D01*
X15300Y7658D01*
X15304Y7659D01*
X15307Y7660D01*
X15309D01*
X15314Y7661D01*
X15320Y7662D01*
X15327Y7663D01*
X15334Y7664D01*
X15349Y7665D01*
X15365Y7666D01*
X15379D01*
X15385Y7667D01*
X15414D01*
X15425Y7666D01*
D02*
G37*
D15*
X15579Y11654D02*
X15179Y11254D01*
Y11654D02*
X15579Y11254D01*
X15379Y11654D02*
Y11254D01*
X15179Y11454D02*
X15579D01*
X15079Y10254D02*
X15279Y10454D01*
X15479D01*
X15679Y10254D01*
Y9954D02*
Y9754D01*
Y9854D01*
X15079D01*
Y9954D01*
Y9754D01*
Y9454D02*
X15279Y9254D01*
X15479D01*
X15679Y9454D01*
X12020Y15675D02*
X11920Y15575D01*
Y15376D01*
X12020Y15276D01*
X12420D01*
X12520Y15376D01*
Y15575D01*
X12420Y15675D01*
X12520Y15875D02*
Y16075D01*
Y15975D01*
X11920D01*
X12020Y15875D01*
X12689Y9691D02*
X12589Y9591D01*
Y9391D01*
X12689Y9291D01*
X13089D01*
X13189Y9391D01*
Y9591D01*
X13089Y9691D01*
X13189Y10291D02*
Y9891D01*
X12789Y10291D01*
X12689D01*
X12589Y10191D01*
Y9991D01*
X12689Y9891D01*
X6411Y8910D02*
X6511Y8810D01*
X6711D01*
X6811Y8910D01*
Y9309D01*
X6711Y9409D01*
X6511D01*
X6411Y9309D01*
X6211Y8910D02*
X6111Y8810D01*
X5911D01*
X5811Y8910D01*
Y9010D01*
X5911Y9110D01*
X6011D01*
X5911D01*
X5811Y9210D01*
Y9309D01*
X5911Y9409D01*
X6111D01*
X6211Y9309D01*
X8394Y14528D02*
X7794D01*
Y14228D01*
X7894Y14128D01*
X8294D01*
X8394Y14228D01*
Y14528D01*
X7794Y13929D02*
Y13729D01*
Y13829D01*
X8394D01*
X8294Y13929D01*
X12228Y5039D02*
Y5639D01*
X12528D01*
X12628Y5539D01*
Y5339D01*
X12528Y5239D01*
X12228D01*
X12928Y5039D02*
X13128D01*
X13228Y5139D01*
Y5339D01*
X13128Y5439D01*
X12928D01*
X12828Y5339D01*
Y5139D01*
X12928Y5039D01*
X13428Y5439D02*
Y5039D01*
Y5239D01*
X13528Y5339D01*
X13628Y5439D01*
X13728D01*
X14128Y5539D02*
Y5439D01*
X14028D01*
X14228D01*
X14128D01*
Y5139D01*
X14228Y5039D01*
X15727D02*
Y5439D01*
X15927Y5639D01*
X16127Y5439D01*
Y5039D01*
Y5339D01*
X15727D01*
X3622Y4961D02*
Y5560D01*
X3922D01*
X4022Y5460D01*
Y5261D01*
X3922Y5161D01*
X3622D01*
X4322Y4961D02*
X4522D01*
X4622Y5061D01*
Y5261D01*
X4522Y5361D01*
X4322D01*
X4222Y5261D01*
Y5061D01*
X4322Y4961D01*
X4822Y5361D02*
Y4961D01*
Y5161D01*
X4922Y5261D01*
X5022Y5361D01*
X5122D01*
X5521Y5460D02*
Y5361D01*
X5421D01*
X5621D01*
X5521D01*
Y5061D01*
X5621Y4961D01*
X6521Y5560D02*
Y4961D01*
X6821D01*
X6921Y5061D01*
Y5161D01*
X6821Y5261D01*
X6521D01*
X6821D01*
X6921Y5361D01*
Y5460D01*
X6821Y5560D01*
X6521D01*
X9353Y16580D02*
X8753D01*
Y16879D01*
X8853Y16979D01*
X9053D01*
X9153Y16879D01*
Y16580D01*
X9353Y17279D02*
Y17479D01*
X9253Y17579D01*
X9053D01*
X8953Y17479D01*
Y17279D01*
X9053Y17179D01*
X9253D01*
X9353Y17279D01*
X8953Y17779D02*
X9253D01*
X9353Y17879D01*
X9253Y17979D01*
X9353Y18079D01*
X9253Y18179D01*
X8953D01*
X9353Y18679D02*
Y18479D01*
X9253Y18379D01*
X9053D01*
X8953Y18479D01*
Y18679D01*
X9053Y18779D01*
X9153D01*
Y18379D01*
X8953Y18979D02*
X9353D01*
X9153D01*
X9053Y19079D01*
X8953Y19179D01*
Y19279D01*
X3008Y17206D02*
Y17806D01*
X3308D01*
X3408Y17706D01*
Y17506D01*
X3308Y17406D01*
X3008D01*
X3608Y17606D02*
Y17206D01*
Y17406D01*
X3708Y17506D01*
X3808Y17606D01*
X3908D01*
X4307Y17206D02*
X4507D01*
X4607Y17306D01*
Y17506D01*
X4507Y17606D01*
X4307D01*
X4207Y17506D01*
Y17306D01*
X4307Y17206D01*
X5007Y17006D02*
X5107D01*
X5207Y17106D01*
Y17606D01*
X4907D01*
X4807Y17506D01*
Y17306D01*
X4907Y17206D01*
X5207D01*
X14882Y14882D02*
Y14282D01*
X14582D01*
X14482Y14382D01*
Y14582D01*
X14582Y14682D01*
X14882D01*
X14682D02*
X14482Y14882D01*
X14282D02*
X14082D01*
X14182D01*
Y14282D01*
X14282Y14382D01*
X7844Y16199D02*
X8444D01*
Y15899D01*
X8344Y15799D01*
X8144D01*
X8044Y15899D01*
Y16199D01*
Y15999D02*
X7844Y15799D01*
Y15199D02*
Y15599D01*
X8244Y15199D01*
X8344D01*
X8444Y15299D01*
Y15499D01*
X8344Y15599D01*
X15672Y16625D02*
X15073D01*
Y16925D01*
X15173Y17025D01*
X15373D01*
X15473Y16925D01*
Y16625D01*
Y16825D02*
X15672Y17025D01*
Y17525D02*
Y17325D01*
X15572Y17225D01*
X15373D01*
X15273Y17325D01*
Y17525D01*
X15373Y17625D01*
X15473D01*
Y17225D01*
X15672Y17825D02*
Y18125D01*
X15572Y18225D01*
X15473Y18125D01*
Y17925D01*
X15373Y17825D01*
X15273Y17925D01*
Y18225D01*
X15672Y18725D02*
Y18525D01*
X15572Y18425D01*
X15373D01*
X15273Y18525D01*
Y18725D01*
X15373Y18824D01*
X15473D01*
Y18425D01*
X15173Y19124D02*
X15273D01*
Y19024D01*
Y19224D01*
Y19124D01*
X15572D01*
X15672Y19224D01*
X7722Y13317D02*
Y12817D01*
X7822Y12717D01*
X8022D01*
X8122Y12817D01*
Y13317D01*
X8322Y12717D02*
X8522D01*
X8422D01*
Y13317D01*
X8322Y13217D01*
X9416Y9576D02*
X9216D01*
X9316D01*
Y9076D01*
X9216Y8976D01*
X9116D01*
X9016Y9076D01*
X10015Y8976D02*
X9616D01*
X10015Y9376D01*
Y9476D01*
X9915Y9576D01*
X9716D01*
X9616Y9476D01*
X10215Y8976D02*
Y9376D01*
X10415Y9576D01*
X10615Y9376D01*
Y8976D01*
Y9276D01*
X10215D01*
D21*
X8186Y12317D02*
G03*
X8186Y12317I-49J0D01*
G01*
D22*
X9200Y11898D02*
G03*
X9200Y11898I-118J0D01*
G01*
D23*
X3043Y4650D02*
X8043D01*
Y2650D02*
Y4650D01*
X3043Y2650D02*
X8043D01*
X3043D02*
Y4650D01*
X11705D02*
X16705D01*
Y2650D02*
Y4650D01*
X11705Y2650D02*
X16705D01*
X11705D02*
Y4650D01*
X8688Y7173D02*
Y12291D01*
X11287Y7173D02*
Y12291D01*
X8688D02*
X11287D01*
X8688Y7173D02*
X11287D01*
X12673Y17929D02*
X14673D01*
X12673Y17429D02*
Y17929D01*
X14673Y17429D02*
Y17929D01*
X12673Y17429D02*
X14673D01*
X14340Y17929D02*
Y19262D01*
X14173Y19429D02*
X14340Y19262D01*
X14007D02*
X14173Y19429D01*
X14007Y17929D02*
Y19262D01*
X13340Y17929D02*
Y19262D01*
X13173Y19429D02*
X13340Y19262D01*
X13007D02*
X13173Y19429D01*
X13007Y17929D02*
Y19262D01*
X9917Y17929D02*
X11917D01*
X9917Y17429D02*
Y17929D01*
X11917Y17429D02*
Y17929D01*
X9917Y17429D02*
X11917D01*
X11584Y17929D02*
Y19262D01*
X11417Y19429D02*
X11584Y19262D01*
X11251D02*
X11417Y19429D01*
X11251Y17929D02*
Y19262D01*
X10584Y17929D02*
Y19262D01*
X10417Y19429D02*
X10584Y19262D01*
X10251D02*
X10417Y19429D01*
X10251Y17929D02*
Y19262D01*
X2700Y16500D02*
X4617D01*
X2700D02*
X5700D01*
X2700Y14500D02*
X5700D01*
Y16500D01*
X2700Y14500D02*
Y16500D01*
D24*
X7120Y13554D02*
X7514D01*
D25*
X5043Y9895D02*
Y10095D01*
X5023Y9815D02*
Y10175D01*
X5003Y10095D02*
Y10215D01*
Y9795D02*
Y9895D01*
X4983Y10155D02*
Y10235D01*
Y9755D02*
Y9835D01*
X4963Y10195D02*
Y10275D01*
Y9735D02*
Y9815D01*
X4943Y10215D02*
Y10295D01*
Y9695D02*
Y9775D01*
X4923Y10255D02*
Y10315D01*
Y9675D02*
Y9755D01*
X4903Y10275D02*
Y10315D01*
Y9675D02*
Y9715D01*
X4883Y10295D02*
Y10335D01*
Y9895D02*
Y10055D01*
Y9655D02*
Y9695D01*
X4863Y10295D02*
Y10355D01*
Y9875D02*
Y10095D01*
Y9635D02*
Y9695D01*
X4843Y10315D02*
Y10355D01*
Y10055D02*
Y10115D01*
Y9855D02*
Y9935D01*
Y9635D02*
Y9675D01*
X4823Y10335D02*
Y10375D01*
Y10055D02*
Y10115D01*
Y9855D02*
Y9915D01*
Y9615D02*
Y9655D01*
X4803Y10335D02*
Y10395D01*
Y10075D02*
Y10135D01*
Y9835D02*
Y9915D01*
Y9615D02*
Y9655D01*
X4783Y10355D02*
Y10395D01*
Y10075D02*
Y10135D01*
Y9835D02*
Y9915D01*
Y9595D02*
Y9635D01*
X4763Y10355D02*
Y10395D01*
Y10055D02*
Y10135D01*
Y9835D02*
Y9895D01*
Y9595D02*
Y9635D01*
X4743Y10355D02*
Y10395D01*
Y10055D02*
Y10135D01*
Y9835D02*
Y9895D01*
Y9595D02*
Y9635D01*
X4723Y10375D02*
Y10415D01*
Y10055D02*
Y10135D01*
Y9835D02*
Y9915D01*
Y9595D02*
Y9635D01*
X4703Y10375D02*
Y10415D01*
Y9835D02*
Y9915D01*
Y9575D02*
Y9615D01*
X4683Y10375D02*
Y10415D01*
Y9855D02*
Y9915D01*
Y9575D02*
Y9615D01*
X4663Y10375D02*
Y10415D01*
Y9855D02*
Y9935D01*
Y9575D02*
Y9615D01*
X4643Y10375D02*
Y10415D01*
Y9875D02*
Y9955D01*
Y9575D02*
Y9615D01*
X4623Y10375D02*
Y10415D01*
Y9895D02*
Y9955D01*
Y9575D02*
Y9615D01*
X4603Y10375D02*
Y10415D01*
Y9915D02*
Y9975D01*
Y9575D02*
Y9615D01*
X4583Y10375D02*
Y10415D01*
Y9935D02*
Y9995D01*
Y9575D02*
Y9615D01*
X4563Y10375D02*
Y10415D01*
Y9955D02*
Y10015D01*
Y9575D02*
Y9615D01*
X4543Y10375D02*
Y10415D01*
Y9975D02*
Y10035D01*
Y9595D02*
Y9635D01*
X4523Y10355D02*
Y10395D01*
Y9995D02*
Y10055D01*
Y9595D02*
Y9635D01*
X4503Y10355D02*
Y10395D01*
Y10015D02*
Y10075D01*
Y9595D02*
Y9635D01*
X4483Y10355D02*
Y10395D01*
Y10035D02*
Y10095D01*
Y9835D02*
Y9855D01*
Y9595D02*
Y9635D01*
X4463Y10335D02*
Y10395D01*
Y10055D02*
Y10095D01*
Y9835D02*
Y9875D01*
Y9615D02*
Y9655D01*
X4443Y10335D02*
Y10375D01*
Y10075D02*
Y10115D01*
Y9835D02*
Y9875D01*
Y9615D02*
Y9655D01*
X4423Y10315D02*
Y10355D01*
Y10075D02*
Y10135D01*
Y9835D02*
Y9895D01*
Y9635D02*
Y9675D01*
X4403Y10295D02*
Y10355D01*
Y9835D02*
Y10135D01*
Y9635D02*
Y9695D01*
X4383Y10295D02*
Y10335D01*
Y9835D02*
Y10155D01*
Y9655D02*
Y9695D01*
X4363Y10275D02*
Y10315D01*
Y9835D02*
Y10155D01*
Y9675D02*
Y9715D01*
X4343Y10235D02*
Y10315D01*
Y9675D02*
Y9755D01*
X4323Y10215D02*
Y10295D01*
Y9695D02*
Y9775D01*
X4303Y10175D02*
Y10255D01*
Y9735D02*
Y9815D01*
X4283Y10155D02*
Y10235D01*
Y9755D02*
Y9835D01*
X4263Y10075D02*
Y10195D01*
Y9795D02*
Y9895D01*
X4243Y9815D02*
Y10175D01*
X4223Y9915D02*
Y10095D01*
X4083Y9975D02*
Y9995D01*
X4063Y9975D02*
Y9995D01*
X4043Y9955D02*
Y10015D01*
X4023Y9995D02*
Y10035D01*
Y9955D02*
Y9975D01*
X4003Y10015D02*
Y10035D01*
Y9935D02*
Y9975D01*
X3983Y10015D02*
Y10055D01*
Y9915D02*
Y9955D01*
X3963Y10035D02*
Y10075D01*
Y9915D02*
Y9935D01*
X3943Y10055D02*
Y10075D01*
Y9895D02*
Y9935D01*
X3923Y10055D02*
Y10095D01*
Y9875D02*
Y9915D01*
X3903Y10075D02*
Y10115D01*
Y9875D02*
Y9895D01*
X3883Y10095D02*
Y10115D01*
Y9855D02*
Y9895D01*
X3863Y10095D02*
Y10135D01*
Y9855D02*
Y9875D01*
X3843Y10115D02*
Y10135D01*
Y9835D02*
Y9875D01*
X3823Y10115D02*
Y10155D01*
Y9815D02*
Y9855D01*
X3803Y10135D02*
Y10175D01*
Y9815D02*
Y9835D01*
X3783Y10155D02*
Y10175D01*
Y9795D02*
Y9835D01*
X3763Y10135D02*
Y10195D01*
Y9795D02*
Y9815D01*
X3743Y10175D02*
Y10215D01*
Y10115D02*
Y10155D01*
Y9775D02*
Y9815D01*
X3723Y10195D02*
Y10215D01*
Y10115D02*
Y10135D01*
Y9755D02*
Y9795D01*
X3703Y10195D02*
Y10235D01*
Y10095D02*
Y10135D01*
Y9755D02*
Y9775D01*
X3683Y10215D02*
Y10235D01*
Y10075D02*
Y10115D01*
Y9735D02*
Y9775D01*
X3663Y10215D02*
Y10255D01*
Y10055D02*
Y10095D01*
Y9715D02*
Y9755D01*
X3643Y10235D02*
Y10275D01*
Y10055D02*
Y10075D01*
Y9715D02*
Y9735D01*
X3623Y10255D02*
Y10275D01*
Y10035D02*
Y10075D01*
Y9695D02*
Y9735D01*
X3603Y10255D02*
Y10295D01*
Y10015D02*
Y10055D01*
Y9695D02*
Y9715D01*
X3583Y10275D02*
Y10315D01*
Y9995D02*
Y10035D01*
Y9675D02*
Y9715D01*
X3563Y10295D02*
Y10315D01*
Y9995D02*
Y10015D01*
Y9655D02*
Y9695D01*
X3543Y10295D02*
Y10335D01*
Y9975D02*
Y10015D01*
Y9655D02*
Y9675D01*
X3523Y10315D02*
Y10335D01*
Y9955D02*
Y9995D01*
Y9635D02*
Y9675D01*
X3503Y10315D02*
Y10355D01*
Y9935D02*
Y9975D01*
Y9615D02*
Y9655D01*
X3483Y10335D02*
Y10375D01*
Y9935D02*
Y9955D01*
Y9615D02*
Y9635D01*
X3463Y10355D02*
Y10375D01*
Y9915D02*
Y9955D01*
Y9595D02*
Y9635D01*
X3443Y10355D02*
Y10395D01*
Y9895D02*
Y9935D01*
Y9595D02*
Y9615D01*
X3423Y10375D02*
Y10415D01*
Y9895D02*
Y9915D01*
Y9575D02*
Y9615D01*
X3403Y10395D02*
Y10415D01*
Y9875D02*
Y9915D01*
Y9555D02*
Y9595D01*
X3383Y10395D02*
Y10435D01*
Y9855D02*
Y9895D01*
Y9555D02*
Y9575D01*
X3363Y10415D02*
Y10435D01*
Y9835D02*
Y9875D01*
Y9535D02*
Y9575D01*
X3343Y10415D02*
Y10455D01*
Y9835D02*
Y9855D01*
Y9535D02*
Y9555D01*
X3323Y10435D02*
Y10475D01*
Y9815D02*
Y9855D01*
Y9515D02*
Y9555D01*
X3303Y10455D02*
Y10475D01*
Y9795D02*
Y9835D01*
Y9495D02*
Y9535D01*
X3283Y10455D02*
Y10495D01*
Y9775D02*
Y9815D01*
Y9495D02*
Y9515D01*
X3263Y10475D02*
Y10515D01*
Y9775D02*
Y9795D01*
Y9475D02*
Y9515D01*
X3243Y10495D02*
Y10515D01*
Y9755D02*
Y9795D01*
Y9455D02*
Y9495D01*
X3223Y10495D02*
Y10535D01*
Y9735D02*
Y9775D01*
Y9455D02*
Y9475D01*
X3203Y10515D02*
Y10555D01*
Y9715D02*
Y9755D01*
Y9435D02*
Y9475D01*
X3183Y10535D02*
Y10555D01*
Y9715D02*
Y9735D01*
Y9435D02*
Y9455D01*
X3163Y10535D02*
Y10575D01*
Y9695D02*
Y9735D01*
Y9415D02*
Y9455D01*
X3143Y10555D02*
Y10575D01*
Y9675D02*
Y9715D01*
Y9395D02*
Y9435D01*
X3123Y10555D02*
Y10595D01*
Y9655D02*
Y9695D01*
Y9395D02*
Y9415D01*
X3103Y10575D02*
Y10615D01*
Y9655D02*
Y9675D01*
Y9375D02*
Y9415D01*
X3083Y10595D02*
Y10615D01*
Y9635D02*
Y9675D01*
Y9355D02*
Y9395D01*
X3063Y10595D02*
Y10635D01*
Y9615D02*
Y9655D01*
Y9355D02*
Y9375D01*
X3043Y10615D02*
Y10655D01*
Y9595D02*
Y9635D01*
Y9335D02*
Y9375D01*
X3023Y10635D02*
Y10655D01*
Y9595D02*
Y9615D01*
Y9335D02*
Y9355D01*
Y8455D02*
Y8515D01*
X3003Y10635D02*
Y10675D01*
Y9575D02*
Y9615D01*
Y9315D02*
Y9355D01*
Y8435D02*
Y8535D01*
X2983Y10655D02*
Y10675D01*
Y9555D02*
Y9595D01*
Y9295D02*
Y9335D01*
Y8415D02*
Y8555D01*
X2963Y10655D02*
Y10695D01*
Y9555D02*
Y9575D01*
Y9295D02*
Y9315D01*
Y8395D02*
Y8575D01*
X2943Y10675D02*
Y10715D01*
Y9535D02*
Y9575D01*
Y9275D02*
Y9315D01*
Y8375D02*
Y8595D01*
X2923Y10695D02*
Y10715D01*
Y9515D02*
Y9555D01*
Y9275D02*
Y9295D01*
Y8335D02*
Y8615D01*
X2903Y10695D02*
Y10735D01*
Y9495D02*
Y9535D01*
Y9255D02*
Y9295D01*
Y8315D02*
Y8615D01*
X2883Y10715D02*
Y10755D01*
Y9495D02*
Y9515D01*
Y9235D02*
Y9275D01*
Y8295D02*
Y8635D01*
X2863Y10735D02*
Y10755D01*
Y9475D02*
Y9515D01*
Y9235D02*
Y9255D01*
Y8275D02*
Y8655D01*
X2843Y10735D02*
Y10775D01*
Y9455D02*
Y9495D01*
Y9215D02*
Y9255D01*
Y8255D02*
Y8675D01*
X2823Y10755D02*
Y10775D01*
Y9435D02*
Y9475D01*
Y9195D02*
Y9235D01*
Y8275D02*
Y8695D01*
X2803Y10755D02*
Y10795D01*
Y9435D02*
Y9455D01*
Y9195D02*
Y9215D01*
Y8295D02*
Y8715D01*
X2783Y10775D02*
Y10815D01*
Y9415D02*
Y9455D01*
Y9175D02*
Y9215D01*
Y8315D02*
Y8735D01*
X2763Y10795D02*
Y10815D01*
Y9395D02*
Y9435D01*
Y9175D02*
Y9195D01*
Y8335D02*
Y8775D01*
X2743Y10795D02*
Y10835D01*
Y9375D02*
Y9415D01*
Y9155D02*
Y9195D01*
Y8355D02*
Y8795D01*
X2723Y10815D02*
Y10855D01*
Y9375D02*
Y9395D01*
Y9135D02*
Y9175D01*
Y8375D02*
Y8815D01*
X2703Y10835D02*
Y10855D01*
Y9355D02*
Y9395D01*
Y9135D02*
Y9155D01*
Y8375D02*
Y8835D01*
X2683Y10835D02*
Y10875D01*
Y9335D02*
Y9375D01*
Y9115D02*
Y9155D01*
Y8395D02*
Y8855D01*
X2663Y10855D02*
Y10895D01*
Y9315D02*
Y9355D01*
Y9095D02*
Y9135D01*
Y8415D02*
Y8895D01*
X2643Y10875D02*
Y10895D01*
Y9315D02*
Y9335D01*
Y9095D02*
Y9115D01*
Y8435D02*
Y8915D01*
X2623Y10875D02*
Y10915D01*
Y9295D02*
Y9335D01*
Y9075D02*
Y9115D01*
Y8455D02*
Y8955D01*
X2603Y10895D02*
Y10915D01*
Y9275D02*
Y9315D01*
Y9075D02*
Y9095D01*
Y8475D02*
Y8975D01*
X2583Y10895D02*
Y10935D01*
Y9275D02*
Y9295D01*
Y9055D02*
Y9095D01*
Y8495D02*
Y9015D01*
X2563Y10915D02*
Y10955D01*
Y9255D02*
Y9295D01*
Y8515D02*
Y9075D01*
X2543Y10875D02*
Y10955D01*
Y9235D02*
Y9275D01*
Y8555D02*
Y9075D01*
X2523Y10835D02*
Y10975D01*
Y9215D02*
Y9255D01*
Y8575D02*
Y9075D01*
X2503Y10795D02*
Y10995D01*
Y9215D02*
Y9235D01*
Y8595D02*
Y9055D01*
X2483Y10755D02*
Y10995D01*
Y9195D02*
Y9235D01*
Y8615D02*
Y9055D01*
X2463Y10695D02*
Y11015D01*
Y9155D02*
Y9235D01*
Y8635D02*
Y9035D01*
X2443Y10655D02*
Y11015D01*
Y9135D02*
Y9275D01*
Y8675D02*
Y9035D01*
X2423Y10595D02*
Y11035D01*
Y9115D02*
Y9335D01*
Y8695D02*
Y9015D01*
X2403Y10555D02*
Y11055D01*
Y9115D02*
Y9375D01*
Y8715D02*
Y8995D01*
X2383Y10495D02*
Y11055D01*
Y9095D02*
Y9435D01*
Y8735D02*
Y8995D01*
X2363Y10415D02*
Y11075D01*
Y9075D02*
Y9495D01*
Y8775D02*
Y8975D01*
X2343Y10355D02*
Y11095D01*
Y9055D02*
Y9575D01*
Y8795D02*
Y8955D01*
X2323Y10255D02*
Y11095D01*
Y9055D02*
Y9675D01*
Y8835D02*
Y8955D01*
X2303Y10095D02*
Y11115D01*
Y9035D02*
Y9775D01*
Y8855D02*
Y8935D01*
X2283Y11095D02*
Y11115D01*
Y9015D02*
Y11075D01*
Y8875D02*
Y8935D01*
X2263Y11095D02*
Y11135D01*
Y8995D02*
Y11035D01*
Y8855D02*
Y8895D01*
X2243Y11115D02*
Y11155D01*
Y8995D02*
Y10995D01*
Y8855D02*
Y8875D01*
X2223Y11135D02*
Y11155D01*
Y8995D02*
Y10955D01*
Y8835D02*
Y8875D01*
X2203Y11135D02*
Y11175D01*
Y9035D02*
Y10915D01*
Y8975D02*
Y9015D01*
Y8815D02*
Y8855D01*
X2183Y11155D02*
Y11195D01*
Y9055D02*
Y10875D01*
Y8975D02*
Y8995D01*
Y8815D02*
Y8835D01*
X2163Y11175D02*
Y11195D01*
Y9115D02*
Y10815D01*
Y8955D02*
Y8995D01*
Y8795D02*
Y8835D01*
X2143Y11175D02*
Y11215D01*
Y9155D02*
Y10775D01*
Y8935D02*
Y8975D01*
Y8775D02*
Y8815D01*
X2123Y11195D02*
Y11235D01*
Y9215D02*
Y10715D01*
Y8935D02*
Y8955D01*
Y8775D02*
Y8795D01*
X2103Y11215D02*
Y11235D01*
Y9255D02*
Y10675D01*
Y8915D02*
Y8955D01*
Y8755D02*
Y8795D01*
X2083Y11215D02*
Y11255D01*
Y9315D02*
Y10615D01*
Y8895D02*
Y8935D01*
Y8755D02*
Y8775D01*
X2063Y11235D02*
Y11255D01*
Y9375D02*
Y10535D01*
Y8875D02*
Y8915D01*
Y8735D02*
Y8775D01*
X2043Y11235D02*
Y11275D01*
Y9455D02*
Y10475D01*
Y8875D02*
Y8895D01*
Y8715D02*
Y8755D01*
X2023Y13215D02*
Y13255D01*
Y11255D02*
Y11295D01*
Y9575D02*
Y10375D01*
Y8855D02*
Y8895D01*
Y8715D02*
Y8735D01*
X2003Y13235D02*
Y13255D01*
Y11275D02*
Y11295D01*
Y9675D02*
Y10255D01*
Y8835D02*
Y8875D01*
Y8695D02*
Y8735D01*
X1983Y13235D02*
Y13275D01*
Y11275D02*
Y11315D01*
Y9775D02*
Y10095D01*
Y8815D02*
Y8855D01*
Y8675D02*
Y8715D01*
X1963Y13255D02*
Y13275D01*
Y11295D02*
Y11335D01*
Y8815D02*
Y8835D01*
Y8675D02*
Y8695D01*
X1943Y13255D02*
Y13295D01*
Y11315D02*
Y11335D01*
Y8795D02*
Y8835D01*
Y8655D02*
Y8695D01*
X1923Y13275D02*
Y13315D01*
Y11315D02*
Y11355D01*
Y8775D02*
Y8815D01*
Y8655D02*
Y8675D01*
X1903Y13275D02*
Y13315D01*
Y11335D02*
Y11355D01*
Y8755D02*
Y8795D01*
Y8635D02*
Y8675D01*
X1883Y13295D02*
Y13335D01*
Y11335D02*
Y11375D01*
Y8755D02*
Y8775D01*
Y8615D02*
Y8655D01*
X1863Y13295D02*
Y13335D01*
Y11355D02*
Y11395D01*
Y8735D02*
Y8775D01*
Y8615D02*
Y8635D01*
X1843Y13315D02*
Y13355D01*
Y11375D02*
Y11395D01*
Y8715D02*
Y8755D01*
Y8595D02*
Y8635D01*
X1823Y13315D02*
Y13355D01*
Y11375D02*
Y11415D01*
Y8695D02*
Y8735D01*
Y8595D02*
Y8615D01*
X1803Y13335D02*
Y13375D01*
Y11395D02*
Y11435D01*
Y8695D02*
Y8715D01*
Y8575D02*
Y8615D01*
X1783Y13335D02*
Y13375D01*
Y11415D02*
Y11435D01*
Y8675D02*
Y8715D01*
Y8555D02*
Y8595D01*
X1763Y13335D02*
Y13375D01*
Y11415D02*
Y11455D01*
Y8655D02*
Y8695D01*
Y8555D02*
Y8575D01*
X1743Y13355D02*
Y13395D01*
Y11435D02*
Y11455D01*
Y8655D02*
Y8675D01*
Y8535D02*
Y8575D01*
X1723Y13355D02*
Y13395D01*
Y11435D02*
Y11475D01*
Y8635D02*
Y8675D01*
Y8515D02*
Y8555D01*
X1703Y13355D02*
Y13395D01*
Y11455D02*
Y11495D01*
Y8615D02*
Y8655D01*
Y8515D02*
Y8535D01*
X1683Y13375D02*
Y13415D01*
Y11475D02*
Y11495D01*
Y8595D02*
Y8635D01*
Y8495D02*
Y8535D01*
X1663Y13375D02*
Y13415D01*
Y11475D02*
Y11515D01*
Y8595D02*
Y8615D01*
Y8495D02*
Y8515D01*
X1643Y13375D02*
Y13415D01*
Y11495D02*
Y11535D01*
Y8575D02*
Y8615D01*
Y8475D02*
Y8515D01*
X1623Y13375D02*
Y13415D01*
Y11515D02*
Y11535D01*
Y8555D02*
Y8595D01*
Y8455D02*
Y8495D01*
X1603Y13375D02*
Y13415D01*
Y11515D02*
Y11555D01*
Y8535D02*
Y8575D01*
Y8455D02*
Y8475D01*
X1583Y13395D02*
Y13435D01*
Y11535D02*
Y11555D01*
Y8535D02*
Y8555D01*
Y8435D02*
Y8475D01*
X1563Y13395D02*
Y13435D01*
Y11535D02*
Y11575D01*
Y8515D02*
Y8555D01*
Y8415D02*
Y8455D01*
X1543Y13395D02*
Y13435D01*
Y11555D02*
Y11595D01*
Y8495D02*
Y8535D01*
Y8415D02*
Y8435D01*
X1523Y13395D02*
Y13435D01*
Y11575D02*
Y11595D01*
Y8475D02*
Y8515D01*
Y8395D02*
Y8435D01*
X1503Y13395D02*
Y13435D01*
Y11575D02*
Y11615D01*
Y8475D02*
Y8495D01*
Y8395D02*
Y8415D01*
X1483Y13395D02*
Y13435D01*
Y11595D02*
Y11635D01*
Y8455D02*
Y8495D01*
Y8375D02*
Y8415D01*
X1463Y13395D02*
Y13435D01*
Y11615D02*
Y11635D01*
Y8435D02*
Y8475D01*
Y8355D02*
Y8395D01*
X1443Y13395D02*
Y13435D01*
Y11615D02*
Y11655D01*
Y8415D02*
Y8455D01*
Y8355D02*
Y8375D01*
X1423Y13395D02*
Y13435D01*
Y11635D02*
Y11675D01*
Y8415D02*
Y8435D01*
Y8335D02*
Y8375D01*
X1403Y13395D02*
Y13435D01*
Y11655D02*
Y11675D01*
Y8395D02*
Y8435D01*
Y8335D02*
Y8355D01*
X1383Y13395D02*
Y13435D01*
Y11655D02*
Y11695D01*
Y8375D02*
Y8415D01*
Y8315D02*
Y8355D01*
X1363Y13395D02*
Y13435D01*
Y11675D02*
Y11695D01*
Y8355D02*
Y8395D01*
Y8295D02*
Y8335D01*
X1343Y13375D02*
Y13415D01*
Y11675D02*
Y11715D01*
Y8355D02*
Y8375D01*
Y8295D02*
Y8315D01*
X1323Y13375D02*
Y13415D01*
Y11695D02*
Y11735D01*
Y8335D02*
Y8375D01*
Y8275D02*
Y8315D01*
X1303Y13375D02*
Y13415D01*
Y11715D02*
Y11735D01*
Y8315D02*
Y8355D01*
Y8255D02*
Y8295D01*
X1283Y13375D02*
Y13415D01*
Y11715D02*
Y11755D01*
Y8315D02*
Y8335D01*
Y8255D02*
Y8275D01*
X1263Y13375D02*
Y13415D01*
Y11735D02*
Y11775D01*
Y8295D02*
Y8335D01*
Y8235D02*
Y8275D01*
X1243Y13355D02*
Y13395D01*
Y11755D02*
Y11775D01*
Y8275D02*
Y8315D01*
Y8235D02*
Y8255D01*
X1223Y13355D02*
Y13395D01*
Y11755D02*
Y11795D01*
Y8215D02*
Y8295D01*
X1203Y13355D02*
Y13395D01*
Y11775D02*
Y11795D01*
Y8255D02*
Y8275D01*
Y8195D02*
Y8235D01*
X1183Y13335D02*
Y13375D01*
Y11775D02*
Y11815D01*
Y8235D02*
Y8275D01*
Y8195D02*
Y8215D01*
X1163Y13335D02*
Y13375D01*
Y11795D02*
Y11835D01*
Y8175D02*
Y8255D01*
X1143Y13315D02*
Y13375D01*
Y11815D02*
Y11835D01*
Y8155D02*
Y8235D01*
X1123Y13315D02*
Y13355D01*
Y11815D02*
Y11855D01*
Y8195D02*
Y8215D01*
Y8155D02*
Y8175D01*
X1103Y13295D02*
Y13335D01*
Y11835D02*
Y11875D01*
Y8135D02*
Y8215D01*
X1083Y13295D02*
Y13335D01*
Y11855D02*
Y11875D01*
Y8135D02*
Y8195D01*
X1063Y13275D02*
Y13315D01*
Y11855D02*
Y11895D01*
Y8115D02*
Y8175D01*
X1043Y13275D02*
Y13315D01*
Y11875D02*
Y11915D01*
Y8095D02*
Y8155D01*
X1023Y13255D02*
Y13295D01*
Y11895D02*
Y11935D01*
Y8095D02*
Y8155D01*
X1003Y13235D02*
Y13295D01*
Y11895D02*
Y11955D01*
Y8075D02*
Y8135D01*
X983Y13215D02*
Y13275D01*
Y11915D02*
Y11955D01*
Y8075D02*
Y8115D01*
X963Y13215D02*
Y13255D01*
Y11935D02*
Y11975D01*
Y8055D02*
Y8095D01*
X943Y13195D02*
Y13235D01*
Y11955D02*
Y11995D01*
Y8035D02*
Y8095D01*
X923Y13175D02*
Y13235D01*
Y11955D02*
Y12015D01*
Y8035D02*
Y8075D01*
X903Y13155D02*
Y13215D01*
Y11975D02*
Y12035D01*
Y8015D02*
Y8055D01*
X883Y13135D02*
Y13195D01*
Y11995D02*
Y12055D01*
Y7995D02*
Y8055D01*
X863Y13095D02*
Y13175D01*
Y12015D02*
Y12095D01*
Y7995D02*
Y8035D01*
X843Y13075D02*
Y13155D01*
Y12035D02*
Y12115D01*
Y7975D02*
Y8015D01*
X823Y13055D02*
Y13115D01*
Y12075D02*
Y12135D01*
Y7975D02*
Y7995D01*
X803Y13015D02*
Y13095D01*
Y12095D02*
Y12155D01*
Y7955D02*
Y7995D01*
X783Y12995D02*
Y13075D01*
Y12115D02*
Y12195D01*
Y7935D02*
Y7975D01*
X763Y12955D02*
Y13035D01*
Y12135D02*
Y12235D01*
Y7935D02*
Y7955D01*
X743Y12915D02*
Y13015D01*
Y12175D02*
Y12275D01*
Y7915D02*
Y7935D01*
X723Y12875D02*
Y12975D01*
Y12215D02*
Y12315D01*
Y7895D02*
Y7935D01*
X703Y12815D02*
Y12935D01*
Y12255D02*
Y12375D01*
Y7895D02*
Y7915D01*
X683Y12735D02*
Y12895D01*
Y12295D02*
Y12435D01*
Y7875D02*
Y7895D01*
X663Y12355D02*
Y12835D01*
X643Y12415D02*
Y12755D01*
Y7855D02*
Y7875D01*
X623Y7835D02*
Y7855D01*
D26*
X2543Y2950D02*
X2710D01*
X2627D01*
Y3449D01*
X2543Y3366D01*
X8477Y3449D02*
X8143D01*
Y3200D01*
X8310Y3283D01*
X8393D01*
X8477Y3200D01*
Y3033D01*
X8393Y2950D01*
X8227D01*
X8143Y3033D01*
Y3950D02*
X8310D01*
X8227D01*
Y4449D01*
X8143Y4366D01*
X8560D02*
X8643Y4449D01*
X8810D01*
X8893Y4366D01*
Y4033D01*
X8810Y3950D01*
X8643D01*
X8560Y4033D01*
Y4366D01*
X2877Y4449D02*
X2710Y4366D01*
X2543Y4200D01*
Y4033D01*
X2627Y3950D01*
X2793D01*
X2877Y4033D01*
Y4116D01*
X2793Y4200D01*
X2543D01*
X11205Y2950D02*
X11371D01*
X11288D01*
Y3449D01*
X11205Y3366D01*
X17138Y3449D02*
X16805D01*
Y3200D01*
X16971Y3283D01*
X17055D01*
X17138Y3200D01*
Y3033D01*
X17055Y2950D01*
X16888D01*
X16805Y3033D01*
Y3950D02*
X16971D01*
X16888D01*
Y4449D01*
X16805Y4366D01*
X17221D02*
X17305Y4449D01*
X17471D01*
X17554Y4366D01*
Y4033D01*
X17471Y3950D01*
X17305D01*
X17221Y4033D01*
Y4366D01*
X11538Y4449D02*
X11371Y4366D01*
X11205Y4200D01*
Y4033D01*
X11288Y3950D01*
X11455D01*
X11538Y4033D01*
Y4116D01*
X11455Y4200D01*
X11205D01*
X6000Y16200D02*
X5833D01*
X5917D01*
Y15700D01*
X6000Y15783D01*
X5867Y15200D02*
X6200D01*
X5867Y14867D01*
Y14783D01*
X5950Y14700D01*
X6117D01*
X6200Y14783D01*
X2267Y15700D02*
X2600D01*
Y15950D01*
X2433Y15867D01*
X2350D01*
X2267Y15950D01*
Y16117D01*
X2350Y16200D01*
X2517D01*
X2600Y16117D01*
X2267Y14700D02*
X2433Y14783D01*
X2600Y14950D01*
Y15117D01*
X2517Y15200D01*
X2350D01*
X2267Y15117D01*
Y15033D01*
X2350Y14950D01*
X2600D01*
M02*
