%FSLAX24Y24*%
%MOIN*%
G70*
G01*
G75*
G04 Layer_Physical_Order=2*
G04 Layer_Color=16711680*
%ADD10R,0.0433X0.0394*%
%ADD11R,0.0394X0.0433*%
%ADD12R,0.0354X0.0276*%
%ADD13R,0.0276X0.0354*%
%ADD14O,0.0787X0.0236*%
%ADD15C,0.0100*%
%ADD16R,0.0100X0.0200*%
%ADD17R,0.0591X0.0591*%
%ADD18C,0.0591*%
%ADD19C,0.1969*%
%ADD20C,0.0500*%
G36*
X19565Y120D02*
X120D01*
Y19565D01*
X19565D01*
Y120D01*
D02*
G37*
%LPC*%
G36*
X12155Y4100D02*
X11813D01*
X11820Y4046D01*
X11859Y3950D01*
X11923Y3868D01*
X12005Y3804D01*
X12102Y3765D01*
X12155Y3758D01*
Y4100D01*
D02*
G37*
G36*
X3493Y4542D02*
X3440Y4535D01*
X3344Y4495D01*
X3261Y4432D01*
X3198Y4349D01*
X3158Y4253D01*
X3151Y4200D01*
X3493D01*
Y4542D01*
D02*
G37*
G36*
X3593D02*
Y4200D01*
X3935D01*
X3928Y4253D01*
X3889Y4349D01*
X3825Y4432D01*
X3743Y4495D01*
X3646Y4535D01*
X3593Y4542D01*
D02*
G37*
G36*
X16205Y4548D02*
X16102Y4535D01*
X16005Y4495D01*
X15923Y4432D01*
X15859Y4349D01*
X15820Y4253D01*
X15806Y4150D01*
X15820Y4046D01*
X15859Y3950D01*
X15923Y3868D01*
X16005Y3804D01*
X16102Y3765D01*
X16205Y3751D01*
X16308Y3765D01*
X16404Y3804D01*
X16487Y3868D01*
X16550Y3950D01*
X16590Y4046D01*
X16603Y4150D01*
X16590Y4253D01*
X16550Y4349D01*
X16487Y4432D01*
X16404Y4495D01*
X16308Y4535D01*
X16205Y4548D01*
D02*
G37*
G36*
X3493Y4100D02*
X3151D01*
X3158Y4046D01*
X3198Y3950D01*
X3261Y3868D01*
X3344Y3804D01*
X3440Y3765D01*
X3493Y3758D01*
Y4100D01*
D02*
G37*
G36*
X3935D02*
X3593D01*
Y3758D01*
X3646Y3765D01*
X3743Y3804D01*
X3825Y3868D01*
X3889Y3950D01*
X3928Y4046D01*
X3935Y4100D01*
D02*
G37*
G36*
X6990Y10984D02*
X6693D01*
Y10687D01*
X6735Y10693D01*
X6820Y10728D01*
X6893Y10784D01*
X6949Y10857D01*
X6984Y10942D01*
X6990Y10984D01*
D02*
G37*
G36*
X14389D02*
X14092D01*
X14098Y10942D01*
X14133Y10857D01*
X14189Y10784D01*
X14262Y10728D01*
X14347Y10693D01*
X14389Y10687D01*
Y10984D01*
D02*
G37*
G36*
X14785D02*
X14489D01*
Y10687D01*
X14530Y10693D01*
X14615Y10728D01*
X14688Y10784D01*
X14744Y10857D01*
X14780Y10942D01*
X14785Y10984D01*
D02*
G37*
G36*
X12155Y4542D02*
X12102Y4535D01*
X12005Y4495D01*
X11923Y4432D01*
X11859Y4349D01*
X11820Y4253D01*
X11813Y4200D01*
X12155D01*
Y4542D01*
D02*
G37*
G36*
X10984Y6455D02*
X10893Y6443D01*
X10808Y6408D01*
X10735Y6352D01*
X10679Y6279D01*
X10643Y6194D01*
X10631Y6102D01*
X10643Y6011D01*
X10679Y5926D01*
X10716Y5877D01*
X10713Y5875D01*
D01*
X10681Y5842D01*
X10610Y5896D01*
X10524Y5932D01*
X10433Y5944D01*
X10342Y5932D01*
X10257Y5896D01*
X10183Y5840D01*
X10127Y5767D01*
X10092Y5682D01*
X10080Y5591D01*
X10092Y5499D01*
X10127Y5414D01*
X10167Y5362D01*
X10137Y5322D01*
X10091Y5341D01*
X10000Y5353D01*
X9909Y5341D01*
X9823Y5306D01*
X9750Y5250D01*
X9694Y5177D01*
X9659Y5091D01*
X9647Y5000D01*
X9659Y4909D01*
X9694Y4823D01*
X9750Y4750D01*
X9823Y4694D01*
X9909Y4659D01*
X10000Y4647D01*
X10091Y4659D01*
X10177Y4694D01*
X10250Y4750D01*
X10306Y4823D01*
X10315Y4847D01*
X12259D01*
X12524Y4582D01*
Y4459D01*
X12479Y4437D01*
X12404Y4495D01*
X12308Y4535D01*
X12255Y4542D01*
Y4150D01*
Y3758D01*
X12308Y3765D01*
X12404Y3804D01*
X12479Y3862D01*
X12524Y3840D01*
Y3677D01*
X12536Y3619D01*
X12556Y3589D01*
X12532Y3545D01*
X11809D01*
Y2754D01*
X12600D01*
Y3473D01*
X12646Y3492D01*
X12839Y3299D01*
X12820Y3253D01*
X12806Y3150D01*
X12820Y3046D01*
X12859Y2950D01*
X12923Y2868D01*
X13005Y2804D01*
X13102Y2765D01*
X13205Y2751D01*
X13308Y2765D01*
X13404Y2804D01*
X13487Y2868D01*
X13550Y2950D01*
X13590Y3046D01*
X13603Y3150D01*
X13590Y3253D01*
X13550Y3349D01*
X13487Y3432D01*
X13404Y3495D01*
X13308Y3535D01*
X13205Y3548D01*
X13102Y3535D01*
X13055Y3515D01*
X12830Y3741D01*
Y3911D01*
X12877Y3927D01*
X12923Y3868D01*
X13005Y3804D01*
X13102Y3765D01*
X13205Y3751D01*
X13308Y3765D01*
X13404Y3804D01*
X13487Y3868D01*
X13500Y3886D01*
X13548Y3870D01*
Y3654D01*
X13548Y3654D01*
X13548D01*
X13559Y3595D01*
X13593Y3545D01*
X13839Y3299D01*
X13820Y3253D01*
X13806Y3150D01*
X13820Y3046D01*
X13859Y2950D01*
X13923Y2868D01*
X14005Y2804D01*
X14102Y2765D01*
X14205Y2751D01*
X14308Y2765D01*
X14404Y2804D01*
X14487Y2868D01*
X14550Y2950D01*
X14590Y3046D01*
X14603Y3150D01*
X14590Y3253D01*
X14550Y3349D01*
X14487Y3432D01*
X14404Y3495D01*
X14308Y3535D01*
X14205Y3548D01*
X14102Y3535D01*
X14055Y3515D01*
X13854Y3717D01*
Y3880D01*
X13901Y3896D01*
X13923Y3868D01*
X14005Y3804D01*
X14102Y3765D01*
X14205Y3751D01*
X14308Y3765D01*
X14404Y3804D01*
X14487Y3868D01*
X14532Y3852D01*
Y3669D01*
X14532Y3669D01*
X14532D01*
X14544Y3611D01*
X14577Y3561D01*
X14839Y3299D01*
X14820Y3253D01*
X14806Y3150D01*
X14820Y3046D01*
X14859Y2950D01*
X14923Y2868D01*
X15005Y2804D01*
X15102Y2765D01*
X15205Y2751D01*
X15308Y2765D01*
X15404Y2804D01*
X15487Y2868D01*
X15550Y2950D01*
X15590Y3046D01*
X15603Y3150D01*
X15590Y3253D01*
X15550Y3349D01*
X15487Y3432D01*
X15404Y3495D01*
X15308Y3535D01*
X15205Y3548D01*
X15102Y3535D01*
X15055Y3515D01*
X14838Y3733D01*
Y3900D01*
X14885Y3917D01*
X14923Y3868D01*
X15005Y3804D01*
X15102Y3765D01*
X15205Y3751D01*
X15308Y3765D01*
X15404Y3804D01*
X15487Y3868D01*
X15550Y3950D01*
X15590Y4046D01*
X15603Y4150D01*
X15590Y4253D01*
X15550Y4349D01*
X15487Y4432D01*
X15404Y4495D01*
X15308Y4535D01*
X15205Y4548D01*
X15102Y4535D01*
X15005Y4495D01*
X14923Y4432D01*
X14885Y4383D01*
X14838Y4399D01*
Y5197D01*
X14826Y5255D01*
X14793Y5305D01*
X13888Y6211D01*
X13838Y6244D01*
X13780Y6255D01*
X11300D01*
X11290Y6279D01*
X11234Y6352D01*
X11161Y6408D01*
X11076Y6443D01*
X10984Y6455D01*
D02*
G37*
G36*
X6593Y10984D02*
X6297D01*
X6302Y10942D01*
X6338Y10857D01*
X6394Y10784D01*
X6467Y10728D01*
X6552Y10693D01*
X6593Y10687D01*
Y10984D01*
D02*
G37*
G36*
X5543Y3548D02*
X5440Y3535D01*
X5344Y3495D01*
X5261Y3432D01*
X5198Y3349D01*
X5158Y3253D01*
X5145Y3150D01*
X5158Y3046D01*
X5198Y2950D01*
X5261Y2868D01*
X5344Y2804D01*
X5440Y2765D01*
X5543Y2751D01*
X5646Y2765D01*
X5743Y2804D01*
X5825Y2868D01*
X5889Y2950D01*
X5928Y3046D01*
X5942Y3150D01*
X5928Y3253D01*
X5889Y3349D01*
X5825Y3432D01*
X5743Y3495D01*
X5646Y3535D01*
X5543Y3548D01*
D02*
G37*
G36*
X6543D02*
X6440Y3535D01*
X6344Y3495D01*
X6261Y3432D01*
X6198Y3349D01*
X6158Y3253D01*
X6145Y3150D01*
X6158Y3046D01*
X6198Y2950D01*
X6261Y2868D01*
X6344Y2804D01*
X6440Y2765D01*
X6543Y2751D01*
X6646Y2765D01*
X6743Y2804D01*
X6825Y2868D01*
X6889Y2950D01*
X6928Y3046D01*
X6942Y3150D01*
X6928Y3253D01*
X6889Y3349D01*
X6825Y3432D01*
X6743Y3495D01*
X6646Y3535D01*
X6543Y3548D01*
D02*
G37*
G36*
X7543D02*
X7440Y3535D01*
X7344Y3495D01*
X7261Y3432D01*
X7198Y3349D01*
X7158Y3253D01*
X7145Y3150D01*
X7158Y3046D01*
X7198Y2950D01*
X7261Y2868D01*
X7344Y2804D01*
X7440Y2765D01*
X7543Y2751D01*
X7646Y2765D01*
X7743Y2804D01*
X7825Y2868D01*
X7889Y2950D01*
X7928Y3046D01*
X7942Y3150D01*
X7928Y3253D01*
X7889Y3349D01*
X7825Y3432D01*
X7743Y3495D01*
X7646Y3535D01*
X7543Y3548D01*
D02*
G37*
G36*
X1575Y2662D02*
X1405Y2649D01*
X1239Y2609D01*
X1081Y2544D01*
X936Y2455D01*
X806Y2344D01*
X695Y2214D01*
X606Y2069D01*
X540Y1911D01*
X501Y1745D01*
X487Y1575D01*
X501Y1405D01*
X540Y1239D01*
X606Y1081D01*
X695Y936D01*
X806Y806D01*
X936Y695D01*
X1081Y606D01*
X1239Y540D01*
X1405Y501D01*
X1575Y487D01*
X1745Y501D01*
X1911Y540D01*
X2069Y606D01*
X2214Y695D01*
X2344Y806D01*
X2455Y936D01*
X2544Y1081D01*
X2609Y1239D01*
X2649Y1405D01*
X2662Y1575D01*
X2649Y1745D01*
X2609Y1911D01*
X2544Y2069D01*
X2455Y2214D01*
X2344Y2344D01*
X2214Y2455D01*
X2069Y2544D01*
X1911Y2609D01*
X1745Y2649D01*
X1575Y2662D01*
D02*
G37*
G36*
X18110D02*
X17940Y2649D01*
X17774Y2609D01*
X17616Y2544D01*
X17471Y2455D01*
X17341Y2344D01*
X17230Y2214D01*
X17141Y2069D01*
X17076Y1911D01*
X17036Y1745D01*
X17023Y1575D01*
X17036Y1405D01*
X17076Y1239D01*
X17141Y1081D01*
X17230Y936D01*
X17341Y806D01*
X17471Y695D01*
X17616Y606D01*
X17774Y540D01*
X17940Y501D01*
X18110Y487D01*
X18280Y501D01*
X18446Y540D01*
X18604Y606D01*
X18750Y695D01*
X18879Y806D01*
X18990Y936D01*
X19079Y1081D01*
X19145Y1239D01*
X19184Y1405D01*
X19198Y1575D01*
X19184Y1745D01*
X19145Y1911D01*
X19079Y2069D01*
X18990Y2214D01*
X18879Y2344D01*
X18750Y2455D01*
X18604Y2544D01*
X18446Y2609D01*
X18280Y2649D01*
X18110Y2662D01*
D02*
G37*
G36*
X4543Y3548D02*
X4440Y3535D01*
X4344Y3495D01*
X4261Y3432D01*
X4198Y3349D01*
X4158Y3253D01*
X4145Y3150D01*
X4158Y3046D01*
X4198Y2950D01*
X4261Y2868D01*
X4344Y2804D01*
X4440Y2765D01*
X4543Y2751D01*
X4646Y2765D01*
X4743Y2804D01*
X4825Y2868D01*
X4889Y2950D01*
X4928Y3046D01*
X4942Y3150D01*
X4928Y3253D01*
X4889Y3349D01*
X4825Y3432D01*
X4743Y3495D01*
X4646Y3535D01*
X4543Y3548D01*
D02*
G37*
G36*
X5543Y4548D02*
X5440Y4535D01*
X5344Y4495D01*
X5261Y4432D01*
X5198Y4349D01*
X5158Y4253D01*
X5145Y4150D01*
X5158Y4046D01*
X5198Y3950D01*
X5261Y3868D01*
X5344Y3804D01*
X5440Y3765D01*
X5543Y3751D01*
X5646Y3765D01*
X5743Y3804D01*
X5825Y3868D01*
X5889Y3950D01*
X5928Y4046D01*
X5942Y4150D01*
X5928Y4253D01*
X5889Y4349D01*
X5825Y4432D01*
X5743Y4495D01*
X5646Y4535D01*
X5543Y4548D01*
D02*
G37*
G36*
X6543D02*
X6440Y4535D01*
X6344Y4495D01*
X6261Y4432D01*
X6198Y4349D01*
X6158Y4253D01*
X6145Y4150D01*
X6158Y4046D01*
X6198Y3950D01*
X6261Y3868D01*
X6344Y3804D01*
X6440Y3765D01*
X6543Y3751D01*
X6646Y3765D01*
X6743Y3804D01*
X6825Y3868D01*
X6889Y3950D01*
X6928Y4046D01*
X6942Y4150D01*
X6928Y4253D01*
X6889Y4349D01*
X6825Y4432D01*
X6743Y4495D01*
X6646Y4535D01*
X6543Y4548D01*
D02*
G37*
G36*
X7543D02*
X7440Y4535D01*
X7344Y4495D01*
X7261Y4432D01*
X7198Y4349D01*
X7158Y4253D01*
X7145Y4150D01*
X7158Y4046D01*
X7198Y3950D01*
X7261Y3868D01*
X7344Y3804D01*
X7440Y3765D01*
X7543Y3751D01*
X7646Y3765D01*
X7743Y3804D01*
X7825Y3868D01*
X7889Y3950D01*
X7928Y4046D01*
X7942Y4150D01*
X7928Y4253D01*
X7889Y4349D01*
X7825Y4432D01*
X7743Y4495D01*
X7646Y4535D01*
X7543Y4548D01*
D02*
G37*
G36*
X16205Y3548D02*
X16102Y3535D01*
X16005Y3495D01*
X15923Y3432D01*
X15859Y3349D01*
X15820Y3253D01*
X15806Y3150D01*
X15820Y3046D01*
X15859Y2950D01*
X15923Y2868D01*
X16005Y2804D01*
X16102Y2765D01*
X16205Y2751D01*
X16308Y2765D01*
X16404Y2804D01*
X16487Y2868D01*
X16550Y2950D01*
X16590Y3046D01*
X16603Y3150D01*
X16590Y3253D01*
X16550Y3349D01*
X16487Y3432D01*
X16404Y3495D01*
X16308Y3535D01*
X16205Y3548D01*
D02*
G37*
G36*
X3939Y3545D02*
X3148D01*
Y2754D01*
X3939D01*
Y3545D01*
D02*
G37*
G36*
X4543Y4548D02*
X4440Y4535D01*
X4344Y4495D01*
X4261Y4432D01*
X4198Y4349D01*
X4158Y4253D01*
X4145Y4150D01*
X4158Y4046D01*
X4198Y3950D01*
X4261Y3868D01*
X4344Y3804D01*
X4440Y3765D01*
X4543Y3751D01*
X4646Y3765D01*
X4743Y3804D01*
X4825Y3868D01*
X4889Y3950D01*
X4928Y4046D01*
X4942Y4150D01*
X4928Y4253D01*
X4889Y4349D01*
X4825Y4432D01*
X4743Y4495D01*
X4646Y4535D01*
X4543Y4548D01*
D02*
G37*
G36*
X6593Y11380D02*
X6552Y11375D01*
X6467Y11340D01*
X6394Y11283D01*
X6338Y11210D01*
X6302Y11125D01*
X6297Y11084D01*
X6593D01*
Y11380D01*
D02*
G37*
G36*
X5595Y16395D02*
X4805D01*
Y15605D01*
X5595D01*
Y16395D01*
D02*
G37*
G36*
X10417Y17328D02*
X10314Y17314D01*
X10218Y17274D01*
X10135Y17211D01*
X10072Y17128D01*
X10032Y17032D01*
X10019Y16929D01*
X10032Y16826D01*
X10072Y16730D01*
X10135Y16647D01*
X10218Y16584D01*
X10314Y16544D01*
X10417Y16530D01*
X10521Y16544D01*
X10617Y16584D01*
X10699Y16647D01*
X10763Y16730D01*
X10802Y16826D01*
X10816Y16929D01*
X10802Y17032D01*
X10763Y17128D01*
X10699Y17211D01*
X10617Y17274D01*
X10521Y17314D01*
X10417Y17328D01*
D02*
G37*
G36*
X13173D02*
X13070Y17314D01*
X12974Y17274D01*
X12891Y17211D01*
X12828Y17128D01*
X12788Y17032D01*
X12775Y16929D01*
X12788Y16826D01*
X12828Y16730D01*
X12891Y16647D01*
X12974Y16584D01*
X13070Y16544D01*
X13173Y16530D01*
X13276Y16544D01*
X13373Y16584D01*
X13455Y16647D01*
X13519Y16730D01*
X13558Y16826D01*
X13572Y16929D01*
X13558Y17032D01*
X13519Y17128D01*
X13455Y17211D01*
X13373Y17274D01*
X13276Y17314D01*
X13173Y17328D01*
D02*
G37*
G36*
X15433Y15730D02*
Y15433D01*
X15730D01*
X15724Y15475D01*
X15689Y15560D01*
X15633Y15633D01*
X15560Y15689D01*
X15475Y15724D01*
X15433Y15730D01*
D02*
G37*
G36*
X3200Y16399D02*
X3097Y16385D01*
X3001Y16345D01*
X2918Y16282D01*
X2855Y16199D01*
X2836Y16153D01*
X2425D01*
X2367Y16141D01*
X2317Y16108D01*
X1978Y15770D01*
X1945Y15720D01*
X1934Y15661D01*
Y11614D01*
X1934Y11614D01*
X1934D01*
X1945Y11556D01*
X1978Y11506D01*
X5968Y7517D01*
X5958Y7493D01*
X5946Y7402D01*
X5958Y7310D01*
X5993Y7225D01*
X6050Y7152D01*
X6123Y7096D01*
X6208Y7061D01*
X6299Y7049D01*
X6391Y7061D01*
X6476Y7096D01*
X6549Y7152D01*
X6605Y7225D01*
X6640Y7310D01*
X6652Y7402D01*
X6640Y7493D01*
X6605Y7578D01*
X6549Y7651D01*
X6476Y7707D01*
X6391Y7743D01*
X6299Y7755D01*
X6208Y7743D01*
X6184Y7733D01*
X2240Y11678D01*
Y15598D01*
X2489Y15847D01*
X2836D01*
X2855Y15801D01*
X2918Y15718D01*
X3001Y15655D01*
X3097Y15615D01*
X3200Y15601D01*
X3303Y15615D01*
X3399Y15655D01*
X3482Y15718D01*
X3545Y15801D01*
X3585Y15897D01*
X3599Y16000D01*
X3585Y16103D01*
X3545Y16199D01*
X3482Y16282D01*
X3399Y16345D01*
X3303Y16385D01*
X3200Y16399D01*
D02*
G37*
G36*
X4200D02*
X4097Y16385D01*
X4001Y16345D01*
X3918Y16282D01*
X3855Y16199D01*
X3815Y16103D01*
X3801Y16000D01*
X3815Y15897D01*
X3855Y15801D01*
X3918Y15718D01*
X4001Y15655D01*
X4097Y15615D01*
X4200Y15601D01*
X4303Y15615D01*
X4399Y15655D01*
X4482Y15718D01*
X4545Y15801D01*
X4585Y15897D01*
X4599Y16000D01*
X4585Y16103D01*
X4545Y16199D01*
X4482Y16282D01*
X4399Y16345D01*
X4303Y16385D01*
X4200Y16399D01*
D02*
G37*
G36*
X11367Y16879D02*
X11022D01*
Y16534D01*
X11367D01*
Y16879D01*
D02*
G37*
G36*
X11813Y17324D02*
X11467D01*
Y16979D01*
X11813D01*
Y17324D01*
D02*
G37*
G36*
X1575Y19198D02*
X1405Y19184D01*
X1239Y19145D01*
X1081Y19079D01*
X936Y18990D01*
X806Y18879D01*
X695Y18750D01*
X606Y18604D01*
X540Y18446D01*
X501Y18280D01*
X487Y18110D01*
X501Y17940D01*
X540Y17774D01*
X606Y17616D01*
X695Y17471D01*
X806Y17341D01*
X936Y17230D01*
X1081Y17141D01*
X1239Y17076D01*
X1405Y17036D01*
X1575Y17023D01*
X1745Y17036D01*
X1911Y17076D01*
X2069Y17141D01*
X2214Y17230D01*
X2344Y17341D01*
X2455Y17471D01*
X2544Y17616D01*
X2609Y17774D01*
X2649Y17940D01*
X2662Y18110D01*
X2649Y18280D01*
X2609Y18446D01*
X2544Y18604D01*
X2455Y18750D01*
X2344Y18879D01*
X2214Y18990D01*
X2069Y19079D01*
X1911Y19145D01*
X1745Y19184D01*
X1575Y19198D01*
D02*
G37*
G36*
X18110D02*
X17940Y19184D01*
X17774Y19145D01*
X17616Y19079D01*
X17471Y18990D01*
X17341Y18879D01*
X17230Y18750D01*
X17141Y18604D01*
X17076Y18446D01*
X17036Y18280D01*
X17023Y18110D01*
X17036Y17940D01*
X17076Y17774D01*
X17141Y17616D01*
X17230Y17471D01*
X17341Y17341D01*
X17471Y17230D01*
X17616Y17141D01*
X17774Y17076D01*
X17940Y17036D01*
X18110Y17023D01*
X18280Y17036D01*
X18446Y17076D01*
X18604Y17141D01*
X18750Y17230D01*
X18879Y17341D01*
X18990Y17471D01*
X19079Y17616D01*
X19145Y17774D01*
X19184Y17940D01*
X19198Y18110D01*
X19184Y18280D01*
X19145Y18446D01*
X19079Y18604D01*
X18990Y18750D01*
X18879Y18879D01*
X18750Y18990D01*
X18604Y19079D01*
X18446Y19145D01*
X18280Y19184D01*
X18110Y19198D01*
D02*
G37*
G36*
X11813Y16879D02*
X11467D01*
Y16534D01*
X11813D01*
Y16879D01*
D02*
G37*
G36*
X14569Y17324D02*
X13778D01*
Y16534D01*
X14569D01*
Y17324D01*
D02*
G37*
G36*
X11367D02*
X11022D01*
Y16979D01*
X11367D01*
Y17324D01*
D02*
G37*
G36*
X15333Y15730D02*
X15292Y15724D01*
X15207Y15689D01*
X15134Y15633D01*
X15078Y15560D01*
X15042Y15475D01*
X15037Y15433D01*
X15333D01*
Y15730D01*
D02*
G37*
G36*
X14389Y11380D02*
X14347Y11375D01*
X14262Y11340D01*
X14189Y11283D01*
X14133Y11210D01*
X14098Y11125D01*
X14092Y11084D01*
X14389D01*
Y11380D01*
D02*
G37*
G36*
X6693D02*
Y11084D01*
X6990D01*
X6984Y11125D01*
X6949Y11210D01*
X6893Y11283D01*
X6820Y11340D01*
X6735Y11375D01*
X6693Y11380D01*
D02*
G37*
G36*
X4200Y15399D02*
X4097Y15385D01*
X4001Y15345D01*
X3918Y15282D01*
X3855Y15199D01*
X3815Y15103D01*
X3801Y15000D01*
X3815Y14897D01*
X3855Y14801D01*
X3918Y14718D01*
X4001Y14655D01*
X4097Y14615D01*
X4200Y14601D01*
X4303Y14615D01*
X4399Y14655D01*
X4482Y14718D01*
X4545Y14801D01*
X4585Y14897D01*
X4599Y15000D01*
X4585Y15103D01*
X4545Y15199D01*
X4482Y15282D01*
X4399Y15345D01*
X4303Y15385D01*
X4200Y15399D01*
D02*
G37*
G36*
X14489Y11380D02*
Y11084D01*
X14785D01*
X14780Y11125D01*
X14744Y11210D01*
X14688Y11283D01*
X14615Y11340D01*
X14530Y11375D01*
X14489Y11380D01*
D02*
G37*
G36*
X3200Y15399D02*
X3097Y15385D01*
X3001Y15345D01*
X2918Y15282D01*
X2855Y15199D01*
X2815Y15103D01*
X2801Y15000D01*
X2815Y14897D01*
X2855Y14801D01*
X2918Y14718D01*
X3001Y14655D01*
X3097Y14615D01*
X3200Y14601D01*
X3303Y14615D01*
X3399Y14655D01*
X3482Y14718D01*
X3545Y14801D01*
X3585Y14897D01*
X3599Y15000D01*
X3585Y15103D01*
X3545Y15199D01*
X3482Y15282D01*
X3399Y15345D01*
X3303Y15385D01*
X3200Y15399D01*
D02*
G37*
G36*
X5150Y14950D02*
X4808D01*
X4815Y14897D01*
X4855Y14801D01*
X4918Y14718D01*
X5001Y14655D01*
X5097Y14615D01*
X5150Y14608D01*
Y14950D01*
D02*
G37*
G36*
Y15392D02*
X5097Y15385D01*
X5001Y15345D01*
X4918Y15282D01*
X4855Y15199D01*
X4815Y15103D01*
X4808Y15050D01*
X5150D01*
Y15392D01*
D02*
G37*
G36*
X5250D02*
Y15050D01*
X5592D01*
X5585Y15103D01*
X5545Y15199D01*
X5482Y15282D01*
X5399Y15345D01*
X5303Y15385D01*
X5250Y15392D01*
D02*
G37*
G36*
X15730Y15333D02*
X15433D01*
Y15037D01*
X15475Y15042D01*
X15560Y15078D01*
X15633Y15134D01*
X15689Y15207D01*
X15724Y15292D01*
X15730Y15333D01*
D02*
G37*
G36*
X5592Y14950D02*
X5250D01*
Y14608D01*
X5303Y14615D01*
X5399Y14655D01*
X5482Y14718D01*
X5545Y14801D01*
X5585Y14897D01*
X5592Y14950D01*
D02*
G37*
G36*
X15333Y15333D02*
X15037D01*
X15042Y15292D01*
X15078Y15207D01*
X15134Y15134D01*
X15207Y15078D01*
X15292Y15042D01*
X15333Y15037D01*
Y15333D01*
D02*
G37*
%LPD*%
G36*
X14532Y5134D02*
Y4447D01*
X14487Y4432D01*
X14404Y4495D01*
X14308Y4535D01*
X14205Y4548D01*
X14102Y4535D01*
X14005Y4495D01*
X13923Y4432D01*
X13901Y4403D01*
X13854Y4419D01*
Y5000D01*
X13842Y5059D01*
X13809Y5108D01*
X13218Y5699D01*
X13169Y5732D01*
X13110Y5743D01*
X11161D01*
X11151Y5793D01*
X11161Y5797D01*
X11234Y5853D01*
X11290Y5926D01*
X11300Y5949D01*
X13716D01*
X14532Y5134D01*
D02*
G37*
G36*
X13548Y4937D02*
Y4430D01*
X13500Y4413D01*
X13487Y4432D01*
X13404Y4495D01*
X13308Y4535D01*
X13205Y4548D01*
X13102Y4535D01*
X13005Y4495D01*
X12923Y4432D01*
X12877Y4372D01*
X12830Y4388D01*
Y4646D01*
X12818Y4704D01*
X12785Y4754D01*
X12431Y5108D01*
X12381Y5141D01*
X12323Y5153D01*
X10315D01*
X10306Y5177D01*
X10266Y5229D01*
X10296Y5268D01*
X10342Y5250D01*
X10433Y5238D01*
X10524Y5250D01*
X10610Y5285D01*
X10683Y5341D01*
X10739Y5414D01*
X10749Y5438D01*
X13047D01*
X13548Y4937D01*
D02*
G37*
D15*
X2087Y11614D02*
X6299Y7402D01*
X2087Y11614D02*
Y15661D01*
X2425Y16000D01*
X3200D01*
X10000Y5000D02*
X12323D01*
X10433Y5591D02*
X13110D01*
X10984Y6102D02*
X13780D01*
X12677Y3677D02*
X13205Y3150D01*
X12677Y3677D02*
Y4646D01*
X12323Y5000D02*
X12677Y4646D01*
X14685Y3669D02*
X15205Y3150D01*
X14685Y3669D02*
Y5197D01*
X13780Y6102D02*
X14685Y5197D01*
X13701Y3654D02*
X14205Y3150D01*
X13701Y3654D02*
Y5000D01*
X13110Y5591D02*
X13701Y5000D01*
D17*
X3543Y3150D02*
D03*
X12205D02*
D03*
X14173Y16929D02*
D03*
X11417D02*
D03*
X5200Y16000D02*
D03*
D18*
X4543Y3150D02*
D03*
X5543D02*
D03*
X6543D02*
D03*
X7543D02*
D03*
X3543Y4150D02*
D03*
X4543D02*
D03*
X5543D02*
D03*
X6543D02*
D03*
X7543D02*
D03*
X13205Y3150D02*
D03*
X14205D02*
D03*
X15205D02*
D03*
X16205D02*
D03*
X12205Y4150D02*
D03*
X13205D02*
D03*
X14205D02*
D03*
X15205D02*
D03*
X16205D02*
D03*
X13173Y16929D02*
D03*
X10417D02*
D03*
X3200Y15000D02*
D03*
Y16000D02*
D03*
X4200Y15000D02*
D03*
Y16000D02*
D03*
X5200Y15000D02*
D03*
D19*
X18110Y18110D02*
D03*
Y1575D02*
D03*
X1575D02*
D03*
Y18110D02*
D03*
D20*
X15383Y15383D02*
D03*
X6299Y7402D02*
D03*
X10433Y5591D02*
D03*
X6643Y11034D02*
D03*
X14439D02*
D03*
X10000Y5000D02*
D03*
X10984Y6102D02*
D03*
M02*
