%FSLAX24Y24*%
%MOIN*%
G70*
G01*
G75*
G04 Layer_Color=8388736*
%ADD10R,0.0433X0.0394*%
%ADD11R,0.0394X0.0433*%
%ADD12R,0.0354X0.0276*%
%ADD13R,0.0276X0.0354*%
%ADD14O,0.0787X0.0236*%
%ADD15C,0.0100*%
%ADD16R,0.0100X0.0200*%
%ADD17R,0.0591X0.0591*%
%ADD18C,0.0591*%
%ADD19C,0.1969*%
%ADD20C,0.0500*%
%ADD21C,0.0098*%
%ADD22C,0.0236*%
%ADD23C,0.0079*%
%ADD24C,0.0039*%
%ADD25C,0.0090*%
%ADD26C,0.0080*%
%ADD27R,0.0513X0.0474*%
%ADD28R,0.0474X0.0513*%
%ADD29R,0.0434X0.0356*%
%ADD30R,0.0356X0.0434*%
%ADD31O,0.0867X0.0316*%
%ADD32R,0.0671X0.0671*%
%ADD33C,0.0671*%
%ADD34C,0.2049*%
%ADD35C,0.0580*%
D27*
X6643Y9972D02*
D03*
X5974D02*
D03*
D28*
X13170Y15383D02*
D03*
Y16053D02*
D03*
X14443Y9482D02*
D03*
Y10152D02*
D03*
X13787Y9482D02*
D03*
Y10152D02*
D03*
X7317Y14479D02*
D03*
Y13809D02*
D03*
D29*
X14675Y15383D02*
D03*
X14163D02*
D03*
D30*
X14443Y9561D02*
D03*
Y10073D02*
D03*
X7317Y15488D02*
D03*
Y16000D02*
D03*
D31*
X8137Y11982D02*
D03*
Y11482D02*
D03*
Y10982D02*
D03*
Y10482D02*
D03*
Y9982D02*
D03*
Y9482D02*
D03*
Y8982D02*
D03*
Y8482D02*
D03*
Y7982D02*
D03*
Y7482D02*
D03*
X11838Y11982D02*
D03*
Y11482D02*
D03*
Y10982D02*
D03*
Y10482D02*
D03*
Y9982D02*
D03*
Y9482D02*
D03*
Y8982D02*
D03*
Y8482D02*
D03*
Y7982D02*
D03*
Y7482D02*
D03*
D32*
X3543Y3150D02*
D03*
X12205D02*
D03*
X14173Y16929D02*
D03*
X11417D02*
D03*
X5200Y16000D02*
D03*
D33*
X4543Y3150D02*
D03*
X5543D02*
D03*
X6543D02*
D03*
X7543D02*
D03*
X3543Y4150D02*
D03*
X4543D02*
D03*
X5543D02*
D03*
X6543D02*
D03*
X7543D02*
D03*
X13205Y3150D02*
D03*
X14205D02*
D03*
X15205D02*
D03*
X16205D02*
D03*
X12205Y4150D02*
D03*
X13205D02*
D03*
X14205D02*
D03*
X15205D02*
D03*
X16205D02*
D03*
X13173Y16929D02*
D03*
X10417D02*
D03*
X3200Y15000D02*
D03*
Y16000D02*
D03*
X4200Y15000D02*
D03*
Y16000D02*
D03*
X5200Y15000D02*
D03*
D34*
X18110Y18110D02*
D03*
Y1575D02*
D03*
X1575D02*
D03*
Y18110D02*
D03*
D35*
X15383Y15383D02*
D03*
X6299Y7402D02*
D03*
X10433Y5591D02*
D03*
X6643Y11034D02*
D03*
X14439D02*
D03*
X10000Y5000D02*
D03*
X10984Y6102D02*
D03*
M02*
