M48
;Layer_Color=9474304
;FILE_FORMAT=2:4
INCH,LZ
;TYPE=PLATED
T1F00S00C0.0280
T2F00S00C0.0354
T3F00S00C0.1575
%
T01
X006299Y007402
X006643Y011034
X014439
X015383Y015383
X010984Y006102
X010433Y005591
X01Y005
T02
X003543Y00315
X004543
X005543
X006543
X007543
Y00415
X006543
X005543
X004543
X003543
X012205
Y00315
X013205
X014205
X015205
Y00415
X014205
X013205
X0052Y015
X0042
X0032
X016205Y00415
Y00315
X014173Y016929
X013173
X011417
X010417
X0052Y016
X0042
X0032
T03
X001575Y001575
X01811
Y01811
X001575
M30
