%FSLAX24Y24*%
%MOIN*%
G70*
G01*
G75*
G04 Layer_Physical_Order=1*
G04 Layer_Color=255*
%ADD10R,0.0433X0.0394*%
%ADD11R,0.0394X0.0433*%
%ADD12R,0.0354X0.0276*%
%ADD13R,0.0276X0.0354*%
%ADD14O,0.0787X0.0236*%
%ADD15C,0.0100*%
%ADD16R,0.0100X0.0200*%
%ADD17R,0.0591X0.0591*%
%ADD18C,0.0591*%
%ADD19C,0.1969*%
%ADD20C,0.0500*%
G36*
X19565Y120D02*
X120D01*
Y19565D01*
X19565D01*
Y120D01*
D02*
G37*
%LPC*%
G36*
X16255Y4542D02*
Y4200D01*
X16597D01*
X16590Y4253D01*
X16550Y4349D01*
X16487Y4432D01*
X16404Y4495D01*
X16308Y4535D01*
X16255Y4542D01*
D02*
G37*
G36*
X6299Y7755D02*
X6208Y7743D01*
X6123Y7707D01*
X6050Y7651D01*
X5993Y7578D01*
X5958Y7493D01*
X5946Y7402D01*
X5958Y7310D01*
X5993Y7225D01*
X6050Y7152D01*
X6123Y7096D01*
X6146Y7086D01*
Y6827D01*
X6158Y6768D01*
X6191Y6719D01*
X6390Y6519D01*
Y4514D01*
X6344Y4495D01*
X6261Y4432D01*
X6198Y4349D01*
X6158Y4253D01*
X6145Y4150D01*
X6158Y4046D01*
X6198Y3950D01*
X6261Y3868D01*
X6344Y3804D01*
X6440Y3765D01*
X6543Y3751D01*
X6646Y3765D01*
X6743Y3804D01*
X6825Y3868D01*
X6889Y3950D01*
X6928Y4046D01*
X6942Y4150D01*
X6928Y4253D01*
X6889Y4349D01*
X6825Y4432D01*
X6743Y4495D01*
X6696Y4514D01*
Y6519D01*
X7506Y7329D01*
X7701D01*
X7704Y7325D01*
X7776Y7277D01*
X7861Y7260D01*
X8413D01*
X8498Y7277D01*
X8570Y7325D01*
X8618Y7397D01*
X8635Y7482D01*
X8618Y7567D01*
X8570Y7640D01*
X8498Y7688D01*
X8413Y7705D01*
X7861D01*
X7776Y7688D01*
X7704Y7640D01*
X7701Y7635D01*
X7443D01*
X7384Y7624D01*
X7335Y7590D01*
X6543Y6799D01*
X6452Y6890D01*
Y7086D01*
X6476Y7096D01*
X6549Y7152D01*
X6605Y7225D01*
X6640Y7310D01*
X6652Y7402D01*
X6640Y7493D01*
X6605Y7578D01*
X6549Y7651D01*
X6476Y7707D01*
X6391Y7743D01*
X6299Y7755D01*
D02*
G37*
G36*
X8413Y8205D02*
X7861D01*
X7776Y8188D01*
X7704Y8140D01*
X7701Y8135D01*
X6014D01*
X5965Y8126D01*
X5955Y8124D01*
X5906Y8090D01*
X5435Y7620D01*
X5402Y7570D01*
X5390Y7512D01*
Y4514D01*
X5344Y4495D01*
X5261Y4432D01*
X5198Y4349D01*
X5158Y4253D01*
X5145Y4150D01*
X5158Y4046D01*
X5198Y3950D01*
X5261Y3868D01*
X5344Y3804D01*
X5440Y3765D01*
X5543Y3751D01*
X5646Y3765D01*
X5743Y3804D01*
X5825Y3868D01*
X5889Y3950D01*
X5928Y4046D01*
X5942Y4150D01*
X5928Y4253D01*
X5889Y4349D01*
X5825Y4432D01*
X5743Y4495D01*
X5696Y4514D01*
Y7448D01*
X6077Y7829D01*
X7701D01*
X7704Y7825D01*
X7776Y7777D01*
X7861Y7760D01*
X8413D01*
X8498Y7777D01*
X8570Y7825D01*
X8618Y7897D01*
X8635Y7982D01*
X8618Y8067D01*
X8570Y8140D01*
X8498Y8188D01*
X8413Y8205D01*
D02*
G37*
G36*
X7593Y4542D02*
Y4200D01*
X7935D01*
X7928Y4253D01*
X7889Y4349D01*
X7825Y4432D01*
X7743Y4495D01*
X7646Y4535D01*
X7593Y4542D01*
D02*
G37*
G36*
X7935Y4100D02*
X7593D01*
Y3758D01*
X7646Y3765D01*
X7743Y3804D01*
X7825Y3868D01*
X7889Y3950D01*
X7928Y4046D01*
X7935Y4100D01*
D02*
G37*
G36*
X16597D02*
X16255D01*
Y3758D01*
X16308Y3765D01*
X16404Y3804D01*
X16487Y3868D01*
X16550Y3950D01*
X16590Y4046D01*
X16597Y4100D01*
D02*
G37*
G36*
X7493Y4542D02*
X7440Y4535D01*
X7344Y4495D01*
X7261Y4432D01*
X7198Y4349D01*
X7158Y4253D01*
X7151Y4200D01*
X7493D01*
Y4542D01*
D02*
G37*
G36*
X8413Y9705D02*
X8187D01*
Y9532D01*
X8625D01*
X8618Y9567D01*
X8570Y9640D01*
X8498Y9688D01*
X8413Y9705D01*
D02*
G37*
G36*
X5924Y9922D02*
X5657D01*
Y9675D01*
X5924D01*
Y9922D01*
D02*
G37*
G36*
X11788Y9932D02*
X11350D01*
X11357Y9897D01*
X11405Y9825D01*
X11477Y9777D01*
X11562Y9760D01*
X11788D01*
Y9932D01*
D02*
G37*
G36*
X8087Y9705D02*
X7861D01*
X7776Y9688D01*
X7704Y9640D01*
X7656Y9567D01*
X7649Y9532D01*
X8087D01*
Y9705D01*
D02*
G37*
G36*
X12113Y9205D02*
X11562D01*
X11477Y9188D01*
X11405Y9140D01*
X11357Y9067D01*
X11340Y8982D01*
X11357Y8897D01*
X11405Y8825D01*
X11477Y8777D01*
X11562Y8760D01*
X12113D01*
X12198Y8777D01*
X12271Y8825D01*
X12274Y8829D01*
X12386D01*
X12534Y8681D01*
X12515Y8635D01*
X12274D01*
X12271Y8640D01*
X12198Y8688D01*
X12113Y8705D01*
X11562D01*
X11477Y8688D01*
X11405Y8640D01*
X11357Y8567D01*
X11340Y8482D01*
X11357Y8397D01*
X11405Y8325D01*
X11477Y8277D01*
X11562Y8260D01*
X12113D01*
X12198Y8277D01*
X12271Y8325D01*
X12274Y8329D01*
X12603D01*
X12751Y8181D01*
X12732Y8135D01*
X12274D01*
X12271Y8140D01*
X12198Y8188D01*
X12113Y8205D01*
X11562D01*
X11477Y8188D01*
X11405Y8140D01*
X11357Y8067D01*
X11340Y7982D01*
X11357Y7897D01*
X11405Y7825D01*
X11477Y7777D01*
X11562Y7760D01*
X12113D01*
X12198Y7777D01*
X12271Y7825D01*
X12274Y7829D01*
X12821D01*
X14052Y6598D01*
Y4514D01*
X14005Y4495D01*
X13923Y4432D01*
X13859Y4349D01*
X13820Y4253D01*
X13806Y4150D01*
X13820Y4046D01*
X13859Y3950D01*
X13923Y3868D01*
X14005Y3804D01*
X14102Y3765D01*
X14205Y3751D01*
X14308Y3765D01*
X14404Y3804D01*
X14487Y3868D01*
X14550Y3950D01*
X14590Y4046D01*
X14603Y4150D01*
X14590Y4253D01*
X14550Y4349D01*
X14487Y4432D01*
X14404Y4495D01*
X14358Y4514D01*
Y6510D01*
X14404Y6529D01*
X15052Y5881D01*
Y4514D01*
X15005Y4495D01*
X14923Y4432D01*
X14859Y4349D01*
X14820Y4253D01*
X14806Y4150D01*
X14820Y4046D01*
X14859Y3950D01*
X14923Y3868D01*
X15005Y3804D01*
X15102Y3765D01*
X15205Y3751D01*
X15308Y3765D01*
X15404Y3804D01*
X15487Y3868D01*
X15508Y3896D01*
X15556Y3880D01*
Y3646D01*
X15567Y3587D01*
X15601Y3538D01*
X15839Y3299D01*
X15820Y3253D01*
X15806Y3150D01*
X15820Y3046D01*
X15859Y2950D01*
X15923Y2868D01*
X16005Y2804D01*
X16102Y2765D01*
X16205Y2751D01*
X16308Y2765D01*
X16404Y2804D01*
X16487Y2868D01*
X16550Y2950D01*
X16590Y3046D01*
X16603Y3150D01*
X16590Y3253D01*
X16550Y3349D01*
X16487Y3432D01*
X16404Y3495D01*
X16308Y3535D01*
X16205Y3548D01*
X16102Y3535D01*
X16055Y3515D01*
X15862Y3709D01*
Y3870D01*
X15909Y3886D01*
X15923Y3868D01*
X16005Y3804D01*
X16102Y3765D01*
X16155Y3758D01*
Y4150D01*
Y4542D01*
X16102Y4535D01*
X16005Y4495D01*
X15923Y4432D01*
X15909Y4413D01*
X15862Y4430D01*
Y5723D01*
X15852Y5772D01*
X15850Y5782D01*
X15817Y5831D01*
X12558Y9090D01*
X12508Y9124D01*
X12450Y9135D01*
X12274D01*
X12271Y9140D01*
X12198Y9188D01*
X12113Y9205D01*
D02*
G37*
G36*
X8087Y9432D02*
X7649D01*
X7656Y9397D01*
X7704Y9325D01*
X7776Y9277D01*
X7861Y9260D01*
X8087D01*
Y9432D01*
D02*
G37*
G36*
X8625D02*
X8187D01*
Y9260D01*
X8413D01*
X8498Y9277D01*
X8570Y9325D01*
X8618Y9397D01*
X8625Y9432D01*
D02*
G37*
G36*
X1525Y2658D02*
X1405Y2649D01*
X1239Y2609D01*
X1081Y2544D01*
X936Y2455D01*
X806Y2344D01*
X695Y2214D01*
X606Y2069D01*
X540Y1911D01*
X501Y1745D01*
X491Y1625D01*
X1525D01*
Y2658D01*
D02*
G37*
G36*
X1625D02*
Y1625D01*
X2658D01*
X2649Y1745D01*
X2609Y1911D01*
X2544Y2069D01*
X2455Y2214D01*
X2344Y2344D01*
X2214Y2455D01*
X2069Y2544D01*
X1911Y2609D01*
X1745Y2649D01*
X1625Y2658D01*
D02*
G37*
G36*
X18060D02*
X17940Y2649D01*
X17774Y2609D01*
X17616Y2544D01*
X17471Y2455D01*
X17341Y2344D01*
X17230Y2214D01*
X17141Y2069D01*
X17076Y1911D01*
X17036Y1745D01*
X17027Y1625D01*
X18060D01*
Y2658D01*
D02*
G37*
G36*
X19194Y1525D02*
X18160D01*
Y491D01*
X18280Y501D01*
X18446Y540D01*
X18604Y606D01*
X18750Y695D01*
X18879Y806D01*
X18990Y936D01*
X19079Y1081D01*
X19145Y1239D01*
X19184Y1405D01*
X19194Y1525D01*
D02*
G37*
G36*
X1525D02*
X491D01*
X501Y1405D01*
X540Y1239D01*
X606Y1081D01*
X695Y936D01*
X806Y806D01*
X936Y695D01*
X1081Y606D01*
X1239Y540D01*
X1405Y501D01*
X1525Y491D01*
Y1525D01*
D02*
G37*
G36*
X2658D02*
X1625D01*
Y491D01*
X1745Y501D01*
X1911Y540D01*
X2069Y606D01*
X2214Y695D01*
X2344Y806D01*
X2455Y936D01*
X2544Y1081D01*
X2609Y1239D01*
X2649Y1405D01*
X2658Y1525D01*
D02*
G37*
G36*
X18060D02*
X17027D01*
X17036Y1405D01*
X17076Y1239D01*
X17141Y1081D01*
X17230Y936D01*
X17341Y806D01*
X17471Y695D01*
X17616Y606D01*
X17774Y540D01*
X17940Y501D01*
X18060Y491D01*
Y1525D01*
D02*
G37*
G36*
X12205Y4548D02*
X12102Y4535D01*
X12005Y4495D01*
X11923Y4432D01*
X11859Y4349D01*
X11820Y4253D01*
X11806Y4150D01*
X11820Y4046D01*
X11859Y3950D01*
X11923Y3868D01*
X12005Y3804D01*
X12102Y3765D01*
X12205Y3751D01*
X12308Y3765D01*
X12404Y3804D01*
X12487Y3868D01*
X12550Y3950D01*
X12590Y4046D01*
X12603Y4150D01*
X12590Y4253D01*
X12550Y4349D01*
X12487Y4432D01*
X12404Y4495D01*
X12308Y4535D01*
X12205Y4548D01*
D02*
G37*
G36*
X12113Y7705D02*
X11562D01*
X11477Y7688D01*
X11405Y7640D01*
X11357Y7567D01*
X11340Y7482D01*
X11357Y7397D01*
X11405Y7325D01*
X11477Y7277D01*
X11562Y7260D01*
X12113D01*
X12198Y7277D01*
X12271Y7325D01*
X12274Y7329D01*
X12415D01*
X13052Y6693D01*
Y4514D01*
X13005Y4495D01*
X12923Y4432D01*
X12859Y4349D01*
X12820Y4253D01*
X12806Y4150D01*
X12820Y4046D01*
X12859Y3950D01*
X12923Y3868D01*
X13005Y3804D01*
X13102Y3765D01*
X13205Y3751D01*
X13308Y3765D01*
X13404Y3804D01*
X13487Y3868D01*
X13550Y3950D01*
X13590Y4046D01*
X13603Y4150D01*
X13590Y4253D01*
X13550Y4349D01*
X13487Y4432D01*
X13404Y4495D01*
X13358Y4514D01*
Y6756D01*
X13346Y6814D01*
X13313Y6864D01*
X12586Y7590D01*
X12537Y7624D01*
X12478Y7635D01*
X12274D01*
X12271Y7640D01*
X12198Y7688D01*
X12113Y7705D01*
D02*
G37*
G36*
X7493Y4100D02*
X7151D01*
X7158Y4046D01*
X7198Y3950D01*
X7261Y3868D01*
X7344Y3804D01*
X7440Y3765D01*
X7493Y3758D01*
Y4100D01*
D02*
G37*
G36*
X15205Y3548D02*
X15102Y3535D01*
X15005Y3495D01*
X14923Y3432D01*
X14859Y3349D01*
X14820Y3253D01*
X14806Y3150D01*
X14820Y3046D01*
X14859Y2950D01*
X14923Y2868D01*
X15005Y2804D01*
X15102Y2765D01*
X15205Y2751D01*
X15308Y2765D01*
X15404Y2804D01*
X15487Y2868D01*
X15550Y2950D01*
X15590Y3046D01*
X15603Y3150D01*
X15590Y3253D01*
X15550Y3349D01*
X15487Y3432D01*
X15404Y3495D01*
X15308Y3535D01*
X15205Y3548D01*
D02*
G37*
G36*
X18160Y2658D02*
Y1625D01*
X19194D01*
X19184Y1745D01*
X19145Y1911D01*
X19079Y2069D01*
X18990Y2214D01*
X18879Y2344D01*
X18750Y2455D01*
X18604Y2544D01*
X18446Y2609D01*
X18280Y2649D01*
X18160Y2658D01*
D02*
G37*
G36*
X13205Y3548D02*
X13102Y3535D01*
X13005Y3495D01*
X12923Y3432D01*
X12859Y3349D01*
X12820Y3253D01*
X12806Y3150D01*
X12820Y3046D01*
X12859Y2950D01*
X12923Y2868D01*
X13005Y2804D01*
X13102Y2765D01*
X13205Y2751D01*
X13308Y2765D01*
X13404Y2804D01*
X13487Y2868D01*
X13550Y2950D01*
X13590Y3046D01*
X13603Y3150D01*
X13590Y3253D01*
X13550Y3349D01*
X13487Y3432D01*
X13404Y3495D01*
X13308Y3535D01*
X13205Y3548D01*
D02*
G37*
G36*
X14205D02*
X14102Y3535D01*
X14005Y3495D01*
X13923Y3432D01*
X13859Y3349D01*
X13820Y3253D01*
X13806Y3150D01*
X13820Y3046D01*
X13859Y2950D01*
X13923Y2868D01*
X14005Y2804D01*
X14102Y2765D01*
X14205Y2751D01*
X14308Y2765D01*
X14404Y2804D01*
X14487Y2868D01*
X14550Y2950D01*
X14590Y3046D01*
X14603Y3150D01*
X14590Y3253D01*
X14550Y3349D01*
X14487Y3432D01*
X14404Y3495D01*
X14308Y3535D01*
X14205Y3548D01*
D02*
G37*
G36*
X13123Y17321D02*
X13070Y17314D01*
X12974Y17274D01*
X12891Y17211D01*
X12828Y17128D01*
X12788Y17032D01*
X12781Y16979D01*
X13123D01*
Y17321D01*
D02*
G37*
G36*
X13223D02*
Y16979D01*
X13565D01*
X13558Y17032D01*
X13519Y17128D01*
X13455Y17211D01*
X13373Y17274D01*
X13276Y17314D01*
X13223Y17321D01*
D02*
G37*
G36*
X1525Y18060D02*
X491D01*
X501Y17940D01*
X540Y17774D01*
X606Y17616D01*
X695Y17471D01*
X806Y17341D01*
X936Y17230D01*
X1081Y17141D01*
X1239Y17076D01*
X1405Y17036D01*
X1525Y17027D01*
Y18060D01*
D02*
G37*
G36*
X10467Y17321D02*
Y16979D01*
X10809D01*
X10802Y17032D01*
X10763Y17128D01*
X10699Y17211D01*
X10617Y17274D01*
X10521Y17314D01*
X10467Y17321D01*
D02*
G37*
G36*
X10367Y16879D02*
X10025D01*
X10032Y16826D01*
X10072Y16730D01*
X10135Y16647D01*
X10218Y16584D01*
X10314Y16544D01*
X10367Y16537D01*
Y16879D01*
D02*
G37*
G36*
X10809D02*
X10467D01*
Y16537D01*
X10521Y16544D01*
X10617Y16584D01*
X10699Y16647D01*
X10763Y16730D01*
X10802Y16826D01*
X10809Y16879D01*
D02*
G37*
G36*
X10367Y17321D02*
X10314Y17314D01*
X10218Y17274D01*
X10135Y17211D01*
X10072Y17128D01*
X10032Y17032D01*
X10025Y16979D01*
X10367D01*
Y17321D01*
D02*
G37*
G36*
X1625Y19194D02*
Y18160D01*
X2658D01*
X2649Y18280D01*
X2609Y18446D01*
X2544Y18604D01*
X2455Y18750D01*
X2344Y18879D01*
X2214Y18990D01*
X2069Y19079D01*
X1911Y19145D01*
X1745Y19184D01*
X1625Y19194D01*
D02*
G37*
G36*
X18060D02*
X17940Y19184D01*
X17774Y19145D01*
X17616Y19079D01*
X17471Y18990D01*
X17341Y18879D01*
X17230Y18750D01*
X17141Y18604D01*
X17076Y18446D01*
X17036Y18280D01*
X17027Y18160D01*
X18060D01*
Y19194D01*
D02*
G37*
G36*
X18160D02*
Y18160D01*
X19194D01*
X19184Y18280D01*
X19145Y18446D01*
X19079Y18604D01*
X18990Y18750D01*
X18879Y18879D01*
X18750Y18990D01*
X18604Y19079D01*
X18446Y19145D01*
X18280Y19184D01*
X18160Y19194D01*
D02*
G37*
G36*
X1525D02*
X1405Y19184D01*
X1239Y19145D01*
X1081Y19079D01*
X936Y18990D01*
X806Y18879D01*
X695Y18750D01*
X606Y18604D01*
X540Y18446D01*
X501Y18280D01*
X491Y18160D01*
X1525D01*
Y19194D01*
D02*
G37*
G36*
X2658Y18060D02*
X1625D01*
Y17027D01*
X1745Y17036D01*
X1911Y17076D01*
X2069Y17141D01*
X2214Y17230D01*
X2344Y17341D01*
X2455Y17471D01*
X2544Y17616D01*
X2609Y17774D01*
X2649Y17940D01*
X2658Y18060D01*
D02*
G37*
G36*
X18060D02*
X17027D01*
X17036Y17940D01*
X17076Y17774D01*
X17141Y17616D01*
X17230Y17471D01*
X17341Y17341D01*
X17471Y17230D01*
X17616Y17141D01*
X17774Y17076D01*
X17940Y17036D01*
X18060Y17027D01*
Y18060D01*
D02*
G37*
G36*
X19194D02*
X18160D01*
Y17027D01*
X18280Y17036D01*
X18446Y17076D01*
X18604Y17141D01*
X18750Y17230D01*
X18879Y17341D01*
X18990Y17471D01*
X19079Y17616D01*
X19145Y17774D01*
X19184Y17940D01*
X19194Y18060D01*
D02*
G37*
G36*
X11813Y17324D02*
X11022D01*
Y16534D01*
X11813D01*
Y17324D01*
D02*
G37*
G36*
X4200Y15399D02*
X4097Y15385D01*
X4001Y15345D01*
X3918Y15282D01*
X3855Y15199D01*
X3815Y15103D01*
X3801Y15000D01*
X3815Y14897D01*
X3855Y14801D01*
X3918Y14718D01*
X4001Y14655D01*
X4047Y14636D01*
Y12481D01*
X4047Y12481D01*
X4047D01*
X4059Y12423D01*
X4092Y12373D01*
X4483Y11982D01*
X2254Y9754D01*
X2221Y9704D01*
X2209Y9646D01*
Y3661D01*
X2209Y3661D01*
X2209D01*
X2221Y3603D01*
X2254Y3553D01*
X2766Y3041D01*
X2815Y3008D01*
X2874Y2997D01*
X3148D01*
Y2754D01*
X3939D01*
Y3545D01*
X3148D01*
Y3303D01*
X2937D01*
X2515Y3725D01*
Y9582D01*
X4762Y11829D01*
X7701D01*
X7704Y11825D01*
X7776Y11777D01*
X7861Y11760D01*
X8413D01*
X8498Y11777D01*
X8570Y11825D01*
X8618Y11897D01*
X8635Y11982D01*
X8618Y12067D01*
X8570Y12140D01*
X8498Y12188D01*
X8413Y12205D01*
X7861D01*
X7776Y12188D01*
X7704Y12140D01*
X7701Y12135D01*
X4762D01*
X4353Y12544D01*
Y14636D01*
X4399Y14655D01*
X4482Y14718D01*
X4545Y14801D01*
X4585Y14897D01*
X4599Y15000D01*
X4585Y15103D01*
X4545Y15199D01*
X4482Y15282D01*
X4399Y15345D01*
X4303Y15385D01*
X4200Y15399D01*
D02*
G37*
G36*
X7267Y13759D02*
X7020D01*
Y13493D01*
X7267D01*
Y13759D01*
D02*
G37*
G36*
X7614D02*
X7367D01*
Y13493D01*
X7614D01*
Y13759D01*
D02*
G37*
G36*
X14084Y10468D02*
X13837D01*
Y10202D01*
X14084D01*
Y10468D01*
D02*
G37*
G36*
X14439Y11387D02*
X14347Y11375D01*
X14262Y11340D01*
X14189Y11283D01*
X14133Y11210D01*
X14098Y11125D01*
X14086Y11034D01*
X14098Y10942D01*
X14133Y10857D01*
X14189Y10784D01*
X14262Y10728D01*
X14286Y10718D01*
Y10468D01*
X14146D01*
Y9835D01*
X14146Y9835D01*
X14146Y9799D01*
X14146D01*
Y9635D01*
X14084D01*
Y9799D01*
D01*
Y9799D01*
X14084Y9799D01*
Y9835D01*
X14084D01*
Y10102D01*
X13787D01*
Y10151D01*
X13737D01*
Y10468D01*
X13491D01*
Y10305D01*
X13301D01*
X13243Y10293D01*
X13193Y10260D01*
X13069Y10135D01*
X12274D01*
X12271Y10140D01*
X12198Y10188D01*
X12113Y10205D01*
X11888D01*
Y9982D01*
Y9760D01*
X12113D01*
X12198Y9777D01*
X12271Y9825D01*
X12274Y9829D01*
X13132D01*
X13190Y9841D01*
X13240Y9874D01*
X13365Y9999D01*
X13491D01*
Y9835D01*
X13491Y9835D01*
X13491Y9799D01*
X13491D01*
Y9635D01*
X12274D01*
X12271Y9640D01*
X12198Y9688D01*
X12113Y9705D01*
X11562D01*
X11477Y9688D01*
X11405Y9640D01*
X11357Y9567D01*
X11340Y9482D01*
X11357Y9397D01*
X11405Y9325D01*
X11477Y9277D01*
X11562Y9260D01*
X12113D01*
X12198Y9277D01*
X12271Y9325D01*
X12274Y9329D01*
X13491D01*
Y9166D01*
X14084D01*
Y9329D01*
X14146D01*
Y9166D01*
X14740D01*
Y9799D01*
D01*
Y9799D01*
X14740Y9799D01*
Y9835D01*
X14740D01*
Y10468D01*
X14592D01*
Y10718D01*
X14615Y10728D01*
X14688Y10784D01*
X14744Y10857D01*
X14780Y10942D01*
X14792Y11034D01*
X14780Y11125D01*
X14744Y11210D01*
X14688Y11283D01*
X14615Y11340D01*
X14530Y11375D01*
X14439Y11387D01*
D02*
G37*
G36*
X5924Y10268D02*
X5657D01*
Y10022D01*
X5924D01*
Y10268D01*
D02*
G37*
G36*
X11788Y10205D02*
X11562D01*
X11477Y10188D01*
X11405Y10140D01*
X11357Y10067D01*
X11350Y10032D01*
X11788D01*
Y10205D01*
D02*
G37*
G36*
X3250Y15392D02*
Y15050D01*
X3592D01*
X3585Y15103D01*
X3545Y15199D01*
X3482Y15282D01*
X3399Y15345D01*
X3303Y15385D01*
X3250Y15392D01*
D02*
G37*
G36*
X14569Y17324D02*
X13778D01*
Y16534D01*
X14010D01*
Y15621D01*
X13886D01*
Y15536D01*
X13467D01*
Y15700D01*
D01*
Y15700D01*
X13467Y15700D01*
Y15736D01*
X13467D01*
Y16003D01*
X12873D01*
Y15736D01*
X12873Y15736D01*
X12873Y15700D01*
X12873D01*
Y15536D01*
X9222D01*
X7729Y17029D01*
X7679Y17063D01*
X7621Y17074D01*
X4121D01*
X4072Y17064D01*
X4063Y17063D01*
X4013Y17029D01*
X3350Y16366D01*
X3303Y16385D01*
X3200Y16399D01*
X3097Y16385D01*
X3001Y16345D01*
X2918Y16282D01*
X2855Y16199D01*
X2815Y16103D01*
X2801Y16000D01*
X2815Y15897D01*
X2855Y15801D01*
X2918Y15718D01*
X3001Y15655D01*
X3097Y15615D01*
X3200Y15601D01*
X3303Y15615D01*
X3399Y15655D01*
X3482Y15718D01*
X3545Y15801D01*
X3585Y15897D01*
X3599Y16000D01*
X3585Y16103D01*
X3566Y16150D01*
X4166Y16750D01*
X4215Y16740D01*
X4222Y16722D01*
X4092Y16592D01*
X4059Y16542D01*
X4047Y16483D01*
Y16364D01*
X4001Y16345D01*
X3918Y16282D01*
X3855Y16199D01*
X3815Y16103D01*
X3801Y16000D01*
X3815Y15897D01*
X3855Y15801D01*
X3918Y15718D01*
X4001Y15655D01*
X4097Y15615D01*
X4200Y15601D01*
X4303Y15615D01*
X4399Y15655D01*
X4482Y15718D01*
X4545Y15801D01*
X4585Y15897D01*
X4599Y16000D01*
X4585Y16103D01*
X4545Y16199D01*
X4482Y16282D01*
X4399Y16345D01*
X4353Y16364D01*
Y16420D01*
X4501Y16568D01*
X7475D01*
X7844Y16199D01*
X7825Y16153D01*
X7555D01*
Y16277D01*
X7080D01*
Y16153D01*
X5595D01*
Y16395D01*
X4805D01*
Y15605D01*
X5595D01*
Y15847D01*
X7080D01*
Y15723D01*
Y15211D01*
X7164D01*
Y14795D01*
X7020D01*
Y14162D01*
X7020Y14162D01*
X7020Y14126D01*
X7020D01*
Y13859D01*
X7614D01*
Y14126D01*
D01*
Y14126D01*
X7614Y14126D01*
Y14162D01*
X7614D01*
Y14795D01*
X7470D01*
Y15211D01*
X7555D01*
Y15723D01*
Y15847D01*
X7913D01*
X9650Y14110D01*
Y12229D01*
X9057Y11635D01*
X8573D01*
X8570Y11640D01*
X8498Y11688D01*
X8413Y11705D01*
X7861D01*
X7776Y11688D01*
X7704Y11640D01*
X7701Y11635D01*
X5222D01*
X5164Y11624D01*
X5114Y11590D01*
X3990Y10466D01*
X3957Y10416D01*
X3945Y10358D01*
Y4341D01*
X3896Y4331D01*
X3889Y4349D01*
X3825Y4432D01*
X3743Y4495D01*
X3646Y4535D01*
X3543Y4548D01*
X3440Y4535D01*
X3344Y4495D01*
X3261Y4432D01*
X3198Y4349D01*
X3158Y4253D01*
X3145Y4150D01*
X3158Y4046D01*
X3198Y3950D01*
X3261Y3868D01*
X3344Y3804D01*
X3440Y3765D01*
X3543Y3751D01*
X3646Y3765D01*
X3743Y3804D01*
X3825Y3868D01*
X3889Y3950D01*
X3895Y3965D01*
X3922D01*
X3946Y3963D01*
X3957Y3907D01*
X3990Y3857D01*
X4322Y3525D01*
X4318Y3475D01*
X4261Y3432D01*
X4198Y3349D01*
X4158Y3253D01*
X4145Y3150D01*
X4158Y3046D01*
X4198Y2950D01*
X4261Y2868D01*
X4344Y2804D01*
X4440Y2765D01*
X4543Y2751D01*
X4646Y2765D01*
X4743Y2804D01*
X4825Y2868D01*
X4889Y2950D01*
X4928Y3046D01*
X4942Y3150D01*
X4928Y3253D01*
X4889Y3349D01*
X4825Y3432D01*
X4743Y3495D01*
X4696Y3514D01*
Y3520D01*
X4685Y3578D01*
X4651Y3628D01*
X4538Y3741D01*
X4543Y3751D01*
X4646Y3765D01*
X4743Y3804D01*
X4825Y3868D01*
X4889Y3950D01*
X4928Y4046D01*
X4942Y4150D01*
X4928Y4253D01*
X4889Y4349D01*
X4825Y4432D01*
X4743Y4495D01*
X4696Y4514D01*
Y7078D01*
X5947Y8329D01*
X7701D01*
X7704Y8325D01*
X7776Y8277D01*
X7861Y8260D01*
X8413D01*
X8498Y8277D01*
X8570Y8325D01*
X8618Y8397D01*
X8635Y8482D01*
X8618Y8567D01*
X8570Y8640D01*
X8498Y8688D01*
X8413Y8705D01*
X7861D01*
X7776Y8688D01*
X7704Y8640D01*
X7701Y8635D01*
X5884D01*
X5825Y8624D01*
X5776Y8590D01*
X4435Y7250D01*
X4402Y7200D01*
X4390Y7142D01*
Y4514D01*
X4344Y4495D01*
X4296Y4458D01*
X4251Y4480D01*
Y10295D01*
X5286Y11329D01*
X6378D01*
X6394Y11283D01*
X6338Y11210D01*
X6302Y11125D01*
X6290Y11034D01*
X6302Y10942D01*
X6338Y10857D01*
X6394Y10784D01*
X6467Y10728D01*
X6490Y10718D01*
Y10268D01*
X6327D01*
D01*
D01*
X6327Y10268D01*
X6291D01*
Y10268D01*
X6024D01*
Y9972D01*
Y9675D01*
X6291D01*
Y9675D01*
X6291D01*
X6291Y9675D01*
X6327D01*
Y9675D01*
X6960D01*
Y9819D01*
X7714D01*
X7776Y9777D01*
X7861Y9760D01*
X8413D01*
X8498Y9777D01*
X8570Y9825D01*
X8618Y9897D01*
X8635Y9982D01*
X8618Y10067D01*
X8570Y10140D01*
X8498Y10188D01*
X8413Y10205D01*
X7861D01*
X7776Y10188D01*
X7704Y10140D01*
X7694Y10125D01*
X6960D01*
Y10268D01*
X6796D01*
Y10718D01*
X6820Y10728D01*
X6893Y10784D01*
X6949Y10857D01*
X6984Y10942D01*
X6996Y11034D01*
X6984Y11125D01*
X6949Y11210D01*
X6893Y11283D01*
X6909Y11329D01*
X7701D01*
X7704Y11325D01*
X7776Y11277D01*
X7861Y11260D01*
X8413D01*
X8498Y11277D01*
X8570Y11325D01*
X8573Y11329D01*
X9120D01*
X9179Y11341D01*
X9228Y11374D01*
X9804Y11950D01*
X9850Y11931D01*
Y11598D01*
X9387Y11135D01*
X8573D01*
X8570Y11140D01*
X8498Y11188D01*
X8413Y11205D01*
X7861D01*
X7776Y11188D01*
X7704Y11140D01*
X7656Y11067D01*
X7639Y10982D01*
X7656Y10897D01*
X7704Y10825D01*
X7776Y10777D01*
X7861Y10760D01*
X8413D01*
X8498Y10777D01*
X8570Y10825D01*
X8573Y10829D01*
X9387D01*
X9777Y10439D01*
Y10189D01*
X9731Y10170D01*
X9311Y10590D01*
X9261Y10624D01*
X9203Y10635D01*
X8573D01*
X8570Y10640D01*
X8498Y10688D01*
X8413Y10705D01*
X7861D01*
X7776Y10688D01*
X7704Y10640D01*
X7656Y10567D01*
X7639Y10482D01*
X7656Y10397D01*
X7704Y10325D01*
X7776Y10277D01*
X7861Y10260D01*
X8413D01*
X8498Y10277D01*
X8570Y10325D01*
X8573Y10329D01*
X9139D01*
X9577Y9891D01*
Y8618D01*
X9531Y8598D01*
X9039Y9090D01*
X8990Y9124D01*
X8931Y9135D01*
X8573D01*
X8570Y9140D01*
X8498Y9188D01*
X8413Y9205D01*
X7861D01*
X7776Y9188D01*
X7704Y9140D01*
X7656Y9067D01*
X7639Y8982D01*
X7656Y8897D01*
X7704Y8825D01*
X7776Y8777D01*
X7861Y8760D01*
X8413D01*
X8498Y8777D01*
X8570Y8825D01*
X8573Y8829D01*
X8868D01*
X9377Y8320D01*
Y6759D01*
X8819Y6201D01*
X8786Y6151D01*
X8775Y6093D01*
Y3833D01*
X8244Y3303D01*
X7908D01*
X7889Y3349D01*
X7825Y3432D01*
X7743Y3495D01*
X7646Y3535D01*
X7543Y3548D01*
X7440Y3535D01*
X7344Y3495D01*
X7261Y3432D01*
X7198Y3349D01*
X7158Y3253D01*
X7145Y3150D01*
X7158Y3046D01*
X7198Y2950D01*
X7261Y2868D01*
X7344Y2804D01*
X7440Y2765D01*
X7543Y2751D01*
X7646Y2765D01*
X7743Y2804D01*
X7825Y2868D01*
X7889Y2950D01*
X7908Y2997D01*
X8307D01*
X8366Y3008D01*
X8415Y3041D01*
X8415Y3041D01*
X8415Y3041D01*
X8928Y3555D01*
X8975Y3536D01*
Y3175D01*
X8240Y2440D01*
X6911D01*
X6696Y2654D01*
Y2785D01*
X6743Y2804D01*
X6825Y2868D01*
X6889Y2950D01*
X6928Y3046D01*
X6942Y3150D01*
X6928Y3253D01*
X6889Y3349D01*
X6825Y3432D01*
X6743Y3495D01*
X6646Y3535D01*
X6543Y3548D01*
X6440Y3535D01*
X6344Y3495D01*
X6261Y3432D01*
X6198Y3349D01*
X6158Y3253D01*
X6145Y3150D01*
X6158Y3046D01*
X6198Y2950D01*
X6261Y2868D01*
X6344Y2804D01*
X6390Y2785D01*
Y2591D01*
X6390Y2591D01*
X6390D01*
X6402Y2532D01*
X6435Y2482D01*
X6632Y2286D01*
X6613Y2240D01*
X6048D01*
X5696Y2591D01*
Y2785D01*
X5743Y2804D01*
X5825Y2868D01*
X5889Y2950D01*
X5928Y3046D01*
X5942Y3150D01*
X5928Y3253D01*
X5889Y3349D01*
X5825Y3432D01*
X5743Y3495D01*
X5646Y3535D01*
X5543Y3548D01*
X5440Y3535D01*
X5344Y3495D01*
X5261Y3432D01*
X5198Y3349D01*
X5158Y3253D01*
X5145Y3150D01*
X5158Y3046D01*
X5198Y2950D01*
X5261Y2868D01*
X5344Y2804D01*
X5390Y2785D01*
Y2528D01*
X5390Y2528D01*
X5390D01*
X5402Y2469D01*
X5435Y2419D01*
X5876Y1978D01*
X5926Y1945D01*
X5935Y1943D01*
X5984Y1934D01*
X8386D01*
X8444Y1945D01*
X8494Y1978D01*
X9436Y2920D01*
X9469Y2970D01*
X9481Y3028D01*
Y4088D01*
X9527Y4107D01*
X10593Y3041D01*
X10642Y3008D01*
X10701Y2997D01*
X11809D01*
Y2754D01*
X12600D01*
Y3545D01*
X11809D01*
Y3303D01*
X10764D01*
X9681Y4386D01*
Y4764D01*
X9728Y4780D01*
X9750Y4750D01*
X9823Y4694D01*
X9909Y4659D01*
X10000Y4647D01*
X10091Y4659D01*
X10177Y4694D01*
X10250Y4750D01*
X10306Y4823D01*
X10341Y4909D01*
X10353Y5000D01*
X10341Y5091D01*
X10306Y5177D01*
X10266Y5229D01*
X10296Y5268D01*
X10342Y5250D01*
X10433Y5238D01*
X10524Y5250D01*
X10610Y5285D01*
X10683Y5341D01*
X10739Y5414D01*
X10774Y5499D01*
X10786Y5591D01*
X10774Y5682D01*
X10739Y5767D01*
X10701Y5816D01*
X10704Y5818D01*
D01*
X10737Y5851D01*
X10808Y5797D01*
X10893Y5761D01*
X10984Y5749D01*
X11076Y5761D01*
X11161Y5797D01*
X11234Y5853D01*
X11290Y5926D01*
X11325Y6011D01*
X11337Y6102D01*
X11325Y6194D01*
X11290Y6279D01*
X11234Y6352D01*
X11161Y6408D01*
X11137Y6418D01*
Y10212D01*
X11254Y10329D01*
X11402D01*
X11405Y10325D01*
X11477Y10277D01*
X11562Y10260D01*
X12113D01*
X12198Y10277D01*
X12271Y10325D01*
X12319Y10397D01*
X12336Y10482D01*
X12319Y10567D01*
X12271Y10640D01*
X12198Y10688D01*
X12113Y10705D01*
X11562D01*
X11477Y10688D01*
X11405Y10640D01*
X11402Y10635D01*
X11191D01*
X11132Y10624D01*
X11083Y10590D01*
X10983Y10491D01*
X10937Y10510D01*
Y10760D01*
X11006Y10829D01*
X11402D01*
X11405Y10825D01*
X11477Y10777D01*
X11562Y10760D01*
X12113D01*
X12198Y10777D01*
X12271Y10825D01*
X12319Y10897D01*
X12336Y10982D01*
X12319Y11067D01*
X12271Y11140D01*
X12198Y11188D01*
X12113Y11205D01*
X11562D01*
X11477Y11188D01*
X11405Y11140D01*
X11402Y11135D01*
X10943D01*
X10935Y11134D01*
X10911Y11178D01*
X11063Y11329D01*
X11402D01*
X11405Y11325D01*
X11477Y11277D01*
X11562Y11260D01*
X12113D01*
X12198Y11277D01*
X12271Y11325D01*
X12319Y11397D01*
X12336Y11482D01*
X12319Y11567D01*
X12271Y11640D01*
X12198Y11688D01*
X12113Y11705D01*
X11562D01*
X11477Y11688D01*
X11405Y11640D01*
X11402Y11635D01*
X11051D01*
X11032Y11681D01*
X11179Y11829D01*
X11402D01*
X11405Y11825D01*
X11477Y11777D01*
X11562Y11760D01*
X12113D01*
X12198Y11777D01*
X12271Y11825D01*
X12319Y11897D01*
X12336Y11982D01*
X12319Y12067D01*
X12271Y12140D01*
X12198Y12188D01*
X12113Y12205D01*
X11562D01*
X11477Y12188D01*
X11405Y12140D01*
X11402Y12135D01*
X11116D01*
X11058Y12124D01*
X11008Y12090D01*
X10250Y11332D01*
X10217Y11283D01*
X10205Y11224D01*
Y6734D01*
X10130Y6659D01*
X10083Y6678D01*
Y10503D01*
X10072Y10561D01*
X10039Y10611D01*
X9667Y10982D01*
X10111Y11427D01*
X10144Y11476D01*
X10146Y11486D01*
X10156Y11535D01*
Y14256D01*
X10144Y14315D01*
X10111Y14364D01*
X9291Y15184D01*
X9310Y15231D01*
X12873D01*
Y15067D01*
X13467D01*
Y15231D01*
X13886D01*
Y15146D01*
X14952D01*
Y15231D01*
X15068D01*
X15078Y15207D01*
X15134Y15134D01*
X15207Y15078D01*
X15292Y15042D01*
X15383Y15030D01*
X15475Y15042D01*
X15560Y15078D01*
X15633Y15134D01*
X15689Y15207D01*
X15724Y15292D01*
X15736Y15383D01*
X15724Y15475D01*
X15689Y15560D01*
X15633Y15633D01*
X15560Y15689D01*
X15475Y15724D01*
X15383Y15736D01*
X15292Y15724D01*
X15207Y15689D01*
X15134Y15633D01*
X15078Y15560D01*
X15068Y15536D01*
X14952D01*
Y15621D01*
X14316D01*
Y16534D01*
X14569D01*
Y17324D01*
D02*
G37*
G36*
X13565Y16879D02*
X12781D01*
X12788Y16826D01*
X12828Y16730D01*
X12891Y16647D01*
X12974Y16584D01*
X13017Y16566D01*
Y16369D01*
X12873D01*
Y16103D01*
X13467D01*
Y16369D01*
X13323D01*
Y16563D01*
X13373Y16584D01*
X13455Y16647D01*
X13519Y16730D01*
X13558Y16826D01*
X13565Y16879D01*
D02*
G37*
G36*
X3150Y15392D02*
X3097Y15385D01*
X3001Y15345D01*
X2918Y15282D01*
X2855Y15199D01*
X2815Y15103D01*
X2808Y15050D01*
X3150D01*
Y15392D01*
D02*
G37*
G36*
X5200Y15399D02*
X5097Y15385D01*
X5001Y15345D01*
X4918Y15282D01*
X4855Y15199D01*
X4815Y15103D01*
X4801Y15000D01*
X4815Y14897D01*
X4855Y14801D01*
X4918Y14718D01*
X5001Y14655D01*
X5097Y14615D01*
X5200Y14601D01*
X5303Y14615D01*
X5399Y14655D01*
X5482Y14718D01*
X5545Y14801D01*
X5585Y14897D01*
X5599Y15000D01*
X5585Y15103D01*
X5545Y15199D01*
X5482Y15282D01*
X5399Y15345D01*
X5303Y15385D01*
X5200Y15399D01*
D02*
G37*
G36*
X3150Y14950D02*
X2808D01*
X2815Y14897D01*
X2855Y14801D01*
X2918Y14718D01*
X3001Y14655D01*
X3097Y14615D01*
X3150Y14608D01*
Y14950D01*
D02*
G37*
G36*
X3592D02*
X3250D01*
Y14608D01*
X3303Y14615D01*
X3399Y14655D01*
X3482Y14718D01*
X3545Y14801D01*
X3585Y14897D01*
X3592Y14950D01*
D02*
G37*
%LPD*%
D10*
X6643Y9972D02*
D03*
X5974D02*
D03*
D11*
X13170Y15383D02*
D03*
Y16053D02*
D03*
X14443Y9482D02*
D03*
Y10152D02*
D03*
X13787Y9482D02*
D03*
Y10152D02*
D03*
X7317Y14479D02*
D03*
Y13809D02*
D03*
D12*
X14675Y15383D02*
D03*
X14163D02*
D03*
D13*
X14443Y9561D02*
D03*
Y10073D02*
D03*
X7317Y15488D02*
D03*
Y16000D02*
D03*
D14*
X8137Y11982D02*
D03*
Y11482D02*
D03*
Y10982D02*
D03*
Y10482D02*
D03*
Y9982D02*
D03*
Y9482D02*
D03*
Y8982D02*
D03*
Y8482D02*
D03*
Y7982D02*
D03*
Y7482D02*
D03*
X11838Y11982D02*
D03*
Y11482D02*
D03*
Y10982D02*
D03*
Y10482D02*
D03*
Y9982D02*
D03*
Y9482D02*
D03*
Y8982D02*
D03*
Y8482D02*
D03*
Y7982D02*
D03*
Y7482D02*
D03*
D15*
X14163Y15383D02*
Y16929D01*
X10394Y5630D02*
X10433Y5669D01*
X10354Y5591D02*
X10394Y5630D01*
X13787Y9482D02*
X14443D01*
X13170Y16053D02*
Y16929D01*
X11838Y8982D02*
X12450D01*
X11838Y8482D02*
X12667D01*
X15205Y5944D01*
X11838Y7982D02*
X12884D01*
X4438Y16721D02*
X7538D01*
X4200Y16483D02*
X4438Y16721D01*
X4200Y16000D02*
Y16483D01*
X7538Y16721D02*
X10003Y14256D01*
X9451Y10982D02*
X10003Y11535D01*
Y14256D01*
X7976Y16000D02*
X9803Y14173D01*
Y12165D02*
Y14173D01*
X9120Y11482D02*
X9803Y12165D01*
X4121Y16921D02*
X7621D01*
X9159Y15383D01*
X13170D01*
X14675D02*
X15383D01*
X3200Y16000D02*
X4121Y16921D01*
X6299Y6827D02*
X6543Y6583D01*
X6299Y6827D02*
Y7402D01*
X7443Y7482D02*
X8137D01*
X6543Y6583D02*
X7443Y7482D01*
X6543Y4150D02*
Y6583D01*
X6014Y7982D02*
X8137D01*
X5543Y7512D02*
X6014Y7982D01*
X5543Y4150D02*
Y7512D01*
X5884Y8482D02*
X8137D01*
X4543Y7142D02*
X5884Y8482D01*
X4543Y4150D02*
Y7142D01*
X8137Y11482D02*
X9120D01*
X4200Y12481D02*
Y15000D01*
Y12481D02*
X4699Y11982D01*
X5984Y2087D02*
X8386D01*
X5543Y2528D02*
X5984Y2087D01*
X5543Y2528D02*
Y3150D01*
X6847Y2287D02*
X8303D01*
X6543Y2591D02*
X6847Y2287D01*
X6543Y2591D02*
Y3150D01*
X8928Y6093D02*
X9530Y6696D01*
X8137Y8982D02*
X8931D01*
X9530Y8383D01*
Y6696D02*
Y8383D01*
X8928Y3770D02*
Y6093D01*
X8307Y3150D02*
X8928Y3770D01*
X7543Y3150D02*
X8307D01*
X8303Y2287D02*
X9128Y3111D01*
Y6006D01*
X9730Y6609D01*
Y9955D01*
X9203Y10482D02*
X9730Y9955D01*
X8137Y10482D02*
X9203D01*
X8137Y10982D02*
X9451D01*
X9930Y10503D01*
Y6526D02*
Y10503D01*
X9328Y5923D02*
X9930Y6526D01*
X9328Y3028D02*
Y5923D01*
X8386Y2087D02*
X9328Y3028D01*
X10358Y11224D02*
X11116Y11982D01*
X9528Y4323D02*
Y5841D01*
X10358Y6671D01*
Y11224D01*
X9528Y4323D02*
X10701Y3150D01*
X10000Y5967D02*
X10584Y6551D01*
X10433Y6117D02*
X10784Y6468D01*
X10433Y5669D02*
Y6117D01*
X10354Y5591D02*
X10433D01*
X10000Y5000D02*
Y5967D01*
X10584Y11067D02*
X11000Y11482D01*
X10584Y6551D02*
Y11067D01*
X10784Y10824D02*
X10943Y10982D01*
X10784Y6468D02*
Y10824D01*
X4098Y3965D02*
Y10358D01*
X5222Y11482D02*
X8137D01*
X4098Y10358D02*
X5222Y11482D01*
X4098Y3965D02*
X4543Y3520D01*
Y3150D02*
Y3520D01*
X2874Y3150D02*
X3543D01*
X2362Y3661D02*
X2874Y3150D01*
X2362Y3661D02*
Y9646D01*
X4699Y11982D01*
X8137D01*
X11838Y7482D02*
X12478D01*
X6643Y9972D02*
X8008D01*
X11838Y9482D02*
X13787D01*
X11838Y9982D02*
X13132D01*
X13301Y10152D01*
X13787D01*
X14443Y10073D02*
Y10152D01*
X6643Y9972D02*
Y11034D01*
X14439Y10277D02*
Y11034D01*
X11116Y11982D02*
X11838D01*
X11000Y11482D02*
X11838D01*
X10943Y10982D02*
X11838D01*
X11191Y10482D02*
X11838D01*
X10984Y10276D02*
X11191Y10482D01*
X10984Y6102D02*
Y10276D01*
X13170Y15383D02*
X14163D01*
X7317Y14479D02*
Y15488D01*
X5200Y16000D02*
X7317D01*
X7976D01*
X10701Y3150D02*
X12205D01*
X15205Y4150D02*
Y5944D01*
X12478Y7482D02*
X13205Y6756D01*
Y4213D02*
Y6756D01*
X12884Y7982D02*
X14205Y6661D01*
Y4220D02*
Y6661D01*
X15709Y3646D02*
X16205Y3150D01*
X15709Y3646D02*
Y5723D01*
X12450Y8982D02*
X15709Y5723D01*
D16*
X14443Y9817D02*
D03*
D17*
X3543Y3150D02*
D03*
X12205D02*
D03*
X14173Y16929D02*
D03*
X11417D02*
D03*
X5200Y16000D02*
D03*
D18*
X4543Y3150D02*
D03*
X5543D02*
D03*
X6543D02*
D03*
X7543D02*
D03*
X3543Y4150D02*
D03*
X4543D02*
D03*
X5543D02*
D03*
X6543D02*
D03*
X7543D02*
D03*
X13205Y3150D02*
D03*
X14205D02*
D03*
X15205D02*
D03*
X16205D02*
D03*
X12205Y4150D02*
D03*
X13205D02*
D03*
X14205D02*
D03*
X15205D02*
D03*
X16205D02*
D03*
X13173Y16929D02*
D03*
X10417D02*
D03*
X3200Y15000D02*
D03*
Y16000D02*
D03*
X4200Y15000D02*
D03*
Y16000D02*
D03*
X5200Y15000D02*
D03*
D19*
X18110Y18110D02*
D03*
Y1575D02*
D03*
X1575D02*
D03*
Y18110D02*
D03*
D20*
X15383Y15383D02*
D03*
X6299Y7402D02*
D03*
X10433Y5591D02*
D03*
X6643Y11034D02*
D03*
X14439D02*
D03*
X10000Y5000D02*
D03*
X10984Y6102D02*
D03*
M02*
