%FSLAX24Y24*%
%MOIN*%
G70*
G01*
G75*
G04 Layer_Color=32896*
%ADD10R,0.0276X0.0354*%
%ADD11R,0.0906X0.0906*%
%ADD12R,0.0354X0.0276*%
%ADD13R,0.0394X0.0433*%
%ADD14R,0.0591X0.0236*%
%ADD15C,0.0787*%
%ADD16C,0.0100*%
%ADD17C,0.0984*%
%ADD18C,0.1575*%
%ADD19C,0.0591*%
%ADD20C,0.1181*%
%ADD21R,0.0591X0.0591*%
%ADD22C,0.0500*%
%ADD23R,0.0906X0.0906*%
%ADD24R,0.0433X0.0394*%
%ADD25R,0.0906X0.0984*%
%ADD26R,0.0453X0.0236*%
%ADD27O,0.0236X0.0866*%
%ADD28C,0.0098*%
%ADD29C,0.0079*%
%ADD30C,0.0394*%
%ADD31C,0.0090*%
%ADD32C,0.0080*%
%ADD33R,0.0356X0.0434*%
%ADD34R,0.0986X0.0986*%
%ADD35R,0.0434X0.0356*%
%ADD36R,0.0474X0.0513*%
%ADD37R,0.0671X0.0316*%
%ADD38C,0.1064*%
%ADD39C,0.1655*%
%ADD40C,0.0671*%
%ADD41C,0.1261*%
%ADD42R,0.0671X0.0671*%
%ADD43C,0.0580*%
%ADD44R,0.0986X0.0986*%
%ADD45R,0.0513X0.0474*%
%ADD46R,0.0986X0.1064*%
%ADD47R,0.0533X0.0316*%
%ADD48O,0.0316X0.0946*%
D16*
X16350Y27726D02*
Y27126D01*
X16050D01*
X15950Y27226D01*
Y27626D01*
X16050Y27726D01*
X16350D01*
X15350D02*
X15550Y27626D01*
X15750Y27426D01*
Y27226D01*
X15650Y27126D01*
X15450D01*
X15350Y27226D01*
Y27326D01*
X15450Y27426D01*
X15750D01*
X15354Y18770D02*
Y19370D01*
X15654D01*
X15754Y19270D01*
Y18870D01*
X15654Y18770D01*
X15354D01*
X16354D02*
X15954D01*
Y19070D01*
X16154Y18970D01*
X16254D01*
X16354Y19070D01*
Y19270D01*
X16254Y19370D01*
X16054D01*
X15954Y19270D01*
X23346Y18652D02*
Y19252D01*
X23646D01*
X23746Y19152D01*
Y18752D01*
X23646Y18652D01*
X23346D01*
X23946Y19152D02*
X24046Y19252D01*
X24246D01*
X24346Y19152D01*
Y18752D01*
X24246Y18652D01*
X24046D01*
X23946Y18752D01*
Y18852D01*
X24046Y18952D01*
X24346D01*
X24350Y27726D02*
Y27126D01*
X24050D01*
X23950Y27226D01*
Y27626D01*
X24050Y27726D01*
X24350D01*
X23750Y27126D02*
X23550D01*
X23650D01*
Y27726D01*
X23750Y27626D01*
X23250D02*
X23150Y27726D01*
X22950D01*
X22850Y27626D01*
Y27226D01*
X22950Y27126D01*
X23150D01*
X23250Y27226D01*
Y27626D01*
X14025Y2795D02*
X13525D01*
X13425Y2895D01*
Y3095D01*
X13525Y3195D01*
X14025D01*
X13425Y3395D02*
Y3595D01*
Y3495D01*
X14025D01*
X13925Y3395D01*
X13325Y3895D02*
Y4295D01*
X13425Y4495D02*
X13825D01*
X14025Y4695D01*
X13825Y4895D01*
X13425D01*
X13725D01*
Y4495D01*
X13425Y5494D02*
Y5095D01*
X13825Y5494D01*
X13925D01*
X14025Y5394D01*
Y5195D01*
X13925Y5095D01*
X8852Y20342D02*
X8952Y20442D01*
X9152D01*
X9252Y20342D01*
Y19942D01*
X9152Y19843D01*
X8952D01*
X8852Y19942D01*
X8652Y19843D02*
X8452D01*
X8552D01*
Y20442D01*
X8652Y20342D01*
X8152Y19743D02*
X7752D01*
X7553Y19843D02*
Y20242D01*
X7353Y20442D01*
X7153Y20242D01*
Y19843D01*
Y20142D01*
X7553D01*
X6953Y19843D02*
X6753D01*
X6853D01*
Y20442D01*
X6953Y20342D01*
X8970Y36366D02*
X9070Y36466D01*
X9270D01*
X9370Y36366D01*
Y35966D01*
X9270Y35866D01*
X9070D01*
X8970Y35966D01*
X8770Y35866D02*
X8570D01*
X8670D01*
Y36466D01*
X8770Y36366D01*
X8270Y35766D02*
X7871D01*
X7671Y35866D02*
Y36266D01*
X7471Y36466D01*
X7271Y36266D01*
Y35866D01*
Y36166D01*
X7671D01*
X6671Y35866D02*
X7071D01*
X6671Y36266D01*
Y36366D01*
X6771Y36466D01*
X6971D01*
X7071Y36366D01*
X32159Y27350D02*
X32259Y27450D01*
X32459D01*
X32559Y27350D01*
Y26950D01*
X32459Y26850D01*
X32259D01*
X32159Y26950D01*
X31959Y26850D02*
X31759D01*
X31859D01*
Y27450D01*
X31959Y27350D01*
X31459Y26750D02*
X31060D01*
X30860Y27450D02*
Y26850D01*
X30560D01*
X30460Y26950D01*
Y27050D01*
X30560Y27150D01*
X30860D01*
X30560D01*
X30460Y27250D01*
Y27350D01*
X30560Y27450D01*
X30860D01*
X30260Y26850D02*
X30060D01*
X30160D01*
Y27450D01*
X30260Y27350D01*
X30479Y10996D02*
X30379Y10896D01*
X30179D01*
X30079Y10996D01*
Y11396D01*
X30179Y11496D01*
X30379D01*
X30479Y11396D01*
X30679Y11496D02*
X30878D01*
X30779D01*
Y10896D01*
X30679Y10996D01*
X31178Y11596D02*
X31578D01*
X31778Y10896D02*
Y11496D01*
X32078D01*
X32178Y11396D01*
Y11296D01*
X32078Y11196D01*
X31778D01*
X32078D01*
X32178Y11096D01*
Y10996D01*
X32078Y10896D01*
X31778D01*
X32778Y11496D02*
X32378D01*
X32778Y11096D01*
Y10996D01*
X32678Y10896D01*
X32478D01*
X32378Y10996D01*
X7077Y17795D02*
X7677D01*
Y17495D01*
X7577Y17395D01*
X7177D01*
X7077Y17495D01*
Y17795D01*
X7677Y17195D02*
Y16996D01*
Y17096D01*
X7077D01*
X7177Y17195D01*
X7777Y16696D02*
Y16296D01*
X7677Y16096D02*
X7277D01*
X7077Y15896D01*
X7277Y15696D01*
X7677D01*
X7377D01*
Y16096D01*
X7677Y15496D02*
Y15296D01*
Y15396D01*
X7077D01*
X7177Y15496D01*
X7314Y34291D02*
X7913D01*
Y33991D01*
X7813Y33891D01*
X7414D01*
X7314Y33991D01*
Y34291D01*
X7913Y33692D02*
Y33492D01*
Y33592D01*
X7314D01*
X7414Y33692D01*
X8013Y33192D02*
Y32792D01*
X7913Y32592D02*
X7514D01*
X7314Y32392D01*
X7514Y32192D01*
X7913D01*
X7613D01*
Y32592D01*
X7913Y31592D02*
Y31992D01*
X7514Y31592D01*
X7414D01*
X7314Y31692D01*
Y31892D01*
X7414Y31992D01*
X32057Y29606D02*
X31457D01*
Y29906D01*
X31557Y30006D01*
X31957D01*
X32057Y29906D01*
Y29606D01*
X31457Y30206D02*
Y30406D01*
Y30306D01*
X32057D01*
X31957Y30206D01*
X31357Y30706D02*
Y31106D01*
X32057Y31306D02*
X31457D01*
Y31606D01*
X31557Y31706D01*
X31657D01*
X31757Y31606D01*
Y31306D01*
Y31606D01*
X31857Y31706D01*
X31957D01*
X32057Y31606D01*
Y31306D01*
X31457Y31906D02*
Y32105D01*
Y32006D01*
X32057D01*
X31957Y31906D01*
X32057Y13150D02*
X31457D01*
Y13450D01*
X31557Y13549D01*
X31957D01*
X32057Y13450D01*
Y13150D01*
X31457Y13749D02*
Y13949D01*
Y13849D01*
X32057D01*
X31957Y13749D01*
X31357Y14249D02*
Y14649D01*
X32057Y14849D02*
X31457D01*
Y15149D01*
X31557Y15249D01*
X31657D01*
X31757Y15149D01*
Y14849D01*
Y15149D01*
X31857Y15249D01*
X31957D01*
X32057Y15149D01*
Y14849D01*
X31457Y15849D02*
Y15449D01*
X31857Y15849D01*
X31957D01*
X32057Y15749D01*
Y15549D01*
X31957Y15449D01*
X10079Y17629D02*
Y18228D01*
X10379D01*
X10479Y18128D01*
Y17729D01*
X10379Y17629D01*
X10079D01*
X11078Y18228D02*
X10679D01*
X11078Y17828D01*
Y17729D01*
X10978Y17629D01*
X10779D01*
X10679Y17729D01*
X11278Y18328D02*
X11678D01*
X11878Y18228D02*
Y17828D01*
X12078Y17629D01*
X12278Y17828D01*
Y18228D01*
Y17928D01*
X11878D01*
X12478Y18228D02*
X12678D01*
X12578D01*
Y17629D01*
X12478Y17729D01*
X10236Y33613D02*
Y34213D01*
X10536D01*
X10636Y34113D01*
Y33713D01*
X10536Y33613D01*
X10236D01*
X11236Y34213D02*
X10836D01*
X11236Y33813D01*
Y33713D01*
X11136Y33613D01*
X10936D01*
X10836Y33713D01*
X11436Y34313D02*
X11836D01*
X12036Y34213D02*
Y33813D01*
X12236Y33613D01*
X12436Y33813D01*
Y34213D01*
Y33913D01*
X12036D01*
X13035Y34213D02*
X12635D01*
X13035Y33813D01*
Y33713D01*
X12935Y33613D01*
X12735D01*
X12635Y33713D01*
X29173Y29852D02*
Y29252D01*
X28873D01*
X28773Y29352D01*
Y29752D01*
X28873Y29852D01*
X29173D01*
X28174Y29252D02*
X28573D01*
X28174Y29652D01*
Y29752D01*
X28274Y29852D01*
X28473D01*
X28573Y29752D01*
X27974Y29152D02*
X27574D01*
X27374Y29852D02*
Y29252D01*
X27074D01*
X26974Y29352D01*
Y29452D01*
X27074Y29552D01*
X27374D01*
X27074D01*
X26974Y29652D01*
Y29752D01*
X27074Y29852D01*
X27374D01*
X26774Y29252D02*
X26574D01*
X26674D01*
Y29852D01*
X26774Y29752D01*
X29173Y13986D02*
Y13386D01*
X28873D01*
X28773Y13486D01*
Y13886D01*
X28873Y13986D01*
X29173D01*
X28174Y13386D02*
X28573D01*
X28174Y13786D01*
Y13886D01*
X28274Y13986D01*
X28473D01*
X28573Y13886D01*
X27974Y13286D02*
X27574D01*
X27374Y13986D02*
Y13386D01*
X27074D01*
X26974Y13486D01*
Y13586D01*
X27074Y13686D01*
X27374D01*
X27074D01*
X26974Y13786D01*
Y13886D01*
X27074Y13986D01*
X27374D01*
X26374Y13386D02*
X26774D01*
X26374Y13786D01*
Y13886D01*
X26474Y13986D01*
X26674D01*
X26774Y13886D01*
X8386Y14252D02*
X7786D01*
Y13952D01*
X7886Y13852D01*
X8086D01*
X8186Y13952D01*
Y14252D01*
Y14052D02*
X8386Y13852D01*
Y13652D02*
Y13452D01*
Y13552D01*
X7786D01*
X7886Y13652D01*
X8386Y13152D02*
Y12952D01*
Y13052D01*
X7786D01*
X7886Y13152D01*
X8486Y12652D02*
Y12253D01*
X8386Y12053D02*
X7986D01*
X7786Y11853D01*
X7986Y11653D01*
X8386D01*
X8086D01*
Y12053D01*
X8386Y11453D02*
Y11253D01*
Y11353D01*
X7786D01*
X7886Y11453D01*
X8346Y30630D02*
X7747D01*
Y30330D01*
X7847Y30230D01*
X8047D01*
X8147Y30330D01*
Y30630D01*
Y30430D02*
X8346Y30230D01*
Y30030D02*
Y29830D01*
Y29930D01*
X7747D01*
X7847Y30030D01*
X8346Y29530D02*
Y29330D01*
Y29430D01*
X7747D01*
X7847Y29530D01*
X8446Y29030D02*
Y28631D01*
X8346Y28431D02*
X7947D01*
X7747Y28231D01*
X7947Y28031D01*
X8346D01*
X8047D01*
Y28431D01*
X8346Y27431D02*
Y27831D01*
X7947Y27431D01*
X7847D01*
X7747Y27531D01*
Y27731D01*
X7847Y27831D01*
X31063Y32717D02*
X31663D01*
Y33016D01*
X31563Y33116D01*
X31363D01*
X31263Y33016D01*
Y32717D01*
Y32916D02*
X31063Y33116D01*
Y33316D02*
Y33516D01*
Y33416D01*
X31663D01*
X31563Y33316D01*
X31063Y33816D02*
Y34016D01*
Y33916D01*
X31663D01*
X31563Y33816D01*
X30963Y34316D02*
Y34716D01*
X31663Y34916D02*
X31063D01*
Y35216D01*
X31163Y35316D01*
X31263D01*
X31363Y35216D01*
Y34916D01*
Y35216D01*
X31463Y35316D01*
X31563D01*
X31663Y35216D01*
Y34916D01*
X31063Y35516D02*
Y35716D01*
Y35616D01*
X31663D01*
X31563Y35516D01*
X29685Y17047D02*
Y17647D01*
X29385D01*
X29285Y17547D01*
Y17347D01*
X29385Y17247D01*
X29685D01*
X29485D02*
X29285Y17047D01*
X29085D02*
X28885D01*
X28985D01*
Y17647D01*
X29085Y17547D01*
X28585Y17047D02*
X28385D01*
X28485D01*
Y17647D01*
X28585Y17547D01*
X28086Y16947D02*
X27686D01*
X27486Y17647D02*
Y17047D01*
X27186D01*
X27086Y17147D01*
Y17247D01*
X27186Y17347D01*
X27486D01*
X27186D01*
X27086Y17447D01*
Y17547D01*
X27186Y17647D01*
X27486D01*
X26486Y17047D02*
X26886D01*
X26486Y17447D01*
Y17547D01*
X26586Y17647D01*
X26786D01*
X26886Y17547D01*
X13701Y18268D02*
X14301D01*
Y18568D01*
X14201Y18668D01*
X14001D01*
X13901Y18568D01*
Y18268D01*
Y18468D02*
X13701Y18668D01*
Y18868D02*
Y19067D01*
Y18967D01*
X14301D01*
X14201Y18868D01*
X13701Y19767D02*
Y19367D01*
X14101Y19767D01*
X14201D01*
X14301Y19667D01*
Y19467D01*
X14201Y19367D01*
X13601Y19967D02*
Y20367D01*
X13701Y20567D02*
X14101D01*
X14301Y20767D01*
X14101Y20967D01*
X13701D01*
X14001D01*
Y20567D01*
X13701Y21167D02*
Y21367D01*
Y21267D01*
X14301D01*
X14201Y21167D01*
X13583Y34331D02*
X14182D01*
Y34631D01*
X14083Y34731D01*
X13883D01*
X13783Y34631D01*
Y34331D01*
Y34531D02*
X13583Y34731D01*
Y34931D02*
Y35130D01*
Y35030D01*
X14182D01*
X14083Y34931D01*
X13583Y35830D02*
Y35430D01*
X13983Y35830D01*
X14083D01*
X14182Y35730D01*
Y35530D01*
X14083Y35430D01*
X13483Y36030D02*
Y36430D01*
X13583Y36630D02*
X13983D01*
X14182Y36830D01*
X13983Y37030D01*
X13583D01*
X13883D01*
Y36630D01*
X13583Y37630D02*
Y37230D01*
X13983Y37630D01*
X14083D01*
X14182Y37530D01*
Y37330D01*
X14083Y37230D01*
X25433Y28858D02*
X24833D01*
Y28558D01*
X24933Y28458D01*
X25133D01*
X25233Y28558D01*
Y28858D01*
Y28658D02*
X25433Y28458D01*
Y28258D02*
Y28059D01*
Y28158D01*
X24833D01*
X24933Y28258D01*
X25433Y27359D02*
Y27759D01*
X25033Y27359D01*
X24933D01*
X24833Y27459D01*
Y27659D01*
X24933Y27759D01*
X25533Y27159D02*
Y26759D01*
X24833Y26559D02*
X25433D01*
Y26259D01*
X25333Y26159D01*
X25233D01*
X25133Y26259D01*
Y26559D01*
Y26259D01*
X25033Y26159D01*
X24933D01*
X24833Y26259D01*
Y26559D01*
X25433Y25959D02*
Y25759D01*
Y25859D01*
X24833D01*
X24933Y25959D01*
X25709Y12874D02*
X25109D01*
Y12574D01*
X25209Y12474D01*
X25409D01*
X25509Y12574D01*
Y12874D01*
Y12674D02*
X25709Y12474D01*
Y12274D02*
Y12074D01*
Y12174D01*
X25109D01*
X25209Y12274D01*
X25709Y11374D02*
Y11774D01*
X25309Y11374D01*
X25209D01*
X25109Y11474D01*
Y11674D01*
X25209Y11774D01*
X25809Y11175D02*
Y10775D01*
X25109Y10575D02*
X25709D01*
Y10275D01*
X25609Y10175D01*
X25509D01*
X25409Y10275D01*
Y10575D01*
Y10275D01*
X25309Y10175D01*
X25209D01*
X25109Y10275D01*
Y10575D01*
X25709Y9575D02*
Y9975D01*
X25309Y9575D01*
X25209D01*
X25109Y9675D01*
Y9875D01*
X25209Y9975D01*
X12638Y20157D02*
X13238D01*
Y20457D01*
X13138Y20557D01*
X12938D01*
X12838Y20457D01*
Y20157D01*
Y20357D02*
X12638Y20557D01*
Y20757D02*
Y20957D01*
Y20857D01*
X13238D01*
X13138Y20757D01*
Y21257D02*
X13238Y21357D01*
Y21557D01*
X13138Y21657D01*
X13038D01*
X12938Y21557D01*
Y21457D01*
Y21557D01*
X12838Y21657D01*
X12738D01*
X12638Y21557D01*
Y21357D01*
X12738Y21257D01*
X12538Y21857D02*
Y22257D01*
X12638Y22457D02*
X13038D01*
X13238Y22657D01*
X13038Y22857D01*
X12638D01*
X12938D01*
Y22457D01*
X12638Y23057D02*
Y23256D01*
Y23157D01*
X13238D01*
X13138Y23057D01*
X12598Y36181D02*
X13198D01*
Y36481D01*
X13098Y36581D01*
X12898D01*
X12798Y36481D01*
Y36181D01*
Y36381D02*
X12598Y36581D01*
Y36781D02*
Y36981D01*
Y36881D01*
X13198D01*
X13098Y36781D01*
Y37281D02*
X13198Y37381D01*
Y37581D01*
X13098Y37681D01*
X12998D01*
X12898Y37581D01*
Y37481D01*
Y37581D01*
X12798Y37681D01*
X12698D01*
X12598Y37581D01*
Y37381D01*
X12698Y37281D01*
X12498Y37881D02*
Y38280D01*
X12598Y38480D02*
X12998D01*
X13198Y38680D01*
X12998Y38880D01*
X12598D01*
X12898D01*
Y38480D01*
X12598Y39480D02*
Y39080D01*
X12998Y39480D01*
X13098D01*
X13198Y39380D01*
Y39180D01*
X13098Y39080D01*
X26614Y27047D02*
X26014D01*
Y26747D01*
X26114Y26647D01*
X26314D01*
X26414Y26747D01*
Y27047D01*
Y26847D02*
X26614Y26647D01*
Y26447D02*
Y26247D01*
Y26347D01*
X26014D01*
X26114Y26447D01*
Y25948D02*
X26014Y25848D01*
Y25648D01*
X26114Y25548D01*
X26214D01*
X26314Y25648D01*
Y25748D01*
Y25648D01*
X26414Y25548D01*
X26514D01*
X26614Y25648D01*
Y25848D01*
X26514Y25948D01*
X26714Y25348D02*
Y24948D01*
X26014Y24748D02*
X26614D01*
Y24448D01*
X26514Y24348D01*
X26414D01*
X26314Y24448D01*
Y24748D01*
Y24448D01*
X26214Y24348D01*
X26114D01*
X26014Y24448D01*
Y24748D01*
X26614Y24148D02*
Y23948D01*
Y24048D01*
X26014D01*
X26114Y24148D01*
X26850Y11299D02*
X26251D01*
Y10999D01*
X26351Y10899D01*
X26550D01*
X26650Y10999D01*
Y11299D01*
Y11099D02*
X26850Y10899D01*
Y10699D02*
Y10499D01*
Y10599D01*
X26251D01*
X26351Y10699D01*
Y10200D02*
X26251Y10100D01*
Y9900D01*
X26351Y9800D01*
X26451D01*
X26550Y9900D01*
Y10000D01*
Y9900D01*
X26650Y9800D01*
X26750D01*
X26850Y9900D01*
Y10100D01*
X26750Y10200D01*
X26950Y9600D02*
Y9200D01*
X26251Y9000D02*
X26850D01*
Y8700D01*
X26750Y8600D01*
X26650D01*
X26550Y8700D01*
Y9000D01*
Y8700D01*
X26451Y8600D01*
X26351D01*
X26251Y8700D01*
Y9000D01*
X26850Y8000D02*
Y8400D01*
X26451Y8000D01*
X26351D01*
X26251Y8100D01*
Y8300D01*
X26351Y8400D01*
X8474Y2835D02*
X7974D01*
X7874Y2935D01*
Y3135D01*
X7974Y3235D01*
X8474D01*
X7874Y3434D02*
Y3634D01*
Y3534D01*
X8474D01*
X8374Y3434D01*
X7774Y3934D02*
Y4334D01*
X7874Y4534D02*
X8274D01*
X8474Y4734D01*
X8274Y4934D01*
X7874D01*
X8174D01*
Y4534D01*
X7874Y5134D02*
Y5334D01*
Y5234D01*
X8474D01*
X8374Y5134D01*
X36190Y2677D02*
X35691D01*
X35591Y2777D01*
Y2977D01*
X35691Y3077D01*
X36190D01*
X35591Y3277D02*
Y3477D01*
Y3377D01*
X36190D01*
X36090Y3277D01*
X35491Y3777D02*
Y4177D01*
X36190Y4377D02*
X35591D01*
Y4677D01*
X35691Y4776D01*
X35790D01*
X35890Y4677D01*
Y4377D01*
Y4677D01*
X35990Y4776D01*
X36090D01*
X36190Y4677D01*
Y4377D01*
X35591Y4976D02*
Y5176D01*
Y5076D01*
X36190D01*
X36090Y4976D01*
X30285Y2717D02*
X29785D01*
X29685Y2817D01*
Y3016D01*
X29785Y3116D01*
X30285D01*
X29685Y3316D02*
Y3516D01*
Y3416D01*
X30285D01*
X30185Y3316D01*
X29585Y3816D02*
Y4216D01*
X30285Y4416D02*
X29685D01*
Y4716D01*
X29785Y4816D01*
X29885D01*
X29985Y4716D01*
Y4416D01*
Y4716D01*
X30085Y4816D01*
X30185D01*
X30285Y4716D01*
Y4416D01*
X29685Y5416D02*
Y5016D01*
X30085Y5416D01*
X30185D01*
X30285Y5316D01*
Y5116D01*
X30185Y5016D01*
D28*
X10892Y19955D02*
G03*
X10892Y19955I-49J0D01*
G01*
X10892Y35885D02*
G03*
X10892Y35885I-49J0D01*
G01*
X28577Y27250D02*
G03*
X28577Y27250I-49J0D01*
G01*
Y11461D02*
G03*
X28577Y11461I-49J0D01*
G01*
X29272Y3055D02*
G03*
X29272Y3055I-49J0D01*
G01*
X35134D02*
G03*
X35134Y3055I-49J0D01*
G01*
X12934D02*
G03*
X12934Y3055I-49J0D01*
G01*
X7334D02*
G03*
X7334Y3055I-49J0D01*
G01*
D29*
X24410Y23849D02*
Y24813D01*
X23190Y23849D02*
Y24813D01*
Y25758D02*
Y26782D01*
X24410Y25758D02*
Y26782D01*
X23367Y23672D02*
X24233D01*
X23190Y23849D02*
X23367Y23672D01*
X24233D02*
X24410Y23849D01*
X23190Y26782D02*
X24410D01*
X15190Y21743D02*
Y22707D01*
X16410Y21743D02*
Y22707D01*
Y19774D02*
Y20798D01*
X15190Y19774D02*
Y20798D01*
X15367Y22884D02*
X16233D01*
X16410Y22707D01*
X15190D02*
X15367Y22884D01*
X15190Y19774D02*
X16410D01*
Y23849D02*
Y24813D01*
X15190Y23849D02*
Y24813D01*
Y25758D02*
Y26782D01*
X16410Y25758D02*
Y26782D01*
X15367Y23672D02*
X16233D01*
X15190Y23849D02*
X15367Y23672D01*
X16233D02*
X16410Y23849D01*
X15190Y26782D02*
X16410D01*
X8309Y15376D02*
Y18447D01*
X9727D01*
Y15376D02*
Y18447D01*
X8309Y18250D02*
X9727D01*
X10124Y18656D02*
Y18971D01*
Y18656D02*
X10478D01*
X10124Y19522D02*
Y19837D01*
X10478D01*
X8426Y31340D02*
Y34411D01*
X9843D01*
Y31340D02*
Y34411D01*
X8426Y34214D02*
X9843D01*
X10124Y34586D02*
Y34901D01*
Y34586D02*
X10478D01*
X10124Y35452D02*
Y35767D01*
X10478D01*
X30928Y28969D02*
Y32039D01*
X29511Y28969D02*
X30928D01*
X29511D02*
Y32039D01*
Y29165D02*
X30928D01*
X29246Y28235D02*
Y28550D01*
X28892D02*
X29246D01*
Y27369D02*
Y27683D01*
X28892Y27369D02*
X29246D01*
X30974Y13189D02*
Y16260D01*
X29557Y13189D02*
X30974D01*
X29557D02*
Y16260D01*
Y13386D02*
X30974D01*
X29246Y12446D02*
Y12761D01*
X28892D02*
X29246D01*
Y11580D02*
Y11894D01*
X28892Y11580D02*
X29246D01*
X25170Y3646D02*
Y4354D01*
X29107Y3646D02*
Y4354D01*
X25170D02*
X29107D01*
X25170Y3646D02*
X29107D01*
X31031D02*
Y4354D01*
X34969Y3646D02*
Y4354D01*
X31031D02*
X34969D01*
X31031Y3646D02*
X34969D01*
X8831D02*
X12768D01*
X8831Y4354D02*
X12768D01*
Y3646D02*
Y4354D01*
X8831Y3646D02*
Y4354D01*
X3232Y3646D02*
Y4354D01*
X7168Y3646D02*
Y4354D01*
X3232D02*
X7168D01*
X3232Y3646D02*
X7168D01*
X23190Y21743D02*
Y22707D01*
X24410Y21743D02*
Y22707D01*
Y19774D02*
Y20798D01*
X23190Y19774D02*
Y20798D01*
X23367Y22884D02*
X24233D01*
X24410Y22707D01*
X23190D02*
X23367Y22884D01*
X23190Y19774D02*
X24410D01*
M02*
