M48
;Layer_Color=9474304
;FILE_FORMAT=2:4
INCH,LZ
;TYPE=PLATED
T1F00S00C0.0280
T2F00S00C0.0295
T3F00S00C0.0354
T4F00S00C0.0512
T5F00S00C0.0709
;TYPE=NON_PLATED
T6F00S00C0.1181
T7F00S00C0.1575
%
T01
X00495Y002176
X00645Y002172
X01055Y002167
X01205Y002168
Y006651
X00955Y007333
X007992Y008307
X010866Y009291
X00345Y008844
X025389Y008578
X025889Y006929
X028389Y006026
X027889Y00218
X026889Y002176
X023698Y0052
X02232Y004058
X031732Y005984
X03425Y006417
X033661Y009449
X03125Y008533
X03175Y015197
X032638
X03275Y002176
X03375Y002175
X031732Y019213
X031732Y02563
X031123Y02872
X028701Y030315
X031102Y019213
X013228Y02
X014843Y022087
Y025394
X013228Y029646
X002677Y029094
X0025Y028248
X001496Y020866
X001929Y019882
X007874Y018346
X026772Y033543
T02
X009811Y011811
X010811
X011811
X027528Y009843
X028528
X029528
X029559Y019685
X028559
X027559
X027528Y025591
X028528
X029528
X011811Y027559
X010811
X009811
X009843Y021654
X010843
X011843
X011843Y037402
X010843
X009843
X027559Y035433
X028559
X029559
T03
X0158Y0016
Y0026
X0168
Y0016
X0178
Y0026
X0188
Y0016
X0198
Y0026
T04
X035433Y0214
Y0239
X003937Y0231
Y0256
T05
X018756Y022156
X021
Y0244
X018756
T06
X02113Y02012
Y026435
T07
X001969Y001969
X037402
X001969Y037402
X037402
M30
