%FSLAX24Y24*%
%MOIN*%
G70*
G01*
G75*
G04 Layer_Color=16711935*
%ADD10R,0.0276X0.0354*%
%ADD11R,0.0906X0.0906*%
%ADD12R,0.0354X0.0276*%
%ADD13R,0.0394X0.0433*%
%ADD14R,0.0591X0.0236*%
%ADD15C,0.0787*%
%ADD16C,0.0100*%
%ADD17C,0.0984*%
%ADD18C,0.1575*%
%ADD19C,0.0591*%
%ADD20C,0.1181*%
%ADD21R,0.0591X0.0591*%
%ADD22C,0.0500*%
%ADD23R,0.0906X0.0906*%
%ADD24R,0.0433X0.0394*%
%ADD25R,0.0906X0.0984*%
%ADD26R,0.0453X0.0236*%
%ADD27O,0.0236X0.0866*%
%ADD28C,0.0098*%
%ADD29C,0.0079*%
%ADD30C,0.0394*%
%ADD31C,0.0090*%
%ADD32C,0.0080*%
%ADD33R,0.0356X0.0434*%
%ADD34R,0.0986X0.0986*%
%ADD35R,0.0434X0.0356*%
%ADD36R,0.0474X0.0513*%
%ADD37R,0.0671X0.0316*%
%ADD38C,0.1064*%
%ADD39C,0.1655*%
%ADD40C,0.0671*%
%ADD41C,0.1261*%
%ADD42R,0.0671X0.0671*%
%ADD43C,0.0580*%
%ADD44R,0.0986X0.0986*%
%ADD45R,0.0513X0.0474*%
%ADD46R,0.0986X0.1064*%
%ADD47R,0.0533X0.0316*%
%ADD48O,0.0316X0.0946*%
D33*
X11843Y19620D02*
D03*
Y20132D02*
D03*
X12428Y19109D02*
D03*
Y19620D02*
D03*
X9018Y13819D02*
D03*
Y13307D02*
D03*
X9135Y30456D02*
D03*
Y29944D02*
D03*
X12512Y35039D02*
D03*
Y35550D02*
D03*
X11843D02*
D03*
Y36062D02*
D03*
X30220Y32924D02*
D03*
Y33435D02*
D03*
X26954Y28097D02*
D03*
Y27585D02*
D03*
X27528D02*
D03*
Y27073D02*
D03*
X30265Y16944D02*
D03*
Y17456D02*
D03*
X26800Y12308D02*
D03*
Y11796D02*
D03*
X27528D02*
D03*
Y11284D02*
D03*
D38*
X3937Y23100D02*
D03*
Y25600D02*
D03*
X21000Y22156D02*
D03*
Y24400D02*
D03*
X18756D02*
D03*
Y22156D02*
D03*
X35433Y21400D02*
D03*
Y23900D02*
D03*
D39*
X37402Y1969D02*
D03*
X1969Y37402D02*
D03*
Y1969D02*
D03*
X37402Y37402D02*
D03*
D40*
X11811Y11811D02*
D03*
X10811D02*
D03*
X9811D02*
D03*
X11811Y27559D02*
D03*
X10811D02*
D03*
X9811D02*
D03*
X29528Y9843D02*
D03*
X28528D02*
D03*
X27528D02*
D03*
X29559Y19685D02*
D03*
X28559D02*
D03*
X27559D02*
D03*
X11843Y21654D02*
D03*
X10843D02*
D03*
X9843D02*
D03*
X11843Y37402D02*
D03*
X10843D02*
D03*
X9843D02*
D03*
X29559Y35433D02*
D03*
X28559D02*
D03*
X27559D02*
D03*
X29528Y25591D02*
D03*
X28528D02*
D03*
X27528D02*
D03*
X15800Y2600D02*
D03*
X16800Y1600D02*
D03*
Y2600D02*
D03*
X17800Y1600D02*
D03*
Y2600D02*
D03*
X18800Y1600D02*
D03*
Y2600D02*
D03*
X19800Y1600D02*
D03*
Y2600D02*
D03*
D41*
X21130Y26435D02*
D03*
Y20120D02*
D03*
D42*
X15800Y1600D02*
D03*
D43*
X26772Y33543D02*
D03*
X22320Y4058D02*
D03*
X10550Y2167D02*
D03*
X26889Y2176D02*
D03*
X32750D02*
D03*
X4950D02*
D03*
X27889Y2180D02*
D03*
X33750Y2175D02*
D03*
X6450Y2172D02*
D03*
X12050Y2168D02*
D03*
X25889Y6929D02*
D03*
X7874Y18346D02*
D03*
X28389Y6026D02*
D03*
X31732Y5984D02*
D03*
X34250Y6417D02*
D03*
X9550Y7333D02*
D03*
X12050Y6651D02*
D03*
X33661Y9449D02*
D03*
X10866Y9291D02*
D03*
X3450Y8844D02*
D03*
X7992Y8307D02*
D03*
X25389Y8578D02*
D03*
X31250Y8533D02*
D03*
X23698Y5200D02*
D03*
X1496Y20866D02*
D03*
X2677Y29094D02*
D03*
X1929Y19882D02*
D03*
X2500Y28248D02*
D03*
X28701Y30315D02*
D03*
X31123Y28720D02*
D03*
X31732Y25630D02*
D03*
X31102Y19213D02*
D03*
X31732D02*
D03*
X31750Y15197D02*
D03*
X32638D02*
D03*
X14843Y25394D02*
D03*
Y22087D02*
D03*
X13228Y20000D02*
D03*
Y29646D02*
D03*
D44*
X23800Y24400D02*
D03*
Y26172D02*
D03*
X15800Y22156D02*
D03*
Y20384D02*
D03*
Y24400D02*
D03*
Y26172D02*
D03*
X23800Y22156D02*
D03*
Y20384D02*
D03*
D45*
X8349Y19246D02*
D03*
X9018D02*
D03*
X8465Y35176D02*
D03*
X9135D02*
D03*
X30889Y27959D02*
D03*
X30220D02*
D03*
X30935Y12170D02*
D03*
X30265D02*
D03*
D46*
X9018Y15652D02*
D03*
Y17620D02*
D03*
X9135Y31616D02*
D03*
Y33584D02*
D03*
X30220Y31764D02*
D03*
Y29795D02*
D03*
X30265Y15984D02*
D03*
Y14016D02*
D03*
D47*
X9957Y19246D02*
D03*
X10843Y18872D02*
D03*
Y19620D02*
D03*
X9957Y35176D02*
D03*
X10843Y34802D02*
D03*
Y35550D02*
D03*
X29413Y27959D02*
D03*
X28528Y28333D02*
D03*
Y27585D02*
D03*
X29413Y12170D02*
D03*
X28528Y12544D02*
D03*
Y11796D02*
D03*
D48*
X25389Y4945D02*
D03*
X25889D02*
D03*
X26389D02*
D03*
X26889D02*
D03*
X27389D02*
D03*
X27889D02*
D03*
X28389D02*
D03*
X28889D02*
D03*
X25389Y3055D02*
D03*
X25889D02*
D03*
X26389D02*
D03*
X26889D02*
D03*
X27389D02*
D03*
X27889D02*
D03*
X28389D02*
D03*
X28889D02*
D03*
X31250Y4945D02*
D03*
X31750D02*
D03*
X32250D02*
D03*
X32750D02*
D03*
X33250D02*
D03*
X33750D02*
D03*
X34250D02*
D03*
X34750D02*
D03*
X31250Y3055D02*
D03*
X31750D02*
D03*
X32250D02*
D03*
X32750D02*
D03*
X33250D02*
D03*
X33750D02*
D03*
X34250D02*
D03*
X34750D02*
D03*
X12550D02*
D03*
X12050D02*
D03*
X11550D02*
D03*
X11050D02*
D03*
X10550D02*
D03*
X10050D02*
D03*
X9550D02*
D03*
X9050D02*
D03*
X12550Y4945D02*
D03*
X12050D02*
D03*
X11550D02*
D03*
X11050D02*
D03*
X10550D02*
D03*
X10050D02*
D03*
X9550D02*
D03*
X9050D02*
D03*
X3450D02*
D03*
X3950D02*
D03*
X4450D02*
D03*
X4950D02*
D03*
X5450D02*
D03*
X5950D02*
D03*
X6450D02*
D03*
X6950D02*
D03*
X3450Y3055D02*
D03*
X3950D02*
D03*
X4450D02*
D03*
X4950D02*
D03*
X5450D02*
D03*
X5950D02*
D03*
X6450D02*
D03*
X6950D02*
D03*
M02*
